<svg width="396" height="419" viewBox="0 0 396 419" fill="none" xmlns="http://www.w3.org/2000/svg">
<g opacity="0.21">
<path d="M265.242 124.137C267.404 115.616 268.485 111.354 267.309 108.871C266.288 106.714 264.312 105.181 261.968 104.726C259.27 104.202 255.406 106.303 247.68 110.506L186.139 143.982C183.854 145.224 182.712 145.846 181.515 146.071C180.458 146.272 179.373 146.247 178.334 146C177.159 145.72 176.07 145.049 173.893 143.705L115.236 107.515C107.872 102.971 104.191 100.7 101.454 101.101C99.0768 101.449 96.9775 102.891 95.7794 104.998C94.3998 107.423 95.1264 111.724 96.5787 120.328L108.15 188.856C108.579 191.398 108.794 192.67 108.617 193.878C108.46 194.948 108.082 195.977 107.507 196.897C106.858 197.939 105.866 198.783 103.881 200.473L50.4096 245.982C43.6959 251.696 40.3396 254.552 39.8245 257.282C39.3764 259.656 40.0552 262.08 41.6586 263.837C43.505 265.86 47.8167 266.418 56.441 267.532L125.134 276.407C127.684 276.736 128.957 276.902 130.045 277.422C131.006 277.883 131.857 278.544 132.542 279.36C133.315 280.284 133.791 281.477 134.741 283.864L160.35 348.181C163.565 356.256 165.173 360.292 167.591 361.58C169.691 362.697 172.21 362.755 174.4 361.733C176.919 360.558 178.858 356.601 182.735 348.686L213.619 285.646C214.765 283.305 215.338 282.136 216.187 281.249C216.938 280.465 217.841 279.844 218.84 279.427C219.967 278.957 221.253 278.85 223.825 278.636L293.124 272.876C301.824 272.153 306.174 271.792 308.184 269.856C309.93 268.175 310.808 265.785 310.558 263.397C310.269 260.647 307.155 257.645 300.927 251.639L251.322 203.802C249.481 202.026 248.56 201.138 247.998 200.07C247.501 199.124 247.209 198.081 247.141 197.006C247.064 195.792 247.383 194.533 248.022 192.013L265.242 124.137Z" stroke="url(#paint0_linear_218_106)" stroke-width="9" stroke-linecap="round" stroke-linejoin="round"/>
</g>
<defs>
<linearGradient id="paint0_linear_218_106" x1="291.128" y1="291.938" x2="78.6926" y2="126.854" gradientUnits="userSpaceOnUse">
<stop stop-color="#F9C5F2"/>
<stop offset="1" stop-color="#0E39FE"/>
</linearGradient>
</defs>
</svg>
