<svg width="376" height="419" viewBox="0 0 376 419" fill="none" xmlns="http://www.w3.org/2000/svg">
<g opacity="0.21">
<path d="M130.48 124.137C128.318 115.616 127.238 111.354 128.414 108.871C129.435 106.714 131.411 105.181 133.755 104.726C136.453 104.202 140.317 106.303 148.043 110.506L209.584 143.982C211.869 145.224 213.011 145.846 214.207 146.071C215.265 146.272 216.35 146.247 217.389 146C218.564 145.72 219.653 145.049 221.83 143.705L280.486 107.515C287.851 102.971 291.532 100.7 294.269 101.101C296.646 101.449 298.745 102.891 299.943 104.998C301.323 107.423 300.596 111.724 299.144 120.328L287.573 188.856C287.144 191.398 286.929 192.67 287.106 193.878C287.263 194.948 287.641 195.977 288.215 196.897C288.865 197.939 289.856 198.783 291.842 200.473L345.313 245.982C352.027 251.696 355.383 254.552 355.898 257.282C356.346 259.656 355.667 262.08 354.064 263.837C352.218 265.86 347.906 266.418 339.282 267.532L270.588 276.407C268.039 276.736 266.765 276.902 265.678 277.422C264.717 277.883 263.866 278.544 263.181 279.36C262.408 280.284 261.932 281.477 260.981 283.864L235.373 348.181C232.157 356.256 230.549 360.292 228.132 361.58C226.031 362.697 223.513 362.755 221.323 361.733C218.803 360.558 216.865 356.601 212.987 348.686L182.104 285.646C180.957 283.305 180.384 282.136 179.536 281.249C178.785 280.465 177.882 279.844 176.883 279.427C175.756 278.957 174.469 278.85 171.898 278.636L102.599 272.876C93.8983 272.153 89.5485 271.792 87.5385 269.856C85.7924 268.175 84.9142 265.785 85.165 263.397C85.4537 260.647 88.5676 257.645 94.7955 251.639L144.401 203.802C146.242 202.026 147.163 201.138 147.725 200.07C148.222 199.124 148.514 198.081 148.582 197.006C148.659 195.792 148.339 194.533 147.7 192.013L130.48 124.137Z" stroke="url(#paint0_linear_218_10)" stroke-width="9" stroke-linecap="round" stroke-linejoin="round"/>
</g>
<defs>
<linearGradient id="paint0_linear_218_10" x1="104.595" y1="291.938" x2="317.03" y2="126.854" gradientUnits="userSpaceOnUse">
<stop stop-color="#F9C5F2"/>
<stop offset="1" stop-color="#0E39FE"/>
</linearGradient>
</defs>
</svg>
