<svg width="383" height="419" viewBox="0 0 383 419" fill="none" xmlns="http://www.w3.org/2000/svg">
<g opacity="0.21">
<path d="M130.479 124.137C128.317 115.616 127.237 111.354 128.413 108.871C129.434 106.714 131.41 105.181 133.754 104.726C136.452 104.202 140.316 106.303 148.042 110.506L209.583 143.982C211.868 145.224 213.01 145.846 214.206 146.071C215.264 146.272 216.349 146.247 217.388 146C218.563 145.72 219.652 145.049 221.829 143.705L280.486 107.515C287.85 102.971 291.531 100.7 294.268 101.101C296.645 101.449 298.744 102.891 299.942 104.998C301.322 107.423 300.595 111.724 299.143 120.328L287.572 188.856C287.143 191.398 286.928 192.67 287.105 193.878C287.262 194.948 287.64 195.977 288.214 196.897C288.864 197.939 289.855 198.783 291.841 200.473L345.312 245.982C352.026 251.696 355.382 254.552 355.897 257.282C356.345 259.656 355.667 262.08 354.063 263.837C352.217 265.86 347.905 266.418 339.281 267.532L270.587 276.407C268.038 276.736 266.764 276.902 265.677 277.422C264.716 277.883 263.865 278.544 263.18 279.36C262.407 280.284 261.931 281.477 260.98 283.864L235.372 348.181C232.156 356.256 230.548 360.292 228.131 361.58C226.03 362.697 223.512 362.755 221.322 361.733C218.802 360.558 216.864 356.601 212.986 348.686L182.103 285.646C180.956 283.305 180.383 282.136 179.535 281.249C178.784 280.465 177.881 279.844 176.882 279.427C175.755 278.957 174.468 278.85 171.897 278.636L102.598 272.876C93.8973 272.153 89.5475 271.792 87.5375 269.856C85.7915 268.175 84.9133 265.785 85.1641 263.397C85.4527 260.647 88.5667 257.645 94.7945 251.639L144.4 203.802C146.241 202.026 147.162 201.138 147.724 200.07C148.221 199.124 148.513 198.081 148.581 197.006C148.658 195.792 148.338 194.533 147.699 192.013L130.479 124.137Z" stroke="url(#paint0_linear_218_10)" stroke-width="9" stroke-linecap="round" stroke-linejoin="round"/>
</g>
<defs>
<linearGradient id="paint0_linear_218_10" x1="104.594" y1="291.938" x2="317.029" y2="126.854" gradientUnits="userSpaceOnUse">
<stop stop-color="#F9C5F2"/>
<stop offset="1" stop-color="#0E39FE"/>
</linearGradient>
</defs>
</svg>
