<svg width="379" height="419" viewBox="0 0 379 419" fill="none" xmlns="http://www.w3.org/2000/svg">
<g opacity="0.21">
<path d="M248.242 124.137C250.404 115.615 251.485 111.354 250.309 108.871C249.288 106.714 247.312 105.181 244.968 104.726C242.27 104.202 238.406 106.303 230.68 110.506L169.139 143.982C166.854 145.224 165.712 145.845 164.515 146.071C163.458 146.272 162.373 146.247 161.334 146C160.159 145.72 159.07 145.048 156.893 143.705L98.2362 107.515C90.8721 102.971 87.1906 100.7 84.4535 101.101C82.0768 101.449 79.9775 102.891 78.7794 104.998C77.3998 107.423 78.1264 111.724 79.5787 120.328L91.15 188.855C91.5789 191.398 91.7941 192.67 91.6167 193.878C91.4595 194.948 91.0821 195.976 90.5072 196.897C89.8578 197.939 88.8662 198.783 86.8809 200.473L33.4096 245.982C26.6959 251.695 23.3396 254.552 22.8245 257.282C22.3764 259.656 23.0552 262.08 24.6586 263.837C26.505 265.86 30.8167 266.417 39.441 267.532L108.134 276.407C110.684 276.736 111.957 276.902 113.045 277.422C114.006 277.883 114.857 278.544 115.542 279.36C116.315 280.284 116.791 281.477 117.741 283.864L143.35 348.181C146.565 356.256 148.173 360.292 150.591 361.58C152.691 362.697 155.21 362.755 157.4 361.733C159.919 360.558 161.858 356.601 165.735 348.686L196.619 285.646C197.765 283.305 198.338 282.136 199.187 281.249C199.938 280.465 200.841 279.844 201.84 279.427C202.967 278.957 204.253 278.85 206.825 278.636L276.124 272.876C284.824 272.153 289.174 271.792 291.184 269.856C292.93 268.175 293.808 265.785 293.558 263.397C293.269 260.647 290.155 257.644 283.927 251.639L234.322 203.801C232.481 202.026 231.56 201.138 230.998 200.07C230.501 199.124 230.209 198.081 230.141 197.006C230.064 195.792 230.383 194.533 231.022 192.013L248.242 124.137Z" stroke="url(#paint0_linear_218_106)" stroke-width="9" stroke-linecap="round" stroke-linejoin="round"/>
</g>
<defs>
<linearGradient id="paint0_linear_218_106" x1="274.128" y1="291.937" x2="61.6926" y2="126.853" gradientUnits="userSpaceOnUse">
<stop stop-color="#F9C5F2"/>
<stop offset="1" stop-color="#0E39FE"/>
</linearGradient>
</defs>
</svg>
