<svg width="517" height="278" viewBox="0 0 517 278" fill="none" xmlns="http://www.w3.org/2000/svg">
<rect x="3.5" y="25.5" width="305" height="194" rx="12.5" stroke="url(#paint0_linear_149_81)" stroke-width="7"/>
<path fill-rule="evenodd" clip-rule="evenodd" d="M186.75 65C196.736 65 204.898 72.8405 205.468 82.7267L205.5 83.8333V111.142L209.212 109.486C213.048 107.773 217.477 110.43 217.957 114.492L218 115.222V165.444C218 172.064 212.901 177.486 206.433 177.966L205.5 178H105.5C98.9102 178 93.5115 172.878 93.0343 166.382L93 165.444V115.222C93 111.006 97.2165 108.02 101.106 109.228L101.788 109.486L105.5 111.142V83.8333C105.5 73.8035 113.306 65.6048 123.148 65.032L124.25 65H186.75ZM205.5 124.882L160.577 144.937C157.344 146.379 153.656 146.379 150.423 144.937L105.5 124.882V165.444H205.5V124.882ZM186.75 77.5556H124.25C120.798 77.5556 118 80.3662 118 83.8333V116.723L155.5 133.464L193 116.723V83.8333C193 80.3662 190.202 77.5556 186.75 77.5556ZM155.5 96.3889C158.952 96.3889 161.75 99.1996 161.75 102.667C161.75 105.886 159.337 108.54 156.229 108.902L155.5 108.944H143C139.548 108.944 136.75 106.134 136.75 102.667C136.75 99.4472 139.163 96.7938 142.271 96.4311L143 96.3889H155.5Z" fill="url(#paint1_linear_149_81)"/>
<path d="M411.346 0.0245068C411.55 0.0165219 411.752 0.00826031 411.962 0C413.04 0.208711 414.007 0.760777 414.648 1.66721C414.873 2.11024 415.062 2.55519 415.243 3.01777C415.314 3.18518 415.384 3.35259 415.457 3.52495C415.604 3.87436 415.748 4.2246 415.89 4.57566C416.09 5.06688 416.296 5.55451 416.505 6.04159C416.917 6.99951 417.32 7.96101 417.722 8.92279C417.872 9.27908 418.021 9.63538 418.171 9.9914C418.48 10.7279 418.789 11.4648 419.098 12.2013C419.831 13.9481 420.565 15.694 421.3 17.4394C421.407 17.6928 421.407 17.6928 421.515 17.9513C422.709 20.786 423.915 23.6151 425.13 26.4407C425.754 27.892 426.371 29.345 426.966 30.8079C427.019 30.9376 427.072 31.0673 427.126 31.2008C427.37 31.7983 427.612 32.3961 427.85 32.9958C428.643 34.9736 428.643 34.9736 430.317 36.2025C430.887 36.3082 431.447 36.3933 432.022 36.4649C432.211 36.4885 432.4 36.5125 432.594 36.5373C435.228 36.8537 437.873 37.0566 440.516 37.2785C443.225 37.5062 445.932 37.7521 448.639 38.0035C452.369 38.3493 456.099 38.6869 459.83 39.0173C460.059 39.0377 460.289 39.0581 460.526 39.0793C461.181 39.1371 461.836 39.1952 462.49 39.253C462.681 39.2698 462.871 39.2866 463.068 39.3039C463.25 39.3202 463.432 39.3362 463.62 39.3527C463.797 39.3686 463.973 39.3843 464.156 39.4009C464.543 39.4331 464.93 39.4617 465.317 39.4873C465.519 39.5014 465.722 39.5154 465.93 39.5297C466.112 39.541 466.294 39.5526 466.481 39.5641C467.563 39.7145 468.495 40.1525 469.263 40.9274C469.864 41.7531 469.998 42.5089 470 43.5142C469.693 44.9606 468.921 45.8508 467.79 46.7586C467.662 46.8646 467.535 46.9703 467.404 47.0796C467.143 47.2963 466.881 47.5119 466.618 47.7267C466.169 48.0937 465.726 48.4668 465.283 48.8407C464.979 49.0976 464.674 49.3532 464.369 49.6087C463.7 50.1693 463.038 50.7365 462.375 51.3031C461.424 52.1154 460.461 52.9098 459.487 53.6948C458.732 54.3132 457.992 54.9484 457.25 55.5834C456.558 56.1756 455.857 56.7558 455.147 57.3268C454.468 57.8737 453.812 58.4359 453.166 59.0207C452.565 59.5643 451.956 60.0838 451.317 60.5833C450.478 61.2395 449.671 61.9259 448.867 62.6231C448.041 63.3398 447.211 64.0485 446.358 64.7341C445.365 65.5329 444.4 66.3611 443.438 67.1954C443.323 67.2954 443.207 67.3956 443.088 67.4986C442.977 67.5955 442.865 67.6924 442.75 67.7924C442.431 68.065 442.106 68.3293 441.78 68.5931C441.106 69.1647 440.762 69.6708 440.637 70.5544C440.594 71.537 440.798 72.3835 441.079 73.3194C441.326 74.2004 441.524 75.0898 441.723 75.9825C442.029 77.3394 442.349 78.6908 442.696 80.038C443.057 81.4478 443.382 82.8628 443.693 84.2844C444.307 87.0865 445 89.8692 445.694 92.6529C446.131 94.4112 446.555 96.1707 446.945 97.94C447.282 99.4652 447.653 100.982 448.027 102.498C448.096 102.78 448.165 103.061 448.234 103.342C448.547 104.631 448.547 104.631 448.872 105.916C449.158 107.099 449.118 108.233 448.483 109.286C447.839 110.124 447.111 110.605 446.07 110.824C444.785 110.965 443.951 110.745 442.864 110.073C442.732 109.995 442.6 109.917 442.464 109.838C442.062 109.599 441.664 109.354 441.267 109.107C441.151 109.034 441.035 108.962 440.915 108.887C440.358 108.539 439.805 108.184 439.254 107.827C438.562 107.377 437.863 106.94 437.161 106.506C437.035 106.428 436.909 106.351 436.78 106.271C436.506 106.101 436.233 105.932 435.959 105.762C435.458 105.452 434.959 105.141 434.459 104.831C432.213 103.432 429.96 102.045 427.7 100.668C426.305 99.8157 424.917 98.9519 423.534 98.0799C422.404 97.3681 421.264 96.6715 420.12 95.9804C419.153 95.3961 418.19 94.8058 417.229 94.2119C416.713 93.8936 416.196 93.5769 415.678 93.2608C415.134 92.9282 414.595 92.5907 414.063 92.2396C413.872 92.1179 413.681 91.9959 413.484 91.8706C413.331 91.769 413.178 91.6674 413.02 91.5625C411.995 91.1933 410.912 91.1432 409.882 91.5281C409.427 91.7718 409.002 92.0386 408.573 92.3238C408.41 92.426 408.248 92.5284 408.081 92.6336C407.732 92.8539 407.384 93.0761 407.037 93.2999C406.302 93.7721 405.559 94.2292 404.815 94.6874C404.033 95.1703 403.252 95.6574 402.472 96.1442C399.484 98.0083 396.488 99.8578 393.482 101.693C391.897 102.66 390.315 103.633 388.734 104.607C388.237 104.913 387.738 105.22 387.241 105.526C387.074 105.629 386.906 105.731 386.734 105.837C386.399 106.043 386.064 106.249 385.729 106.455C384.86 106.989 383.993 107.524 383.128 108.063C382.95 108.174 382.771 108.284 382.587 108.399C382.249 108.608 381.912 108.819 381.575 109.03C378.106 111.18 378.106 111.18 376.527 110.824C375.664 110.444 374.879 109.945 374.414 109.107C374.414 108.98 374.414 108.855 374.414 108.725C374.287 108.725 374.16 108.725 374.03 108.725C373.933 107.025 374.086 105.596 374.539 103.958C374.86 102.797 375.13 101.622 375.405 100.449C375.492 100.074 375.581 99.6981 375.67 99.3225C375.945 98.1507 376.212 96.9807 376.428 95.7967C376.527 95.3656 376.527 95.3656 376.711 94.8212C376.921 94.1901 377.072 93.5643 377.216 92.915C377.243 92.7922 377.271 92.6691 377.299 92.5425C377.415 92.0234 377.53 91.5041 377.645 90.9848C377.957 89.5721 378.28 88.1628 378.645 86.7625C378.703 86.5394 378.761 86.3164 378.821 86.0867C379.852 82.8137 382.304 80.511 385.208 78.8331C385.552 78.6313 385.896 78.4292 386.24 78.2271C386.502 78.0745 386.502 78.0745 386.769 77.9187C387.564 77.4531 388.355 76.98 389.146 76.5073C389.465 76.317 389.784 76.127 390.103 75.937C390.35 75.7897 390.35 75.7897 390.601 75.6397C400.729 69.603 400.729 69.603 401.211 69.3158C401.531 69.1248 401.851 68.9337 402.172 68.7429C402.981 68.2602 403.791 67.7781 404.602 67.2973C405.402 66.8223 406.201 66.3457 406.999 65.8672C407.302 65.6852 407.606 65.5037 407.911 65.3228C408.337 65.0687 408.761 64.8123 409.185 64.5554C409.311 64.4811 409.436 64.407 409.565 64.3305C410.296 63.8833 410.846 63.4601 411.298 62.7302C411.484 61.7111 411.475 60.7535 410.962 59.8437C409.402 58.5521 406.908 59.0753 405.006 59.2424C404.602 59.2796 404.198 59.3178 403.795 59.3561C403.501 59.3831 403.207 59.4101 402.913 59.4368C402.289 59.4938 401.666 59.5513 401.042 59.61C400.059 59.7019 399.075 59.792 398.091 59.8817C395.05 60.1601 392.011 60.4456 388.971 60.7425C388.144 60.8231 387.316 60.9027 386.489 60.9823C385.604 61.0676 384.72 61.1563 383.836 61.2458C381.598 61.4661 379.377 61.6283 377.127 61.6338C376.93 61.6343 376.732 61.6349 376.529 61.6354C375.128 61.6227 373.944 61.4666 372.685 60.8218C372.469 60.7171 372.254 60.6128 372.033 60.5051C370.578 59.7606 369.412 58.8396 368.239 57.7145C367.728 57.2321 367.206 56.7877 366.657 56.3488C365.845 55.6982 365.047 55.0332 364.256 54.3567C364.027 54.1612 363.798 53.9657 363.569 53.7702C363.399 53.6248 363.399 53.6248 363.226 53.477C361.949 52.3877 360.665 51.307 359.357 50.2535C358.122 49.254 356.922 48.2152 355.723 47.173C355.434 46.9233 355.141 46.6774 354.847 46.432C353.873 45.6093 353.197 45.0041 353.018 43.6915C352.944 42.4671 353.078 41.6876 353.859 40.7291C354.945 39.7998 355.895 39.5162 357.289 39.4163C357.452 39.402 357.615 39.3876 357.784 39.3728C358.316 39.3268 358.848 39.2855 359.381 39.2439C359.754 39.2125 360.127 39.1809 360.5 39.1489C361.439 39.0691 362.379 38.9925 363.319 38.9171C364.104 38.8535 364.888 38.7866 365.672 38.7191C365.954 38.6949 366.236 38.6706 366.518 38.6464C366.723 38.6291 366.723 38.6291 366.932 38.6112C367.343 38.5759 367.755 38.5412 368.167 38.5065C369.998 38.3529 371.828 38.1877 373.657 38.0153C375.581 37.8342 377.506 37.6574 379.431 37.4897C379.828 37.4547 380.225 37.4195 380.622 37.3842C382.061 37.257 383.499 37.1362 384.939 37.0241C385.727 36.9624 386.515 36.898 387.302 36.8335C387.688 36.8027 388.073 36.773 388.459 36.7443C389.001 36.7039 389.542 36.6595 390.084 36.6147C390.245 36.6036 390.405 36.5926 390.57 36.5813C391.932 36.4616 392.916 36.0485 393.975 35.1897C394.453 34.6019 394.696 34.0267 394.93 33.3193C395.027 33.0448 395.126 32.7703 395.225 32.4961C395.302 32.281 395.302 32.281 395.381 32.0618C395.66 31.3168 395.976 30.5882 396.293 29.8588C396.359 29.706 396.426 29.5532 396.494 29.3957C396.633 29.0755 396.773 28.7558 396.912 28.4358C397.296 27.5564 397.677 26.6758 398.059 25.795C398.177 25.5227 398.177 25.5227 398.297 25.2449C399.117 23.348 399.92 21.444 400.72 19.5389C401.007 18.858 401.293 18.1771 401.579 17.4962C401.686 17.2409 401.686 17.2409 401.795 16.9807C402.802 14.5885 403.817 12.2005 404.835 9.81298C404.985 9.46219 405.134 9.1114 405.284 8.76034C405.356 8.59183 405.428 8.42304 405.502 8.2493C405.932 7.23796 406.357 6.22442 406.777 5.20868C406.874 4.97711 406.97 4.74555 407.07 4.50683C407.239 4.09767 407.408 3.68768 407.575 3.27714C408.322 1.48713 409.212 0.0630549 411.346 0.0245068Z" fill="url(#paint2_linear_149_81)"/>
<path d="M469.375 133.02C469.54 133.013 469.705 133.007 469.875 133C470.75 133.169 471.535 133.617 472.056 134.352C472.239 134.711 472.392 135.072 472.539 135.447C472.597 135.583 472.654 135.718 472.713 135.858C472.832 136.141 472.949 136.425 473.065 136.71C473.227 137.108 473.394 137.504 473.564 137.899C473.898 138.675 474.225 139.455 474.552 140.235C474.673 140.524 474.795 140.812 474.916 141.101C475.167 141.698 475.419 142.296 475.669 142.893C476.264 144.309 476.86 145.725 477.457 147.14C477.544 147.345 477.544 147.345 477.632 147.555C478.601 149.853 479.581 152.147 480.567 154.438C481.074 155.615 481.574 156.793 482.058 157.979C482.101 158.085 482.144 158.19 482.188 158.298C482.386 158.782 482.582 159.267 482.776 159.753C483.419 161.357 483.419 161.357 484.779 162.353C485.242 162.439 485.696 162.508 486.163 162.566C486.316 162.585 486.47 162.605 486.628 162.625C488.766 162.881 490.914 163.046 493.06 163.226C495.26 163.41 497.458 163.61 499.656 163.814C502.684 164.094 505.713 164.368 508.742 164.636C508.929 164.652 509.115 164.669 509.308 164.686C509.839 164.733 510.371 164.78 510.902 164.827C511.057 164.84 511.212 164.854 511.371 164.868C511.519 164.881 511.667 164.894 511.819 164.908C511.963 164.921 512.107 164.933 512.255 164.947C512.569 164.973 512.883 164.996 513.198 165.017C513.362 165.028 513.526 165.04 513.695 165.051C513.843 165.06 513.99 165.07 514.143 165.079C515.021 165.201 515.778 165.556 516.402 166.184C516.889 166.854 516.999 167.467 517 168.282C516.751 169.455 516.124 170.176 515.205 170.912C515.102 170.998 514.999 171.084 514.892 171.173C514.68 171.348 514.467 171.523 514.254 171.697C513.89 171.995 513.53 172.297 513.17 172.601C512.923 172.809 512.676 173.016 512.428 173.223C511.885 173.678 511.347 174.138 510.809 174.597C510.037 175.256 509.255 175.9 508.464 176.536C507.851 177.038 507.25 177.553 506.648 178.068C506.085 178.548 505.517 179.018 504.94 179.481C504.389 179.925 503.856 180.38 503.331 180.855C502.843 181.295 502.349 181.717 501.83 182.122C501.149 182.654 500.494 183.21 499.841 183.775C499.17 184.357 498.496 184.931 497.804 185.487C496.997 186.135 496.214 186.806 495.433 187.483C495.339 187.564 495.245 187.645 495.149 187.729C495.058 187.807 494.967 187.886 494.874 187.967C494.615 188.188 494.351 188.402 494.086 188.616C493.539 189.079 493.26 189.49 493.158 190.206C493.124 191.003 493.289 191.689 493.517 192.448C493.718 193.163 493.878 193.884 494.04 194.607C494.289 195.708 494.549 196.803 494.83 197.896C495.123 199.039 495.387 200.186 495.639 201.339C496.138 203.611 496.701 205.867 497.264 208.124C497.619 209.55 497.964 210.976 498.28 212.411C498.554 213.647 498.855 214.877 499.159 216.107C499.215 216.335 499.271 216.563 499.326 216.791C499.581 217.836 499.581 217.836 499.845 218.878C500.077 219.837 500.045 220.756 499.529 221.61C499.006 222.29 498.415 222.68 497.569 222.857C496.526 222.972 495.849 222.793 494.967 222.248C494.859 222.185 494.752 222.122 494.642 222.058C494.316 221.864 493.992 221.665 493.67 221.465C493.575 221.406 493.481 221.348 493.384 221.287C492.932 221.004 492.483 220.717 492.036 220.427C491.474 220.063 490.906 219.708 490.336 219.356C490.234 219.293 490.132 219.23 490.026 219.165C489.804 219.028 489.582 218.89 489.36 218.753C488.953 218.502 488.548 218.25 488.142 217.998C486.318 216.864 484.489 215.74 482.654 214.622C481.521 213.932 480.394 213.231 479.272 212.524C478.353 211.947 477.428 211.382 476.499 210.822C475.714 210.348 474.932 209.87 474.152 209.388C473.733 209.13 473.313 208.873 472.892 208.617C472.45 208.347 472.013 208.074 471.581 207.789C471.426 207.69 471.271 207.591 471.111 207.49C470.986 207.407 470.862 207.325 470.734 207.24C469.902 206.94 469.022 206.9 468.186 207.212C467.817 207.41 467.472 207.626 467.123 207.857C466.991 207.94 466.859 208.023 466.724 208.108C466.44 208.287 466.158 208.467 465.876 208.649C465.28 209.031 464.676 209.402 464.072 209.774C463.437 210.165 462.803 210.56 462.17 210.955C459.744 212.466 457.311 213.966 454.87 215.454C453.583 216.238 452.299 217.027 451.015 217.816C450.611 218.065 450.206 218.313 449.802 218.562C449.667 218.645 449.531 218.728 449.391 218.814C449.119 218.981 448.847 219.148 448.574 219.315C447.869 219.748 447.165 220.182 446.463 220.618C446.318 220.708 446.173 220.798 446.024 220.891C445.749 221.061 445.476 221.232 445.202 221.403C442.385 223.146 442.385 223.146 441.103 222.857C440.403 222.549 439.765 222.145 439.387 221.465C439.387 221.363 439.387 221.261 439.387 221.155C439.284 221.155 439.181 221.155 439.075 221.155C438.997 219.777 439.121 218.618 439.489 217.29C439.75 216.349 439.969 215.397 440.192 214.445C440.263 214.141 440.335 213.836 440.407 213.532C440.63 212.582 440.847 211.633 441.023 210.673C441.103 210.323 441.103 210.323 441.252 209.882C441.423 209.37 441.546 208.863 441.662 208.337C441.685 208.237 441.707 208.137 441.73 208.034C441.824 207.614 441.917 207.193 442.011 206.771C442.264 205.626 442.527 204.483 442.823 203.348C442.87 203.167 442.917 202.986 442.966 202.8C443.803 200.146 445.794 198.279 448.152 196.919C448.431 196.755 448.711 196.591 448.99 196.427C449.202 196.304 449.202 196.304 449.419 196.177C450.065 195.8 450.707 195.416 451.349 195.033C451.608 194.879 451.867 194.725 452.126 194.571C452.327 194.451 452.327 194.451 452.531 194.329C460.754 189.435 460.754 189.435 461.146 189.202C461.406 189.047 461.666 188.892 461.926 188.737C462.583 188.346 463.241 187.955 463.899 187.565C464.549 187.18 465.197 186.794 465.845 186.406C466.092 186.258 466.339 186.111 466.586 185.964C466.932 185.758 467.276 185.551 467.62 185.342C467.722 185.282 467.824 185.222 467.929 185.16C468.522 184.797 468.969 184.454 469.336 183.862C469.487 183.036 469.48 182.26 469.063 181.522C467.797 180.475 465.771 180.899 464.227 181.034C463.899 181.065 463.571 181.096 463.244 181.127C463.005 181.148 462.766 181.17 462.527 181.192C462.021 181.238 461.515 181.285 461.009 181.332C460.21 181.407 459.411 181.48 458.613 181.553C456.144 181.778 453.675 182.01 451.207 182.251C450.536 182.316 449.864 182.381 449.192 182.445C448.474 182.514 447.756 182.586 447.038 182.659C445.22 182.837 443.417 182.969 441.59 182.973C441.43 182.974 441.27 182.974 441.105 182.975C439.967 182.964 439.006 182.838 437.983 182.315C437.809 182.23 437.634 182.146 437.454 182.058C436.273 181.455 435.326 180.708 434.373 179.796C433.959 179.404 433.535 179.044 433.089 178.688C432.43 178.161 431.782 177.622 431.14 177.073C430.954 176.914 430.768 176.756 430.582 176.597C430.444 176.48 430.444 176.48 430.303 176.36C429.266 175.477 428.224 174.6 427.162 173.746C426.159 172.936 425.184 172.093 424.211 171.248C423.976 171.046 423.738 170.847 423.5 170.648C422.709 169.981 422.16 169.49 422.014 168.426C421.954 167.433 422.064 166.801 422.698 166.024C423.579 165.27 424.35 165.04 425.483 164.959C425.615 164.948 425.748 164.936 425.884 164.924C426.316 164.887 426.749 164.853 427.182 164.819C427.484 164.794 427.787 164.768 428.09 164.742C428.852 164.678 429.616 164.616 430.379 164.554C431.016 164.503 431.653 164.449 432.289 164.394C432.518 164.374 432.748 164.355 432.976 164.335C433.142 164.321 433.142 164.321 433.312 164.306C433.646 164.278 433.981 164.25 434.315 164.222C435.802 164.097 437.288 163.963 438.773 163.823C440.335 163.676 441.898 163.533 443.461 163.397C443.784 163.369 444.106 163.34 444.428 163.312C445.596 163.208 446.764 163.11 447.934 163.02C448.573 162.97 449.213 162.917 449.852 162.865C450.165 162.84 450.478 162.816 450.791 162.793C451.231 162.76 451.671 162.724 452.111 162.688C452.241 162.679 452.371 162.67 452.506 162.661C453.611 162.563 454.41 162.229 455.27 161.532C455.658 161.056 455.856 160.589 456.046 160.016C456.125 159.793 456.205 159.571 456.285 159.348C456.348 159.174 456.348 159.174 456.412 158.996C456.638 158.392 456.895 157.801 457.152 157.21C457.206 157.086 457.26 156.962 457.316 156.834C457.429 156.575 457.542 156.316 457.655 156.056C457.967 155.343 458.277 154.629 458.586 153.915C458.682 153.694 458.682 153.694 458.78 153.469C459.446 151.931 460.098 150.387 460.747 148.842C460.98 148.29 461.212 147.738 461.444 147.186C461.532 146.979 461.532 146.979 461.62 146.768C462.437 144.829 463.262 142.892 464.088 140.956C464.21 140.672 464.331 140.388 464.453 140.103C464.511 139.966 464.569 139.829 464.63 139.689C464.979 138.869 465.324 138.047 465.665 137.223C465.743 137.035 465.822 136.848 465.903 136.654C466.041 136.322 466.178 135.99 466.313 135.657C466.92 134.206 467.642 133.051 469.375 133.02Z" fill="url(#paint3_linear_149_81)"/>
<path d="M362.821 246.991C362.691 242.305 362.567 237.607 362.746 232.922C362.926 227.981 362.976 223.041 362.833 218.101C362.703 213.042 362.567 207.984 362.337 202.931C362.12 198.171 362.182 193.417 362.108 188.657C362.071 186.339 361.866 184.028 361.841 181.716C361.804 179.466 361.767 177.223 361.55 174.973C361.128 170.412 361.345 165.77 361.345 161.196C361.358 155.908 361.649 150.613 361.717 145.325C361.723 144.989 361.587 144.691 361.525 144.374C362.052 142.591 361.73 140.615 360.31 139.192C359.33 138.21 357.867 137.65 356.423 137.65C355.09 137.65 353.776 138.129 352.895 139.192C351.612 140.714 350.236 142.168 348.934 143.684C347.365 145.524 345.902 147.45 344.383 149.327C343.261 150.719 342.139 152.086 340.942 153.41C340.372 154.044 339.795 154.696 339.206 155.33C338.754 154.696 338.332 154.044 337.979 153.348C337.607 152.341 337.272 151.334 336.875 150.334C336.262 148.774 335.617 147.469 334.644 146.133C333.788 144.971 333.131 143.566 331.996 142.647C331.283 142.069 330.595 141.677 329.857 141.385C329.833 140.677 329.826 139.962 329.808 139.247C329.727 137.029 329.473 134.866 329.169 132.679C328.952 130.982 328.742 129.292 328.475 127.614C328.208 126.017 328.029 124.37 327.471 122.842C326.187 119.306 324.352 115.832 321.866 113.004C320.353 111.283 318.463 109.854 316.553 108.642C315.214 107.797 313.906 106.921 312.48 106.219C308.748 104.367 304.513 104 300.384 104C300.174 104 299.963 104 299.746 104C295.989 104.025 292.344 104.398 288.655 105.262C284.693 106.194 281.29 108.456 278.506 111.389C277.13 112.855 275.778 114.39 274.774 116.161C273.615 118.218 272.542 120.269 271.668 122.481C270.837 124.588 270.279 126.775 269.926 129.019C269.529 131.56 269.138 134.102 268.934 136.656C268.742 139.08 268.686 141.485 268.636 143.902C267.254 145.362 265.983 146.966 264.755 148.501C263.515 150.048 262.195 151.545 260.819 152.975C260.8 152.938 260.769 152.906 260.738 152.869C259.665 151.695 258.494 150.657 257.31 149.6C254.228 146.854 251.321 143.927 248.395 141.019C246.423 139.061 243.162 139.049 241.197 141.019C240.236 141.982 239.746 143.274 239.727 144.579C239.455 145.194 239.3 145.866 239.3 146.58C239.312 149.339 239.374 152.099 239.387 154.864C239.387 157.3 239.275 159.717 239.219 162.141C239.095 166.926 238.891 171.692 238.835 176.477C238.723 185.681 239.232 194.865 239.232 204.069C239.232 208.885 239.294 213.719 239.269 218.548C239.244 223.19 239.312 227.838 239.182 232.474C239.052 237.16 238.853 241.833 238.81 246.518C238.76 251.229 238.723 255.939 238.581 260.644C238.488 263.713 238.432 266.765 238.37 269.828C238.066 270.692 237.979 271.643 238.004 272.581C238.085 275.539 240.391 278 243.385 278C244.526 278 245.524 277.559 246.392 276.944C248.946 277.105 251.507 277.254 254.067 277.248C256.665 277.236 259.25 277.08 261.848 276.968C266.838 276.776 271.81 276.881 276.801 276.931C286.938 277.018 297.068 276.819 307.216 276.801C315.295 276.776 323.366 276.788 331.445 276.62C335.115 276.546 338.791 276.378 342.474 276.353C346.46 276.341 350.434 276.453 354.408 276.521C355.251 276.533 356.02 276.285 356.733 275.924C358.803 276.241 361.11 275.34 362.108 273.445C363.205 271.363 362.821 268.772 362.821 266.497C362.833 264.658 362.895 262.831 362.945 260.985C363.075 256.325 362.951 251.651 362.821 246.991ZM279.244 135.096C279.715 131.66 280.223 128.248 281.469 124.998C282.17 123.469 282.957 121.959 283.925 120.58C285.078 119.175 286.342 117.901 287.737 116.733C287.991 116.565 288.252 116.416 288.525 116.286C290.161 115.677 291.829 115.298 293.546 115.024C295.481 114.819 297.44 114.807 299.374 114.844C301.252 114.875 303.112 114.925 304.966 115.111C305.66 115.242 306.324 115.403 306.987 115.633C307.855 116.056 308.692 116.534 309.51 117.056C310.49 117.69 311.5 118.268 312.455 118.933C313.267 119.629 314.017 120.393 314.718 121.207C315.747 122.686 316.64 124.321 317.384 125.974C318.022 127.739 318.301 129.64 318.667 131.473C318.99 133.182 319.275 134.922 319.523 136.644C319.876 139.738 319.839 142.87 320.012 145.978C318.332 147.829 316.727 149.756 315.121 151.664C314.631 152.248 314.141 152.844 313.664 153.447C312.784 152.484 311.823 151.595 310.998 150.589C310.484 149.924 309.963 149.265 309.436 148.6C308.773 147.668 308.171 146.692 307.564 145.723C307.26 145.238 307.018 144.716 306.733 144.231C306.237 143.374 305.611 142.609 304.991 141.845C303.844 140.416 301.872 139.508 300.05 139.608C298.115 139.707 296.448 140.503 295.158 141.944C294.309 142.889 293.59 143.952 292.84 144.977C291.773 146.288 290.632 147.55 289.504 148.811C288.574 149.849 287.681 150.936 286.752 151.993C286.634 151.85 286.522 151.701 286.404 151.552C284.712 149.358 282.988 147.183 281.159 145.095C280.422 144.269 279.796 143.374 279.07 142.553C279.014 142.491 278.946 142.46 278.89 142.404C278.872 141.646 278.828 140.888 278.847 140.124C278.878 138.433 279.039 136.768 279.244 135.096ZM340.13 266.205C335.456 266.361 330.781 266.665 326.094 266.845C321.166 267.026 316.249 267.05 311.321 267.1C306.392 267.137 301.476 267.355 296.547 267.305C288.029 267.231 279.529 267.268 271.023 267.137C267.012 267.063 263.001 267.342 259.002 267.523C255.475 267.684 251.941 267.43 248.413 267.156C248.382 263.949 248.351 260.743 248.469 257.536C248.649 252.801 248.599 248.066 248.686 243.343C248.773 238.682 249.039 234.034 249.046 229.373C249.046 224.775 249.095 220.157 249.108 215.546C249.12 210.718 249.095 205.883 249.145 201.055C249.207 196.419 249.231 191.795 249.083 187.153C248.94 182.592 249.021 178 248.959 173.426C248.897 168.585 249.083 163.75 249.163 158.909C249.182 157.965 249.194 157.02 249.213 156.069C249.603 156.486 250 156.89 250.403 157.294C251.55 158.431 252.647 159.593 253.701 160.817C254.762 162.054 255.803 163.129 257.192 164.036C257.372 164.161 257.564 164.254 257.762 164.341C258.209 164.633 258.692 164.825 259.213 164.919C260.422 165.173 261.036 165.074 262.232 164.894C263.503 164.701 264.706 163.62 265.617 162.775C267.055 161.42 268.308 159.804 269.641 158.344C271.166 156.654 272.499 154.752 273.968 152.993C274.712 153.95 275.468 154.907 276.212 155.858C277.57 157.729 278.804 159.692 280.155 161.563C280.98 162.688 281.91 163.912 283.212 164.496C284.092 165.012 285.034 165.273 286.051 165.273C286.634 165.36 287.21 165.298 287.781 165.105C289.231 164.776 290.254 163.893 291.358 162.974C292.691 161.867 293.769 160.345 294.811 158.953C296.373 157.02 298.153 155.274 299.703 153.335C300.149 154.006 300.608 154.659 301.091 155.311C301.054 155.262 301.017 155.212 300.98 155.168C301.079 155.305 301.178 155.436 301.277 155.566C301.259 155.541 301.24 155.51 301.215 155.485C301.414 155.746 301.612 156.007 301.823 156.268C301.637 156.032 301.457 155.802 301.277 155.566C302.189 156.803 303.013 158.089 304.042 159.245C304.842 160.159 305.629 161.078 306.392 162.017C306.813 162.632 307.154 163.284 307.595 163.881C308.345 164.912 309.176 166.075 310.397 166.597C311.277 167.118 312.232 167.373 313.261 167.373C313.831 167.435 314.383 167.373 314.941 167.193C315.592 167.038 316.243 166.758 316.801 166.385C318.791 165.049 319.895 163.023 321.234 161.128C322.641 159.338 324.079 157.573 325.536 155.821C325.896 155.38 326.268 154.957 326.646 154.535C327.216 156.349 327.731 158.17 328.686 159.842C329.157 160.681 329.758 161.439 330.329 162.215C331.116 163.278 331.91 164.272 332.852 165.18C333.131 165.447 333.397 165.739 333.695 165.981C334.625 166.708 335.505 167.479 336.702 167.759C338.016 168.051 339.25 168.113 340.558 167.684C342.56 167.044 344.203 165.664 345.58 164.111C347.626 161.824 349.578 159.475 351.475 157.082C351.475 158.592 351.488 160.109 351.451 161.619C351.389 163.993 351.426 166.379 351.413 168.747C351.401 171.009 351.413 173.264 351.568 175.526C351.897 180.144 352.064 184.78 352.257 189.403C352.449 194.076 352.356 198.749 352.548 203.422C352.753 208.518 352.895 213.62 352.994 218.716C353.094 223.706 352.97 228.683 352.883 233.667C352.808 238.34 352.753 243.001 352.728 247.662C352.715 252.26 352.802 256.878 352.548 261.476C352.474 262.955 352.405 264.44 352.368 265.926C348.314 265.982 344.216 266.062 340.13 266.205ZM346.466 185.842C346.2 189.44 345.945 193.032 345.852 196.655C345.735 201.049 345.536 205.448 345.499 209.842C345.462 214.335 345.437 218.828 345.425 223.314C345.412 227.758 345.387 232.188 345.387 236.632C345.387 238.918 345.363 241.205 345.338 243.492C345.338 245.139 345.313 246.811 345.425 248.445C346.082 250.949 344.414 253.615 341.971 254.292C340.701 254.641 339.324 254.46 338.202 253.808C337.006 253.106 336.46 252.111 335.958 250.875C335.604 250.017 335.629 248.905 335.629 247.96C335.629 247.245 335.654 246.531 335.666 245.816C335.691 244.269 335.654 242.715 335.654 241.168C335.666 232.232 335.604 223.289 335.542 214.353C335.48 204.852 335.387 195.331 335.952 185.842C336.119 182.971 338.208 180.572 341.203 180.572C343.918 180.572 346.671 182.971 346.466 185.842Z" fill="url(#paint4_linear_149_81)"/>
<defs>
<linearGradient id="paint0_linear_149_81" x1="156" y1="22" x2="156" y2="223" gradientUnits="userSpaceOnUse">
<stop stop-color="#EEBEF2"/>
<stop offset="1" stop-color="#2144FC"/>
</linearGradient>
<linearGradient id="paint1_linear_149_81" x1="93" y1="121.5" x2="218" y2="121.5" gradientUnits="userSpaceOnUse">
<stop stop-color="#F9C5F2"/>
<stop offset="1" stop-color="#0E39FE"/>
</linearGradient>
<linearGradient id="paint2_linear_149_81" x1="353" y1="55.5" x2="470" y2="55.5" gradientUnits="userSpaceOnUse">
<stop stop-color="#F9C5F2"/>
<stop offset="1" stop-color="#0E39FE"/>
</linearGradient>
<linearGradient id="paint3_linear_149_81" x1="422" y1="178" x2="517" y2="178" gradientUnits="userSpaceOnUse">
<stop stop-color="#F9C5F2"/>
<stop offset="1" stop-color="#0E39FE"/>
</linearGradient>
<linearGradient id="paint4_linear_149_81" x1="238" y1="191" x2="363" y2="191" gradientUnits="userSpaceOnUse">
<stop stop-color="#F9C5F2"/>
<stop offset="1" stop-color="#0E39FE"/>
</linearGradient>
</defs>
</svg>
