<svg width="241" height="207" viewBox="0 0 241 207" fill="none" xmlns="http://www.w3.org/2000/svg">
<rect x="2.5" y="2.5" width="196" height="164" rx="13.5" stroke="url(#paint0_linear_149_73)" stroke-width="5"/>
<path d="M101 65.3333V126M101 65.3333H80C76.9058 65.3333 73.9383 64.1042 71.7504 61.9163C69.5625 59.7283 68.3333 56.7609 68.3333 53.6667C68.3333 50.5725 69.5625 47.605 71.7504 45.4171C73.9383 43.2292 76.9058 42 80 42C96.3333 42 101 65.3333 101 65.3333ZM101 65.3333H122C125.094 65.3333 128.062 64.1042 130.25 61.9163C132.437 59.7283 133.667 56.7609 133.667 53.6667C133.667 50.5725 132.437 47.605 130.25 45.4171C128.062 43.2292 125.094 42 122 42C105.667 42 101 65.3333 101 65.3333ZM59 93.3333H143M73.9333 126H128.067C133.294 126 135.908 126 137.904 124.983C139.66 124.088 141.088 122.66 141.983 120.904C143 118.908 143 116.294 143 111.067V80.2667C143 75.0395 143 72.4259 141.983 70.4294C141.088 68.6732 139.66 67.2454 137.904 66.3506C135.908 65.3333 133.294 65.3333 128.067 65.3333H73.9333C68.7062 65.3333 66.0926 65.3333 64.0961 66.3506C62.3399 67.2454 60.9121 68.6732 60.0173 70.4294C59 72.4259 59 75.0395 59 80.2667V111.067C59 116.294 59 118.908 60.0173 120.904C60.9121 122.66 62.3399 124.088 64.0961 124.983C66.0926 126 68.7062 126 73.9333 126Z" stroke="url(#paint1_linear_149_73)" stroke-width="8" stroke-linecap="round" stroke-linejoin="round"/>
<path d="M182.75 148.75H182.793M208.25 174.25H208.293M212.5 144.5L178.5 178.5M238 161.5C238 184.972 218.972 204 195.5 204C172.028 204 153 184.972 153 161.5C153 138.028 172.028 119 195.5 119C218.972 119 238 138.028 238 161.5ZM184.875 148.75C184.875 149.924 183.924 150.875 182.75 150.875C181.576 150.875 180.625 149.924 180.625 148.75C180.625 147.576 181.576 146.625 182.75 146.625C183.924 146.625 184.875 147.576 184.875 148.75ZM210.375 174.25C210.375 175.423 209.423 176.375 208.25 176.375C207.077 176.375 206.125 175.423 206.125 174.25C206.125 173.077 207.077 172.125 208.25 172.125C209.423 172.125 210.375 173.077 210.375 174.25Z" stroke="url(#paint2_linear_149_73)" stroke-width="5" stroke-linecap="round" stroke-linejoin="round"/>
<defs>
<linearGradient id="paint0_linear_149_73" x1="100.5" y1="0" x2="100.5" y2="169" gradientUnits="userSpaceOnUse">
<stop stop-color="#EEBEF2"/>
<stop offset="1" stop-color="#2144FC"/>
</linearGradient>
<linearGradient id="paint1_linear_149_73" x1="101" y1="42" x2="101" y2="126" gradientUnits="userSpaceOnUse">
<stop stop-color="#EEBEF2"/>
<stop offset="1" stop-color="#2144FC"/>
</linearGradient>
<linearGradient id="paint2_linear_149_73" x1="195.5" y1="119" x2="195.5" y2="204" gradientUnits="userSpaceOnUse">
<stop stop-color="#EEBEF2"/>
<stop offset="1" stop-color="#2144FC"/>
</linearGradient>
</defs>
</svg>
