<svg width="173" height="172" viewBox="0 0 173 172" fill="none" xmlns="http://www.w3.org/2000/svg">
<g opacity="0.21">
<path d="M56.8443 37.8265C56.6753 33.5635 56.5912 31.4318 57.3987 30.3712C58.0999 29.4499 59.1913 28.9207 60.3489 28.9406C61.6817 28.9634 63.3034 30.3495 66.546 33.1222L92.3745 55.2062C93.3335 56.0257 93.8127 56.4355 94.3576 56.6631C94.8392 56.8648 95.3562 56.9622 95.874 56.9494C96.4597 56.9347 97.0437 56.7254 98.2116 56.3066L129.675 45.027C133.626 43.6108 135.6 42.9029 136.858 43.3686C137.951 43.7732 138.802 44.669 139.158 45.7898C139.569 47.0798 138.792 49.0486 137.238 52.9869L124.86 84.3556C124.401 85.5193 124.171 86.1018 124.133 86.6929C124.1 87.2167 124.176 87.7431 124.356 88.238C124.559 88.7977 124.945 89.2985 125.717 90.3003L146.508 117.285C149.118 120.673 150.423 122.367 150.393 123.715C150.367 124.887 149.801 125.969 148.864 126.642C147.785 127.416 145.683 127.247 141.48 126.909L108.001 124.211C106.758 124.111 106.138 124.062 105.57 124.199C105.067 124.321 104.597 124.549 104.19 124.868C103.73 125.229 103.385 125.747 102.694 126.785L84.0798 154.742C81.7428 158.252 80.5741 160.007 79.2978 160.375C78.189 160.694 76.9885 160.468 76.0524 159.762C74.9753 158.951 74.4536 156.878 73.4098 152.73L65.0969 119.695C64.7881 118.468 64.634 117.856 64.3205 117.349C64.0433 116.901 63.677 116.516 63.2453 116.217C62.7578 115.881 62.1584 115.7 60.9599 115.34L28.6648 105.634C24.6103 104.415 22.5831 103.806 21.8242 102.685C21.1649 101.711 20.9886 100.488 21.3476 99.3796C21.761 98.1035 23.54 96.9912 27.0982 94.7666L55.4392 77.0469C56.4911 76.3893 57.017 76.0605 57.391 75.6097C57.7221 75.211 57.9655 74.7448 58.1058 74.2416C58.2642 73.673 58.2392 73.0428 58.1894 71.7826L56.8443 37.8265Z" stroke="url(#paint0_linear_149_8)" stroke-width="9" stroke-linecap="round" stroke-linejoin="round"/>
</g>
<defs>
<linearGradient id="paint0_linear_149_8" x1="27.6955" y1="114.884" x2="145.101" y2="57.9542" gradientUnits="userSpaceOnUse">
<stop stop-color="#F9C5F2"/>
<stop offset="1" stop-color="#0E39FE"/>
</linearGradient>
</defs>
</svg>
