<svg width="698" height="437" viewBox="0 0 698 437" fill="none" xmlns="http://www.w3.org/2000/svg">
<g opacity="0.21">
<path d="M640.55 302.827C640.719 298.563 640.803 296.432 639.996 295.371C639.295 294.45 638.203 293.921 637.046 293.941C635.713 293.963 634.091 295.35 630.849 298.122L605.02 320.206C604.061 321.026 603.582 321.436 603.037 321.663C602.555 321.865 602.038 321.962 601.521 321.949C600.935 321.935 600.351 321.725 599.183 321.307L567.719 310.027C563.769 308.611 561.794 307.903 560.536 308.369C559.444 308.773 558.593 309.669 558.236 310.79C557.826 312.08 558.603 314.049 560.156 317.987L572.535 349.356C572.994 350.519 573.224 351.102 573.261 351.693C573.294 352.217 573.219 352.743 573.038 353.238C572.835 353.798 572.45 354.298 571.678 355.3L550.887 382.285C548.276 385.673 546.971 387.367 547.002 388.715C547.028 389.887 547.593 390.969 548.531 391.642C549.61 392.416 551.711 392.247 555.915 391.909L589.394 389.211C590.636 389.111 591.257 389.062 591.825 389.199C592.327 389.321 592.797 389.549 593.205 389.868C593.664 390.229 594.01 390.747 594.701 391.785L613.315 419.742C615.652 423.252 616.82 425.007 618.097 425.375C619.206 425.694 620.406 425.468 621.342 424.762C622.419 423.951 622.941 421.878 623.985 417.73L632.298 384.695C632.606 383.468 632.761 382.856 633.074 382.349C633.351 381.901 633.717 381.516 634.149 381.217C634.637 380.881 635.236 380.7 636.435 380.34L668.73 370.634C672.784 369.415 674.811 368.806 675.57 367.685C676.23 366.711 676.406 365.488 676.047 364.38C675.634 363.103 673.854 361.991 670.296 359.767L641.955 342.047C640.903 341.389 640.378 341.06 640.003 340.61C639.672 340.211 639.429 339.745 639.289 339.242C639.13 338.673 639.155 338.043 639.205 336.783L640.55 302.827Z" stroke="url(#paint0_linear_149_3)" stroke-width="9" stroke-linecap="round" stroke-linejoin="round"/>
<path d="M577.737 272.191C578.422 273.168 579.467 273.83 580.644 274.027C581.82 274.225 583.034 273.943 584.013 273.246C584.992 272.548 585.655 271.494 585.852 270.317C586.05 269.14 585.766 267.937 585.067 266.97C578.701 258.16 571.832 249.57 564.653 241.355C431.477 98.7172 217.647 28.1096 30.0676 84.2561C19.8442 87.7312 9.77077 91.7306 -2.09769e-05 96.2459C9.83272 91.8672 19.9531 88.0112 30.2094 84.6831C218.056 31.1316 429.786 105.334 558.176 246.936C565.08 255.062 571.663 263.533 577.737 272.191Z" fill="url(#paint1_linear_149_3)"/>
</g>
<defs>
<linearGradient id="paint0_linear_149_3" x1="669.699" y1="379.884" x2="552.294" y2="322.954" gradientUnits="userSpaceOnUse">
<stop stop-color="#F9C5F2"/>
<stop offset="1" stop-color="#0E39FE"/>
</linearGradient>
<linearGradient id="paint1_linear_149_3" x1="592.938" y1="233.677" x2="15.4628" y2="48.1229" gradientUnits="userSpaceOnUse">
<stop stop-color="#827EF8"/>
<stop offset="0.480769" stop-color="#F6C3F2"/>
<stop offset="1" stop-color="#0E39FE"/>
</linearGradient>
</defs>
</svg>
