<svg width="290" height="76" viewBox="0 0 290 76" fill="none" xmlns="http://www.w3.org/2000/svg">
<path d="M269.693 34.2717L271.192 30.6301C277.619 34.1003 285.587 34.9143 285.587 30.2873C285.63 25.9174 269.864 27.7168 270.293 19.1912C270.764 12.0366 281.517 10.6656 289.572 16.1923L287.815 19.2341C282.674 15.164 274.962 15.6353 274.748 19.4483C274.534 23.9895 290 22.5757 290 30.0731C290 36.7565 282.288 40.4409 269.693 34.2717Z" fill="url(#paint0_linear_149_92)"/>
<path d="M254.192 36.3709V13.7931H258.305V16.535C259.462 14.3929 262.675 13.536 265.717 13.7931V18.1202C262.032 17.5632 258.476 19.6196 258.476 23.1755V36.3709H254.192Z" fill="url(#paint1_linear_149_92)"/>
<path d="M194.416 36.5423C190.003 36.5423 183.277 35.4284 183.277 27.7168V18.0773H181.22V13.7931H183.277V9.08046H187.561V13.7931H193.045V18.0773H187.561V26.7314C187.561 31.8725 191.374 32.2581 194.416 32.2581V36.5423Z" fill="url(#paint2_linear_149_92)"/>
<path d="M156.574 34.2717L158.074 30.6301C164.5 34.1003 172.469 34.9143 172.469 30.2873C172.512 25.9174 156.746 27.7168 157.174 19.1912C157.645 12.0366 168.399 10.6656 176.453 16.1923L174.697 19.2341C169.556 15.164 161.844 15.6353 161.63 19.4483C161.416 23.9895 176.882 22.5757 176.882 30.0731C176.882 36.7565 169.17 40.4409 156.574 34.2717Z" fill="url(#paint3_linear_149_92)"/>
<path d="M118.342 45.1964V41.0836C123.098 42.0689 126.011 36.7565 124.854 34.3573L116.329 13.7931H120.87L127.896 30.5444L134.922 13.7931H139.506L130.124 36.3709C127.682 41.5977 124.854 46.1818 118.342 45.1964Z" fill="url(#paint4_linear_149_92)"/>
<path d="M101.804 37.3991C98.5909 37.3991 95.8061 35.6854 94.3067 33.2006V44.5538H90.0225V25.6604C90.0225 19.1484 95.3349 13.8788 101.804 13.8788C108.273 13.8788 113.543 19.1484 113.543 25.6604C113.543 32.1296 108.273 37.3991 101.804 37.3991ZM101.804 18.163C97.6912 18.163 94.3067 21.5047 94.3067 25.6604C94.3067 29.7732 97.6912 33.1149 101.804 33.1149C105.917 33.1149 109.259 29.7732 109.259 25.6604C109.259 21.5047 105.917 18.163 101.804 18.163Z" fill="url(#paint5_linear_149_92)"/>
<path d="M71.7242 37.3991C68.511 37.3991 65.7262 35.6854 64.2268 33.2006V44.5538H59.9426V25.6604C59.9426 19.1484 65.255 13.8788 71.7242 13.8788C78.1933 13.8788 83.4629 19.1484 83.4629 25.6604C83.4629 32.1296 78.1933 37.3991 71.7242 37.3991ZM71.7242 18.163C67.6113 18.163 64.2268 21.5047 64.2268 25.6604C64.2268 29.7732 67.6113 33.1149 71.7242 33.1149C75.837 33.1149 79.1787 29.7732 79.1787 25.6604C79.1787 21.5047 75.837 18.163 71.7242 18.163Z" fill="url(#paint6_linear_149_92)"/>
<path d="M40.6937 36.4566C34.2245 36.4566 28.9978 31.2299 28.9978 24.8035C28.9978 18.3772 34.2245 13.1505 40.6937 13.1505C47.0772 13.1505 52.3039 18.3772 52.3039 24.8035V36.4995H48.0197V32.3866C46.5631 34.7858 43.8212 36.4566 40.6937 36.4566ZM40.6937 32.1724C44.7209 32.1724 48.0197 28.8735 48.0197 24.8035C48.0197 20.7335 44.7209 17.4347 40.6937 17.4347C36.5809 17.4347 33.282 20.7335 33.282 24.8035C33.282 28.8735 36.5809 32.1724 40.6937 32.1724Z" fill="url(#paint7_linear_149_92)"/>
<path d="M10.9248 13.4932C17.2226 13.4932 21.8067 17.8203 21.8067 24.5893V36.3709H17.5224V24.5893C17.5224 20.2623 14.9091 17.7774 10.9248 17.7774C6.89759 17.7774 4.28422 20.348 4.28422 24.5893V36.3709H0V6.3814H4.28422V16.7492C5.61232 14.5643 7.9258 13.4932 10.9248 13.4932Z" fill="url(#paint8_linear_149_92)"/>
<path d="M222.667 0.337023C223.56 -0.112396 224.611 -0.112266 225.504 0.337023C226.274 0.72447 226.682 1.40692 226.89 1.7861C227.125 2.21276 227.368 2.77056 227.621 3.34588L231.87 13.0157L242.236 14.1257C242.852 14.1917 243.453 14.254 243.929 14.3493C244.331 14.4296 245.033 14.5972 245.614 15.1298L245.728 15.2414C246.417 15.955 246.731 16.9465 246.59 17.9203C246.467 18.766 245.959 19.3657 245.664 19.6893C245.417 19.9587 245.103 20.2556 244.767 20.5649L236.663 27.9732L238.833 38.35C238.962 38.9664 239.088 39.562 239.146 40.0461C239.194 40.4523 239.253 41.1669 238.938 41.8796L238.87 42.0221C238.416 42.9013 237.577 43.5265 236.59 43.6961C235.734 43.8429 234.999 43.5296 234.607 43.3457C234.167 43.1393 233.646 42.8318 233.109 42.5176L224.086 37.2382L215.064 42.5176C214.527 42.8318 214.005 43.1393 213.565 43.3457C213.173 43.5296 212.439 43.8428 211.583 43.6961C210.597 43.5265 209.756 42.9013 209.302 42.0212C208.912 41.2631 208.975 40.4791 209.026 40.0461C209.084 39.5621 209.21 38.9664 209.339 38.35L211.508 27.9732L203.747 20.8778C203.286 20.4565 202.837 20.0484 202.509 19.6893C202.213 19.3657 201.705 18.7659 201.582 17.9203C201.441 16.9464 201.755 15.955 202.444 15.2414L202.558 15.1298C203.139 14.5971 203.841 14.4296 204.243 14.3493C204.719 14.254 205.32 14.1917 205.937 14.1257L216.302 13.0157L220.551 3.34588C220.804 2.77056 221.047 2.21276 221.282 1.7861C221.49 1.40693 221.898 0.724477 222.667 0.337023ZM219.947 14.704C219.843 14.9417 219.631 15.4795 219.249 15.9104C218.954 16.2427 218.591 16.5103 218.184 16.6944C217.786 16.8741 217.36 16.9408 217.066 16.9742L216.821 16.9995L206.648 18.0886L214.268 25.0537C214.447 25.2178 214.845 25.5544 215.13 26.009L215.185 26.1019C215.376 26.4386 215.505 26.8075 215.565 27.1888L215.586 27.3531C215.645 27.9238 215.506 28.4808 215.452 28.7377L213.332 38.8769L222.144 33.7212C222.365 33.5915 222.854 33.2789 223.421 33.1564L223.423 33.1559C223.806 33.0738 224.199 33.0634 224.585 33.125L224.749 33.1559L224.751 33.1564C225.318 33.2789 225.806 33.5914 226.028 33.7212L234.84 38.8769L232.72 28.7381L232.668 28.4932C232.609 28.2015 232.541 27.7819 232.586 27.354L232.607 27.1892C232.667 26.8072 232.795 26.439 232.987 26.1027L233.042 26.0099C233.326 25.5545 233.726 25.2172 233.904 25.0542L241.524 18.0886L231.351 16.9995C231.099 16.9725 230.519 16.9344 229.988 16.6948C229.582 16.5113 229.219 16.2436 228.924 15.9108C228.541 15.4798 228.329 14.9413 228.225 14.7045L224.086 5.28437L219.947 14.704Z" fill="url(#paint9_linear_149_92)"/>
<path d="M35.7589 41.7262C38.221 44.0219 40.8241 46.1947 43.5238 48.2268C93.838 83.2483 164.397 83.2576 218.37 53.5764C221.333 51.8161 224.244 49.9109 227.027 47.8882C227.602 47.471 227.984 46.8442 228.085 46.1414C228.188 45.4388 228.001 44.7173 227.57 44.1406C227.14 43.564 226.501 43.1804 225.799 43.0785C225.096 42.9764 224.386 43.1647 223.823 43.5971C221.233 45.5871 218.507 47.4766 215.715 49.2361C164.643 79.2006 94.6208 81.611 43.682 48.0106C40.9368 46.0559 38.281 43.9558 35.7589 41.7262Z" fill="url(#paint10_linear_149_92)"/>
<defs>
<linearGradient id="paint0_linear_149_92" x1="0" y1="37.6034" x2="290" y2="37.6034" gradientUnits="userSpaceOnUse">
<stop stop-color="#F9C5F2"/>
<stop offset="1" stop-color="#0E39FE"/>
</linearGradient>
<linearGradient id="paint1_linear_149_92" x1="0" y1="37.6034" x2="290" y2="37.6034" gradientUnits="userSpaceOnUse">
<stop stop-color="#F9C5F2"/>
<stop offset="1" stop-color="#0E39FE"/>
</linearGradient>
<linearGradient id="paint2_linear_149_92" x1="0" y1="37.6034" x2="290" y2="37.6034" gradientUnits="userSpaceOnUse">
<stop stop-color="#F9C5F2"/>
<stop offset="1" stop-color="#0E39FE"/>
</linearGradient>
<linearGradient id="paint3_linear_149_92" x1="0" y1="37.6034" x2="290" y2="37.6034" gradientUnits="userSpaceOnUse">
<stop stop-color="#F9C5F2"/>
<stop offset="1" stop-color="#0E39FE"/>
</linearGradient>
<linearGradient id="paint4_linear_149_92" x1="0" y1="37.6034" x2="290" y2="37.6034" gradientUnits="userSpaceOnUse">
<stop stop-color="#F9C5F2"/>
<stop offset="1" stop-color="#0E39FE"/>
</linearGradient>
<linearGradient id="paint5_linear_149_92" x1="0" y1="37.6034" x2="290" y2="37.6034" gradientUnits="userSpaceOnUse">
<stop stop-color="#F9C5F2"/>
<stop offset="1" stop-color="#0E39FE"/>
</linearGradient>
<linearGradient id="paint6_linear_149_92" x1="0" y1="37.6034" x2="290" y2="37.6034" gradientUnits="userSpaceOnUse">
<stop stop-color="#F9C5F2"/>
<stop offset="1" stop-color="#0E39FE"/>
</linearGradient>
<linearGradient id="paint7_linear_149_92" x1="0" y1="37.6034" x2="290" y2="37.6034" gradientUnits="userSpaceOnUse">
<stop stop-color="#F9C5F2"/>
<stop offset="1" stop-color="#0E39FE"/>
</linearGradient>
<linearGradient id="paint8_linear_149_92" x1="0" y1="37.6034" x2="290" y2="37.6034" gradientUnits="userSpaceOnUse">
<stop stop-color="#F9C5F2"/>
<stop offset="1" stop-color="#0E39FE"/>
</linearGradient>
<linearGradient id="paint9_linear_149_92" x1="0" y1="37.6034" x2="290" y2="37.6034" gradientUnits="userSpaceOnUse">
<stop stop-color="#F9C5F2"/>
<stop offset="1" stop-color="#0E39FE"/>
</linearGradient>
<linearGradient id="paint10_linear_149_92" x1="225.425" y1="57.5438" x2="35.7588" y2="57.5438" gradientUnits="userSpaceOnUse">
<stop stop-color="#827EF8"/>
<stop offset="0.480769" stop-color="#F6C3F2"/>
<stop offset="1" stop-color="#0E39FE"/>
</linearGradient>
</defs>
</svg>
