<svg width="224" height="208" viewBox="0 0 224 208" fill="none" xmlns="http://www.w3.org/2000/svg">
<rect x="2.5" y="2.5" width="196" height="164" rx="13.5" stroke="url(#paint0_linear_149_77)" stroke-width="5"/>
<path d="M184.664 202.993C185.564 203.52 186.014 203.784 186.648 203.92C187.141 204.027 187.859 204.027 188.352 203.92C188.986 203.784 189.436 203.52 190.336 202.993C198.249 198.353 220 183.779 220 163.741V141.697C220 139.419 220 138.28 219.564 137.412C219.177 136.642 218.573 136.028 217.812 135.63C216.953 135.182 215.801 135.168 213.495 135.141C201.423 134.997 194.462 133.996 187.5 127C180.538 133.996 173.577 134.997 161.505 135.141C159.2 135.168 158.047 135.182 157.188 135.63C156.427 136.028 155.823 136.642 155.436 137.412C155 138.28 155 139.419 155 141.697V163.741C155 183.779 176.75 198.353 184.664 202.993Z" stroke="url(#paint1_linear_149_77)" stroke-width="7" stroke-linecap="round" stroke-linejoin="round"/>
<path d="M83.8911 55.9055H75.3366C82.4653 49.7612 91.0198 46.4527 100.525 46.4527C101.95 46.4527 103.376 46.4527 104.802 46.9254C107.178 47.398 109.554 45.5075 110.03 42.6716C110.505 40.3085 108.604 37.9453 105.752 37.4726C103.851 37 102.426 37 100.525 37C89.1188 37 78.1881 41.2537 69.6337 48.3433V41.7264C69.6337 38.8905 67.7327 37 64.8812 37C62.0297 37 60.1287 38.8905 60.1287 41.7264V60.6318C60.1287 63.4677 62.0297 65.3582 64.8812 65.3582H83.8911C86.7426 65.3582 88.6436 63.4677 88.6436 60.6318C88.6436 57.796 86.7426 55.9055 83.8911 55.9055ZM76.7624 96.0796C73.9109 96.0796 72.0099 97.9701 72.0099 100.806V109.313C65.8317 102.224 62.505 93.7164 62.505 84.2637C62.505 82.8458 62.505 81.4279 62.9802 80.0099C63.4554 77.6468 61.5545 75.2836 58.703 74.8109C56.3267 74.3383 53.9505 76.2289 53.4752 79.0647C53 80.9552 53 82.3731 53 84.2637C53 95.607 57.2772 106.478 64.4059 114.985H57.7525C54.901 114.985 53 116.876 53 119.711C53 122.547 54.901 124.438 57.7525 124.438H76.7624C78.1881 124.438 79.6139 123.493 80.5644 122.547C80.5644 122.075 81.0396 121.602 81.0396 121.129C81.0396 120.657 81.0396 120.657 81.0396 120.184V119.711V100.806C81.5149 97.9701 79.6139 96.0796 76.7624 96.0796ZM143.297 53.5423C146.149 53.5423 148.05 51.6517 148.05 48.8159C148.05 45.9801 146.149 44.0896 143.297 44.0896H124.287C123.812 44.0896 123.812 44.0896 123.337 44.0896C122.861 44.0896 122.386 44.5622 121.911 44.5622C121.436 45.0348 120.96 45.0348 120.96 45.5075C120.96 45.9801 120.485 46.4527 120.485 46.4527C120.485 46.9254 120.485 46.9254 120.485 47.398V47.8706V66.7761C120.485 69.6119 122.386 71.5025 125.238 71.5025C128.089 71.5025 129.99 69.6119 129.99 66.7761V59.2139C136.168 65.8308 139.495 74.8109 139.495 84.2637C139.495 85.6816 139.495 87.0995 139.02 88.5174C138.545 90.8806 140.446 93.2438 143.297 93.7164H143.772C146.149 93.7164 148.05 91.8259 148.525 89.4627C148.525 87.5721 149 86.1542 149 84.2637C149 72.9204 144.723 62.0497 137.594 53.5423H143.297ZM139.97 105.532C139.495 105.06 139.02 104.587 138.545 104.114C138.069 103.642 137.594 103.642 137.119 103.642H136.644H136.168H117.158C114.307 103.642 112.406 105.532 112.406 108.368C112.406 111.204 114.307 113.095 117.158 113.095H125.713C119.059 119.239 110.03 122.547 100.525 122.547C99.099 122.547 97.6733 122.547 96.2475 122.075C93.8713 121.602 91.495 123.493 91.0198 126.328C90.5446 129.164 92.4455 131.055 95.297 131.527C97.198 131.527 98.6238 132 100.525 132C111.931 132 122.861 127.746 131.416 120.657V126.801C131.416 129.637 133.317 131.527 136.168 131.527C139.02 131.527 140.921 129.637 140.921 126.801V107.896C140.921 106.95 140.446 106.005 139.97 105.532Z" fill="url(#paint2_linear_149_77)"/>
<defs>
<linearGradient id="paint0_linear_149_77" x1="100.5" y1="0" x2="100.5" y2="169" gradientUnits="userSpaceOnUse">
<stop stop-color="#EEBEF2"/>
<stop offset="1" stop-color="#2144FC"/>
</linearGradient>
<linearGradient id="paint1_linear_149_77" x1="187.5" y1="127" x2="187.5" y2="204" gradientUnits="userSpaceOnUse">
<stop stop-color="#F2C1F2"/>
<stop offset="1" stop-color="#183FFD"/>
</linearGradient>
<linearGradient id="paint2_linear_149_77" x1="53" y1="84.5" x2="149" y2="84.5" gradientUnits="userSpaceOnUse">
<stop stop-color="#F9C5F2"/>
<stop offset="1" stop-color="#0E39FE"/>
</linearGradient>
</defs>
</svg>
