<svg width="604" height="702" viewBox="0 0 604 702" fill="none" xmlns="http://www.w3.org/2000/svg">
<g opacity="0.21">
<path d="M384.947 207.979C388.569 193.702 390.379 186.563 388.409 182.403C386.698 178.789 383.388 176.22 379.461 175.458C374.94 174.58 368.467 178.1 355.522 185.142L252.416 241.228C248.588 243.309 246.676 244.35 244.671 244.728C242.899 245.064 241.082 245.023 239.341 244.609C237.371 244.14 235.548 243.014 231.9 240.764L133.627 180.131C121.289 172.518 115.121 168.713 110.535 169.384C106.553 169.969 103.036 172.385 101.029 175.915C98.7174 179.977 99.9347 187.183 102.368 201.597L121.754 316.409C122.473 320.668 122.833 322.8 122.536 324.823C122.273 326.616 121.641 328.339 120.677 329.882C119.589 331.627 117.928 333.042 114.602 335.872L25.0161 412.118C13.768 421.691 8.14479 426.476 7.28179 431.051C6.53105 435.029 7.66829 439.09 10.3547 442.033C13.4481 445.421 20.6719 446.356 35.1211 448.223L150.21 463.093C154.481 463.644 156.615 463.922 158.437 464.793C160.047 465.566 161.473 466.672 162.621 468.04C163.916 469.589 164.713 471.586 166.305 475.585L209.21 583.343C214.597 596.871 217.291 603.634 221.342 605.791C224.861 607.663 229.08 607.76 232.749 606.048C236.97 604.079 240.218 597.45 246.715 584.189L298.457 478.571C300.378 474.65 301.338 472.69 302.76 471.205C304.017 469.891 305.531 468.851 307.204 468.153C309.092 467.365 311.248 467.185 315.556 466.828L431.66 457.177C446.236 455.965 453.524 455.36 456.892 452.117C459.817 449.3 461.288 445.296 460.868 441.295C460.384 436.689 455.167 431.658 444.733 421.596L361.624 341.449C358.54 338.475 356.997 336.987 356.056 335.197C355.222 333.613 354.733 331.864 354.619 330.065C354.491 328.031 355.026 325.92 356.097 321.699L384.947 207.979Z" stroke="url(#paint0_linear_149_14)" stroke-width="9" stroke-linecap="round" stroke-linejoin="round"/>
</g>
<defs>
<linearGradient id="paint0_linear_149_14" x1="428.315" y1="489.112" x2="72.4014" y2="212.531" gradientUnits="userSpaceOnUse">
<stop stop-color="#F9C5F2"/>
<stop offset="1" stop-color="#0E39FE"/>
</linearGradient>
</defs>
</svg>
