<svg width="236" height="206" viewBox="0 0 236 206" fill="none" xmlns="http://www.w3.org/2000/svg">
<rect x="2.5" y="2.5" width="196" height="164" rx="13.5" stroke="url(#paint0_linear_149_79)" stroke-width="5"/>
<path fill-rule="evenodd" clip-rule="evenodd" d="M192.5 141.251C184.628 132.076 171.473 129.241 161.609 137.642C151.745 146.043 150.357 160.089 158.103 170.025C164.543 178.286 184.033 195.709 190.421 201.349C191.136 201.98 191.493 202.295 191.91 202.419C192.274 202.527 192.672 202.527 193.036 202.419C193.453 202.295 193.81 201.98 194.525 201.349C200.913 195.709 220.403 178.286 226.843 170.025C234.589 160.089 233.37 145.955 223.337 137.642C213.304 129.329 200.372 132.076 192.5 141.251Z" stroke="url(#paint1_linear_149_79)" stroke-width="7" stroke-linecap="round" stroke-linejoin="round"/>
<path d="M100.396 47.0166C100.533 47.0112 100.67 47.0056 100.812 47C101.54 47.141 102.193 47.514 102.626 48.1265C102.777 48.4258 102.905 48.7265 103.027 49.039C103.075 49.1521 103.123 49.2653 103.172 49.3817C103.271 49.6178 103.368 49.8545 103.464 50.0917C103.599 50.4236 103.738 50.753 103.88 51.0822C104.157 51.7294 104.43 52.3791 104.701 53.0289C104.802 53.2697 104.903 53.5104 105.004 53.7509C105.213 54.2486 105.422 54.7465 105.63 55.2441C106.125 56.4244 106.621 57.6041 107.117 58.7834C107.189 58.9546 107.189 58.9546 107.263 59.1293C108.068 61.0446 108.883 62.9562 109.703 64.8653C110.124 65.846 110.541 66.8277 110.943 67.8162C110.978 67.9038 111.014 67.9914 111.051 68.0816C111.216 68.4854 111.379 68.8893 111.54 69.2945C112.075 70.6308 112.075 70.6308 113.206 71.4611C113.591 71.5326 113.969 71.5901 114.357 71.6384C114.484 71.6544 114.612 71.6706 114.743 71.6874C116.521 71.9011 118.308 72.0382 120.092 72.1882C121.921 72.342 123.749 72.5082 125.577 72.678C128.095 72.9117 130.614 73.1398 133.133 73.363C133.288 73.3768 133.443 73.3906 133.603 73.4049C134.045 73.444 134.487 73.4832 134.929 73.5223C135.058 73.5336 135.187 73.545 135.319 73.5567C135.442 73.5677 135.565 73.5785 135.692 73.5896C135.811 73.6004 135.931 73.611 136.054 73.6222C136.315 73.644 136.577 73.6633 136.838 73.6806C136.975 73.6901 137.111 73.6996 137.252 73.7093C137.375 73.7169 137.497 73.7247 137.624 73.7325C138.354 73.8341 138.984 74.1301 139.502 74.6536C139.908 75.2116 139.999 75.7223 140 76.4015C139.793 77.3788 139.271 77.9803 138.508 78.5936C138.422 78.6653 138.336 78.7367 138.247 78.8106C138.071 78.957 137.894 79.1027 137.716 79.2478C137.414 79.4958 137.114 79.7478 136.815 80.0005C136.61 80.1741 136.404 80.3467 136.198 80.5194C135.746 80.8982 135.299 81.2814 134.852 81.6643C134.209 82.2131 133.559 82.7498 132.902 83.2802C132.392 83.6981 131.892 84.1273 131.391 84.5563C130.924 84.9565 130.451 85.3485 129.971 85.7343C129.513 86.1038 129.069 86.4837 128.633 86.8789C128.227 87.2461 127.816 87.5972 127.385 87.9347C126.819 88.378 126.274 88.8418 125.731 89.3129C125.173 89.7972 124.613 90.276 124.037 90.7393C123.366 91.279 122.715 91.8386 122.065 92.4023C121.987 92.4698 121.909 92.5376 121.829 92.6071C121.753 92.6726 121.678 92.7381 121.6 92.8057C121.385 92.9898 121.166 93.1684 120.945 93.3467C120.491 93.7329 120.258 94.0748 120.174 94.6719C120.145 95.3358 120.283 95.9077 120.472 96.5401C120.639 97.1354 120.772 97.7364 120.907 98.3395C121.114 99.2563 121.33 100.169 121.564 101.08C121.808 102.032 122.027 102.988 122.237 103.949C122.652 105.842 123.12 107.722 123.588 109.603C123.883 110.791 124.17 111.98 124.433 113.176C124.661 114.206 124.911 115.231 125.163 116.256C125.21 116.446 125.257 116.636 125.303 116.826C125.515 117.696 125.515 117.696 125.734 118.565C125.927 119.364 125.9 120.13 125.472 120.842C125.036 121.408 124.545 121.733 123.842 121.881C122.974 121.976 122.411 121.828 121.677 121.373C121.588 121.321 121.499 121.269 121.408 121.215C121.136 121.053 120.867 120.888 120.599 120.721C120.521 120.672 120.442 120.623 120.361 120.573C119.985 120.337 119.612 120.098 119.24 119.856C118.773 119.552 118.301 119.257 117.826 118.964C117.742 118.911 117.657 118.859 117.569 118.804C117.384 118.69 117.2 118.575 117.015 118.461C116.677 118.252 116.34 118.041 116.002 117.831C114.486 116.887 112.964 115.95 111.439 115.019C110.497 114.443 109.559 113.859 108.626 113.27C107.862 112.789 107.093 112.319 106.32 111.852C105.668 111.457 105.017 111.058 104.368 110.657C104.02 110.442 103.671 110.228 103.321 110.014C102.954 109.789 102.59 109.561 102.23 109.324C102.102 109.242 101.972 109.159 101.839 109.075C101.736 109.006 101.633 108.937 101.526 108.867C100.834 108.617 100.103 108.583 99.4072 108.843C99.1005 109.008 98.8132 109.188 98.5235 109.381C98.4139 109.45 98.3042 109.519 98.1914 109.59C97.9556 109.739 97.7205 109.889 97.4864 110.04C96.9905 110.36 96.4884 110.668 95.9865 110.978C95.458 111.304 94.9312 111.633 94.4042 111.962C92.3868 113.222 90.3636 114.471 88.3338 115.711C87.2638 116.365 86.1959 117.023 85.1283 117.68C84.7922 117.887 84.4559 118.094 84.1198 118.301C84.0069 118.371 83.8941 118.44 83.7779 118.512C83.5514 118.651 83.3252 118.79 83.0987 118.929C82.5124 119.29 81.927 119.651 81.3432 120.015C81.2224 120.09 81.1019 120.165 80.9777 120.242C80.7495 120.384 80.5218 120.526 80.2942 120.669C77.9521 122.121 77.9521 122.121 76.8856 121.881C76.3032 121.624 75.7733 121.287 75.4589 120.721C75.4589 120.635 75.4589 120.55 75.4589 120.463C75.3731 120.463 75.2876 120.463 75.1995 120.463C75.1343 119.314 75.2375 118.349 75.5434 117.242C75.7603 116.457 75.9428 115.664 76.1279 114.871C76.1872 114.617 76.2469 114.364 76.3068 114.11C76.4926 113.318 76.6728 112.528 76.819 111.728C76.8856 111.436 76.8856 111.436 77.0099 111.068C77.1519 110.642 77.2539 110.219 77.3509 109.78C77.3694 109.697 77.3879 109.614 77.407 109.529C77.4854 109.178 77.5629 108.827 77.6404 108.476C77.8515 107.522 78.0695 106.569 78.3161 105.623C78.3552 105.473 78.3944 105.322 78.4346 105.167C79.1311 102.955 80.7864 101.399 82.7471 100.266C82.9795 100.129 83.212 99.9927 83.4444 99.8561C83.6209 99.7531 83.6209 99.7531 83.8011 99.6478C84.3382 99.3332 84.8721 99.0135 85.4062 98.6941C85.6216 98.5655 85.837 98.4372 86.0522 98.3088C86.219 98.2093 86.219 98.2093 86.3889 98.1079C93.227 94.0291 93.227 94.0291 93.5527 93.835C93.7688 93.7059 93.9852 93.5768 94.2015 93.4479C94.748 93.1217 95.2948 92.796 95.8422 92.4711C96.3824 92.1502 96.922 91.8282 97.4608 91.5048C97.6657 91.3819 97.871 91.2593 98.0765 91.137C98.3641 90.9653 98.6506 90.7921 98.9369 90.6185C99.0217 90.5683 99.1063 90.5183 99.1935 90.4665C99.6868 90.1644 100.059 89.8784 100.364 89.3852C100.489 88.6967 100.483 88.0496 100.137 87.435C99.0835 86.5622 97.3992 86.9157 96.1148 87.0286C95.8424 87.0538 95.5699 87.0796 95.2974 87.1055C95.0988 87.1237 94.9003 87.1419 94.7017 87.16C94.2807 87.1985 93.8598 87.2374 93.4387 87.277C92.7747 87.3391 92.1106 87.4 91.4464 87.4606C89.3931 87.6487 87.3405 87.8417 85.2883 88.0422C84.7297 88.0967 84.1709 88.1505 83.6123 88.2042C83.0149 88.2619 82.4181 88.3218 81.8211 88.3823C80.3096 88.5311 78.8102 88.6407 77.2906 88.6444C77.1575 88.6448 77.0243 88.6452 76.8873 88.6455C75.9413 88.637 75.1418 88.5315 74.2915 88.0958C74.1461 88.0251 74.0008 87.9546 73.8511 87.8818C72.8688 87.3788 72.0813 86.7565 71.2893 85.9963C70.9448 85.6703 70.5919 85.3701 70.2217 85.0735C69.673 84.6339 69.1344 84.1846 68.6003 83.7275C68.4457 83.5954 68.2911 83.4633 68.1365 83.3312C68.0218 83.233 68.0218 83.233 67.9049 83.1331C67.0423 82.3971 66.1755 81.6669 65.2926 80.9551C64.4583 80.2797 63.6481 79.5778 62.8387 78.8736C62.6432 78.7049 62.4454 78.5388 62.2474 78.373C61.5894 77.8171 61.1333 77.4082 61.0121 76.5213C60.9619 75.694 61.0528 75.1673 61.58 74.5197C62.3134 73.8918 62.9546 73.7002 63.8961 73.6326C64.0063 73.6229 64.1164 73.6133 64.23 73.6032C64.5895 73.5722 64.949 73.5442 65.3088 73.5162C65.5605 73.4949 65.8122 73.4735 66.064 73.452C66.6984 73.398 67.333 73.3463 67.9677 73.2953C68.4974 73.2523 69.027 73.2071 69.5564 73.1616C69.7469 73.1452 69.9374 73.1288 70.1277 73.1124C70.2658 73.1007 70.2658 73.1007 70.4068 73.0886C70.6847 73.0648 70.9628 73.0414 71.241 73.0179C72.4773 72.9141 73.7128 72.8025 74.9481 72.686C76.2473 72.5636 77.5466 72.4442 78.8467 72.3309C79.1149 72.3072 79.3828 72.2834 79.651 72.2596C80.6223 72.1737 81.5936 72.092 82.5658 72.0163C83.0978 71.9746 83.6297 71.9311 84.1613 71.8875C84.4216 71.8667 84.6818 71.8466 84.9421 71.8273C85.3081 71.7999 85.6738 71.77 86.0397 71.7396C86.148 71.7322 86.2562 71.7247 86.3679 71.7171C87.2872 71.6362 87.9519 71.3571 88.667 70.7769C88.9894 70.3797 89.1539 69.991 89.3119 69.5131C89.3775 69.3276 89.444 69.1421 89.5108 68.9568C89.563 68.8115 89.563 68.8115 89.6163 68.6634C89.8044 68.16 90.0177 67.6677 90.232 67.1749C90.2768 67.0716 90.3217 66.9684 90.3677 66.862C90.4617 66.6456 90.556 66.4296 90.6501 66.2134C90.9095 65.6192 91.1668 65.0242 91.4243 64.4291C91.5038 64.2451 91.5038 64.2451 91.5851 64.0574C92.139 62.7757 92.6812 61.4892 93.2214 60.202C93.4147 59.7419 93.6079 59.2818 93.8012 58.8217C93.8736 58.6493 93.8736 58.6493 93.9474 58.4735C94.6269 56.8571 95.3124 55.2436 95.9997 53.6304C96.1008 53.3934 96.2017 53.1564 96.3027 52.9191C96.3512 52.8053 96.3999 52.6912 96.4498 52.5738C96.7404 51.8905 97.0273 51.2057 97.311 50.5194C97.3762 50.3629 97.4413 50.2065 97.5085 50.0452C97.6232 49.7687 97.7372 49.4917 97.8496 49.2143C98.3542 48.0048 98.9553 47.0426 100.396 47.0166Z" fill="url(#paint2_linear_149_79)"/>
<defs>
<linearGradient id="paint0_linear_149_79" x1="100.5" y1="0" x2="100.5" y2="169" gradientUnits="userSpaceOnUse">
<stop stop-color="#EEBEF2"/>
<stop offset="1" stop-color="#2144FC"/>
</linearGradient>
<linearGradient id="paint1_linear_149_79" x1="153.125" y1="167.569" x2="231.875" y2="167.569" gradientUnits="userSpaceOnUse">
<stop stop-color="#F9C5F2"/>
<stop offset="1" stop-color="#0E39FE"/>
</linearGradient>
<linearGradient id="paint2_linear_149_79" x1="61" y1="84.5" x2="140" y2="84.5" gradientUnits="userSpaceOnUse">
<stop stop-color="#F9C5F2"/>
<stop offset="1" stop-color="#0E39FE"/>
</linearGradient>
</defs>
</svg>
