<svg width="247" height="419" viewBox="0 0 247 419" fill="none" xmlns="http://www.w3.org/2000/svg">
<g opacity="0.21">
<path d="M116.242 124.137C118.404 115.616 119.485 111.354 118.309 108.871C117.288 106.714 115.312 105.181 112.968 104.726C110.27 104.202 106.406 106.303 98.6797 110.506L37.1386 143.982C34.8538 145.224 33.712 145.846 32.5154 146.071C31.4578 146.272 30.3731 146.247 29.3341 146C28.1587 145.72 27.07 145.049 24.8927 143.705L-33.7638 107.515C-41.1279 102.971 -44.8094 100.7 -47.5465 101.101C-49.9232 101.449 -52.0225 102.891 -53.2206 104.998C-54.6002 107.423 -53.8736 111.724 -52.4213 120.328L-40.85 188.856C-40.4211 191.398 -40.2059 192.67 -40.3833 193.878C-40.5405 194.948 -40.9179 195.977 -41.4928 196.897C-42.1422 197.939 -43.1338 198.783 -45.1191 200.473L-98.5904 245.982C-105.304 251.696 -108.66 254.552 -109.176 257.282C-109.624 259.656 -108.945 262.08 -107.341 263.837C-105.495 265.86 -101.183 266.418 -92.559 267.532L-23.8657 276.407C-21.3163 276.736 -20.0425 276.902 -18.9553 277.422C-17.9941 277.883 -17.1432 278.544 -16.458 279.36C-15.6849 280.284 -15.2089 281.477 -14.2588 283.864L11.35 348.181C14.5652 356.256 16.1733 360.292 18.591 361.58C20.6915 362.697 23.2098 362.755 25.3998 361.733C27.9193 360.558 29.8577 356.601 33.7353 348.686L64.6187 285.646C65.7655 283.305 66.3384 282.136 67.1871 281.249C67.9377 280.465 68.8412 279.844 69.8396 279.427C70.967 278.957 72.2533 278.85 74.8249 278.636L144.124 272.876C152.824 272.153 157.174 271.792 159.184 269.856C160.93 268.175 161.808 265.785 161.558 263.397C161.269 260.647 158.155 257.645 151.927 251.639L102.322 203.802C100.481 202.026 99.5601 201.138 98.998 200.07C98.5006 199.124 98.2086 198.081 98.1406 197.006C98.0639 195.792 98.3835 194.533 99.0224 192.013L116.242 124.137Z" stroke="url(#paint0_linear_149_99)" stroke-width="9" stroke-linecap="round" stroke-linejoin="round"/>
</g>
<defs>
<linearGradient id="paint0_linear_149_99" x1="142.128" y1="291.938" x2="-70.3074" y2="126.854" gradientUnits="userSpaceOnUse">
<stop stop-color="#F9C5F2"/>
<stop offset="1" stop-color="#0E39FE"/>
</linearGradient>
</defs>
</svg>
