<svg width="174" height="172" viewBox="0 0 174 172" fill="none" xmlns="http://www.w3.org/2000/svg">
<g opacity="0.21">
<path d="M116.55 37.8265C116.719 33.5635 116.803 31.4318 115.996 30.3712C115.295 29.45 114.203 28.9208 113.046 28.9407C111.713 28.9634 110.091 30.3496 106.849 33.1222L81.02 55.2063C80.061 56.0257 79.5818 56.4356 79.0369 56.6632C78.5553 56.8648 78.0383 56.9622 77.5205 56.9494C76.9348 56.9348 76.3509 56.7254 75.1829 56.3067L43.7191 45.027C39.769 43.6109 37.7942 42.903 36.5361 43.3686C35.4437 43.7733 34.5928 44.6691 34.2363 45.7899C33.8256 47.0798 34.6027 49.0486 36.1565 52.9869L48.5349 84.3556C48.9939 85.5193 49.2239 86.1019 49.2612 86.693C49.2942 87.2168 49.2185 87.7431 49.0384 88.238C48.835 88.7978 48.4496 89.2985 47.6776 90.3003L26.8869 117.285C24.2765 120.673 22.9715 122.367 23.0016 123.715C23.0277 124.887 23.5934 125.969 24.5307 126.642C25.6098 127.416 27.7113 127.247 31.9146 126.909L65.3936 124.211C66.6361 124.111 67.257 124.062 67.825 124.199C68.3274 124.321 68.7974 124.549 69.2045 124.868C69.6642 125.229 70.0098 125.747 70.7005 126.785L89.3148 154.742C91.6518 158.252 92.8204 160.007 94.0967 160.375C95.2055 160.694 96.406 160.468 97.3421 159.762C98.4192 158.951 98.941 156.878 99.9847 152.73L108.298 119.695C108.606 118.468 108.761 117.856 109.074 117.349C109.351 116.901 109.717 116.516 110.149 116.217C110.637 115.881 111.236 115.701 112.435 115.34L144.73 105.634C148.784 104.415 150.811 103.806 151.57 102.685C152.23 101.711 152.406 100.488 152.047 99.3797C151.634 98.1035 149.854 96.9912 146.296 94.7666L117.955 77.0469C116.903 76.3893 116.378 76.0605 116.003 75.6097C115.672 75.211 115.429 74.7448 115.289 74.2417C115.13 73.673 115.155 73.0429 115.205 71.7826L116.55 37.8265Z" stroke="url(#paint0_linear_149_6)" stroke-width="9" stroke-linecap="round" stroke-linejoin="round"/>
</g>
<defs>
<linearGradient id="paint0_linear_149_6" x1="145.699" y1="114.884" x2="28.2938" y2="57.9543" gradientUnits="userSpaceOnUse">
<stop stop-color="#F9C5F2"/>
<stop offset="1" stop-color="#0E39FE"/>
</linearGradient>
</defs>
</svg>
