<svg width="488" height="625" viewBox="0 0 488 625" fill="none" xmlns="http://www.w3.org/2000/svg">
<g opacity="0.21">
<path d="M194.372 184.923C191.152 172.229 189.542 165.881 191.294 162.182C192.815 158.969 195.758 156.685 199.25 156.007C203.27 155.227 209.025 158.357 220.535 164.618L312.211 214.486C315.615 216.336 317.315 217.262 319.098 217.598C320.673 217.897 322.289 217.86 323.837 217.492C325.588 217.075 327.21 216.075 330.453 214.073L417.832 160.162C428.802 153.393 434.286 150.01 438.364 150.607C441.904 151.126 445.032 153.274 446.816 156.413C448.871 160.025 447.789 166.433 445.626 179.249L428.388 281.333C427.749 285.12 427.429 287.015 427.693 288.814C427.927 290.408 428.489 291.941 429.346 293.312C430.313 294.864 431.79 296.122 434.748 298.639L514.402 366.432C524.404 374.944 529.403 379.199 530.171 383.266C530.838 386.803 529.827 390.413 527.439 393.031C524.688 396.043 518.265 396.874 505.418 398.535L403.087 411.756C399.289 412.246 397.392 412.493 395.772 413.268C394.34 413.955 393.073 414.939 392.052 416.155C390.901 417.531 390.192 419.308 388.776 422.864L350.627 518.675C345.838 530.704 343.442 536.717 339.841 538.635C336.712 540.3 332.96 540.386 329.698 538.863C325.945 537.113 323.057 531.219 317.281 519.428L271.275 425.518C269.566 422.032 268.713 420.289 267.449 418.968C266.33 417.8 264.985 416.876 263.497 416.255C261.818 415.554 259.902 415.394 256.071 415.077L152.838 406.496C139.877 405.418 133.398 404.88 130.403 401.997C127.802 399.492 126.494 395.932 126.868 392.375C127.298 388.279 131.936 383.806 141.214 374.859L215.109 303.597C217.852 300.952 219.223 299.63 220.061 298.038C220.802 296.63 221.237 295.075 221.338 293.475C221.452 291.666 220.976 289.79 220.024 286.037L194.372 184.923Z" stroke="url(#paint0_linear_149_12)" stroke-width="9" stroke-linecap="round" stroke-linejoin="round"/>
</g>
<defs>
<linearGradient id="paint0_linear_149_12" x1="155.812" y1="434.891" x2="472.27" y2="188.97" gradientUnits="userSpaceOnUse">
<stop stop-color="#F9C5F2"/>
<stop offset="1" stop-color="#0E39FE"/>
</linearGradient>
</defs>
</svg>
