<svg width="1473" height="100" viewBox="0 0 1473 100" fill="none" xmlns="http://www.w3.org/2000/svg">
<path d="M0.5 4C0.5 2.067 2.067 0.5 4 0.5C5.933 0.5 7.5 2.067 7.5 4L4 4L0.5 4ZM4 4L7.5 4L7.5 99L4 99L0.500004 99L0.5 4L4 4Z" fill="url(#paint0_linear_149_110)"/>
<path d="M104 92.5C105.933 92.5 107.5 94.067 107.5 96C107.5 97.933 105.933 99.5 104 99.5V96V92.5ZM104 96V99.5L1 99.5V96V92.5L104 92.5V96Z" fill="url(#paint1_linear_149_110)"/>
<path d="M1472.5 4C1472.5 2.067 1470.93 0.5 1469 0.5C1467.07 0.5 1465.5 2.067 1465.5 4L1469 4L1472.5 4ZM1469 4L1465.5 4L1465.5 99L1469 99L1472.5 99L1472.5 4L1469 4Z" fill="url(#paint2_linear_149_110)"/>
<path d="M1369 92.5C1367.07 92.5 1365.5 94.067 1365.5 96C1365.5 97.933 1367.07 99.5 1369 99.5V96V92.5ZM1369 96V99.5L1472 99.5V96V92.5L1369 92.5V96Z" fill="url(#paint3_linear_149_110)"/>
<defs>
<linearGradient id="paint0_linear_149_110" x1="4.5" y1="4" x2="4.5" y2="99" gradientUnits="userSpaceOnUse">
<stop stop-color="#F9C5F2"/>
<stop offset="1" stop-color="#0E39FE"/>
</linearGradient>
<linearGradient id="paint1_linear_149_110" x1="104" y1="96.5" x2="1" y2="96.5" gradientUnits="userSpaceOnUse">
<stop stop-color="#F9C5F2"/>
<stop offset="1" stop-color="#0E39FE"/>
</linearGradient>
<linearGradient id="paint2_linear_149_110" x1="1468.5" y1="4" x2="1468.5" y2="99" gradientUnits="userSpaceOnUse">
<stop stop-color="#F9C5F2"/>
<stop offset="1" stop-color="#0E39FE"/>
</linearGradient>
<linearGradient id="paint3_linear_149_110" x1="1369" y1="96.5" x2="1472" y2="96.5" gradientUnits="userSpaceOnUse">
<stop stop-color="#F9C5F2"/>
<stop offset="1" stop-color="#0E39FE"/>
</linearGradient>
</defs>
</svg>
