<svg width="95" height="90" viewBox="0 0 95 90" fill="none" xmlns="http://www.w3.org/2000/svg">
<path d="M47.3753 0.0198704C47.5402 0.0133961 47.7049 0.00669755 47.8749 0C48.7503 0.169225 49.5355 0.616846 50.0562 1.35179C50.2387 1.711 50.3924 2.07178 50.5394 2.44684C50.5968 2.58258 50.6539 2.71831 50.7131 2.85807C50.8322 3.14137 50.9494 3.42535 51.0649 3.71C51.2269 4.10828 51.3943 4.50366 51.5642 4.89859C51.8982 5.67528 52.2254 6.45488 52.552 7.23469C52.6735 7.52358 52.7948 7.81247 52.9163 8.10113C53.1674 8.69833 53.4186 9.29575 53.6693 9.89295C54.2641 11.3093 54.8605 12.7249 55.4573 14.1401C55.5439 14.3455 55.5439 14.3455 55.6321 14.5551C56.6012 16.8535 57.5806 19.1474 58.5674 21.4384C59.0735 22.6152 59.5745 23.7933 60.0576 24.9794C60.1006 25.0846 60.1436 25.1897 60.1879 25.298C60.386 25.7824 60.5824 26.2671 60.776 26.7534C61.4194 28.357 61.4194 28.357 62.7789 29.3533C63.2418 29.4391 63.6964 29.5081 64.1631 29.5661C64.3164 29.5853 64.4698 29.6047 64.6276 29.6248C66.7662 29.8813 68.9142 30.0459 71.0603 30.2258C73.2598 30.4104 75.4578 30.6098 77.6558 30.8136C80.684 31.094 83.7127 31.3677 86.742 31.6356C86.9286 31.6522 87.1151 31.6687 87.3075 31.6859C87.8391 31.7328 88.3709 31.7799 88.9024 31.8268C89.0573 31.8404 89.2119 31.854 89.3712 31.8681C89.5191 31.8812 89.6669 31.8942 89.8193 31.9076C89.9631 31.9205 90.1066 31.9332 90.2547 31.9466C90.5689 31.9728 90.8833 31.996 91.1979 32.0167C91.3619 32.0281 91.5262 32.0395 91.6952 32.0511C91.8429 32.0603 91.9905 32.0697 92.1428 32.079C93.0212 32.2009 93.7782 32.5561 94.4016 33.1843C94.8893 33.8539 94.9986 34.4667 95 35.2818C94.7509 36.4545 94.1239 37.1763 93.2055 37.9124C93.102 37.9983 92.9987 38.084 92.892 38.1727C92.68 38.3484 92.4674 38.5232 92.254 38.6973C91.8897 38.9949 91.5298 39.2974 91.1702 39.6006C90.9233 39.8089 90.6756 40.0161 90.4276 40.2232C89.885 40.6778 89.3469 41.1377 88.8088 41.5971C88.0367 42.2557 87.2547 42.8998 86.4641 43.5363C85.8508 44.0377 85.2497 44.5528 84.6478 45.0676C84.0854 45.5478 83.5167 46.0182 82.9399 46.4812C82.3888 46.9246 81.8556 47.3805 81.3313 47.8547C80.8432 48.2954 80.3485 48.7166 79.8298 49.1216C79.149 49.6536 78.4937 50.2102 77.8411 50.7755C77.17 51.3566 76.4962 51.9312 75.8035 52.4871C74.9974 53.1348 74.214 53.8063 73.4327 54.4828C73.3388 54.5638 73.2452 54.6451 73.1487 54.7286C73.058 54.8072 72.9671 54.8857 72.8737 54.9668C72.6146 55.1878 72.3511 55.4021 72.086 55.616C71.5394 56.0795 71.2599 56.4898 71.1581 57.2062C71.1237 58.003 71.2894 58.6893 71.5169 59.4481C71.7178 60.1625 71.8781 60.8836 72.0403 61.6074C72.2886 62.7076 72.5487 63.8033 72.83 64.8957C73.1232 66.0387 73.3868 67.186 73.6393 68.3387C74.1382 70.6107 74.7008 72.8669 75.2641 75.124C75.6192 76.5496 75.9637 77.9762 76.2802 79.4108C76.5538 80.6474 76.8554 81.8771 77.1585 83.1068C77.2145 83.3349 77.2706 83.5631 77.3264 83.791C77.5811 84.8356 77.5811 84.8356 77.8449 85.8778C78.0771 86.8371 78.0447 87.7562 77.5292 88.6099C77.0057 89.2897 76.415 89.6797 75.5695 89.8575C74.5259 89.9718 73.8492 89.7934 72.9666 89.2482C72.8595 89.1852 72.7524 89.1223 72.6421 89.0575C72.3156 88.8638 71.9922 88.6653 71.6699 88.4648C71.5754 88.4061 71.4811 88.3476 71.3837 88.2871C70.9318 88.0045 70.4828 87.7171 70.0356 87.4269C69.4737 87.0626 68.9057 86.7085 68.3356 86.3564C68.2337 86.2932 68.1315 86.2303 68.0264 86.1653C67.8041 86.0278 67.582 85.8905 67.3596 85.7532C66.9534 85.5018 66.5477 85.2498 66.1421 84.9977C64.3182 83.864 62.4886 82.7395 60.6542 81.6224C59.5211 80.9316 58.3943 80.2313 57.2716 79.5243C56.3534 78.9472 55.428 78.3823 54.4993 77.822C53.7143 77.3482 52.9323 76.8696 52.1518 76.388C51.7328 76.1299 51.3126 75.8732 50.8923 75.6169C50.4505 75.3472 50.013 75.0735 49.5809 74.7889C49.4259 74.6902 49.2706 74.5913 49.1106 74.4897C48.9863 74.4073 48.8621 74.3249 48.7341 74.2399C47.9021 73.9405 47.0222 73.8999 46.1859 74.212C45.8171 74.4095 45.4716 74.6259 45.1232 74.8572C44.9914 74.94 44.8595 75.023 44.7238 75.1083C44.4402 75.2869 44.1576 75.4671 43.876 75.6486C43.2797 76.0315 42.6759 76.4021 42.0723 76.7736C41.4368 77.1651 40.8033 77.5601 40.1696 77.9548C37.7436 79.4662 35.3106 80.9658 32.8698 82.4535C31.583 83.238 30.2989 84.027 29.015 84.8164C28.6109 85.0649 28.2064 85.3134 27.8023 85.5616C27.6666 85.6449 27.5309 85.7282 27.3911 85.8141C27.1188 85.9811 26.8467 86.1481 26.5744 86.3151C25.8694 86.7476 25.1654 87.1818 24.4633 87.6185C24.3181 87.7084 24.1732 87.7982 24.0238 87.8908C23.7494 88.0609 23.4756 88.2315 23.2019 88.4027C20.3855 90.1457 20.3855 90.1457 19.103 89.8575C18.4026 89.5489 17.7653 89.1446 17.3872 88.4648C17.3872 88.3626 17.3872 88.2605 17.3872 88.1554C17.2842 88.1554 17.1813 88.1554 17.0753 88.1554C16.997 86.777 17.121 85.6184 17.4889 84.2905C17.7498 83.3486 17.9692 82.3966 18.1918 81.4453C18.2631 81.1408 18.3349 80.8363 18.4069 80.5318C18.6304 79.5816 18.8471 78.633 19.0229 77.673C19.103 77.3234 19.103 77.3234 19.2524 76.8821C19.4232 76.3704 19.5459 75.8629 19.6624 75.3365C19.6847 75.2369 19.707 75.1371 19.7299 75.0344C19.8242 74.6136 19.9174 74.1925 20.0106 73.7715C20.2644 72.626 20.5266 71.4834 20.8232 70.3479C20.8702 70.1671 20.9173 69.9863 20.9657 69.8001C21.8033 67.1463 23.7938 65.2792 26.1516 63.9187C26.4311 63.7551 26.7106 63.5912 26.9901 63.4274C27.2023 63.3037 27.2023 63.3037 27.419 63.1773C28.0649 62.7998 28.7069 62.4163 29.3492 62.0329C29.6082 61.8787 29.8673 61.7246 30.1261 61.5706C30.3266 61.4511 30.3266 61.4511 30.5309 61.3295C38.754 56.4349 38.754 56.4349 39.1456 56.202C39.4055 56.0471 39.6657 55.8922 39.9258 55.7375C40.583 55.3461 41.2406 54.9552 41.8988 54.5654C42.5485 54.1803 43.1973 53.7938 43.8452 53.4058C44.0916 53.2582 44.3385 53.1111 44.5856 52.9644C44.9315 52.7584 45.276 52.5505 45.6204 52.3422C45.7223 52.282 45.824 52.2219 45.9289 52.1598C46.5221 51.7973 46.9693 51.4541 47.3363 50.8623C47.4869 50.036 47.4797 49.2596 47.0634 48.522C45.7966 47.4747 43.7712 47.8989 42.2267 48.0344C41.899 48.0645 41.5714 48.0955 41.2437 48.1266C41.0049 48.1485 40.7662 48.1703 40.5274 48.192C40.021 48.2382 39.5149 48.2849 39.0086 48.3324C38.2101 48.407 37.4114 48.48 36.6127 48.5528C34.1436 48.7785 31.6753 49.01 29.2074 49.2507C28.5357 49.3161 27.8637 49.3806 27.1919 49.4451C26.4736 49.5143 25.7559 49.5862 25.0381 49.6588C23.2204 49.8374 21.4173 49.9689 19.59 49.9733C19.43 49.9738 19.2697 49.9742 19.105 49.9747C17.9674 49.9644 17.006 49.8378 15.9834 49.3149C15.8085 49.2301 15.6339 49.1455 15.4539 49.0582C14.2726 48.4545 13.3256 47.7078 12.3732 46.7956C11.9589 46.4044 11.5345 46.0441 11.0894 45.6882C10.4295 45.1607 9.78186 44.6215 9.13958 44.073C8.9537 43.9145 8.76781 43.756 8.58193 43.5975C8.44397 43.4796 8.44397 43.4796 8.30332 43.3597C7.26609 42.4765 6.22369 41.6003 5.16193 40.7461C4.15868 39.9357 3.18447 39.0934 2.21115 38.2484C1.97598 38.0459 1.73811 37.8465 1.50001 37.6476C0.708757 36.9805 0.160324 36.4898 0.0144959 35.4256C-0.0458159 34.4328 0.0635529 33.8007 0.697502 33.0236C1.57945 32.2701 2.35045 32.0402 3.48265 31.9591C3.6152 31.9475 3.74753 31.9359 3.88413 31.9239C4.31644 31.8866 4.74875 31.8531 5.18151 31.8194C5.48419 31.7939 5.78688 31.7683 6.08956 31.7424C6.85246 31.6776 7.61559 31.6156 8.37894 31.5544C9.01581 31.5028 9.65269 31.4486 10.2893 31.3939C10.5184 31.3742 10.7475 31.3546 10.9764 31.3349C11.1425 31.3209 11.1425 31.3209 11.3119 31.3064C11.6461 31.2778 11.9805 31.2497 12.3152 31.2215C13.8018 31.0969 15.2876 30.963 16.7731 30.8232C18.3353 30.6763 19.8978 30.533 21.4612 30.3971C21.7837 30.3687 22.106 30.3401 22.4284 30.3115C23.5964 30.2084 24.7644 30.1104 25.9335 30.0195C26.5733 29.9695 27.2129 29.9173 27.8522 29.865C28.1653 29.84 28.4781 29.8159 28.7911 29.7927C29.2313 29.7599 29.671 29.7239 30.111 29.6876C30.2413 29.6786 30.3714 29.6697 30.5057 29.6605C31.6111 29.5634 32.4105 29.2285 33.2704 28.5322C33.6581 28.0556 33.856 27.5892 34.0459 27.0157C34.1249 26.7931 34.2048 26.5705 34.2851 26.3482C34.3479 26.1738 34.3479 26.1738 34.412 25.9961C34.6382 25.392 34.8948 24.8012 35.1524 24.2099C35.2062 24.086 35.2602 23.962 35.3156 23.8343C35.4286 23.5747 35.542 23.3155 35.6552 23.0561C35.9671 22.343 36.2765 21.6291 36.5862 20.9149C36.6818 20.6941 36.6818 20.6941 36.7795 20.4688C37.4456 18.9308 38.0976 17.3871 38.7473 15.8424C38.9798 15.2903 39.212 14.7382 39.4445 14.1861C39.5316 13.9791 39.5316 13.9791 39.6202 13.7682C40.4374 11.8285 41.2617 9.89228 42.0883 7.95647C42.2098 7.67204 42.3311 7.38762 42.4526 7.10298C42.5109 6.96635 42.5694 6.82949 42.6295 6.68862C42.979 5.86862 43.324 5.04683 43.6652 4.22325C43.7435 4.0355 43.8218 3.84774 43.9026 3.65419C44.0406 3.32243 44.1776 2.99001 44.3129 2.65714C44.9196 1.20578 45.6424 0.0511256 47.3753 0.0198704Z" fill="url(#paint0_linear_149_90)"/>
<defs>
<linearGradient id="paint0_linear_149_90" x1="0" y1="45" x2="95" y2="45" gradientUnits="userSpaceOnUse">
<stop stop-color="#F9C5F2"/>
<stop offset="1" stop-color="#0E39FE"/>
</linearGradient>
</defs>
</svg>
