<svg width="35" height="35" viewBox="0 0 35 35" fill="none" xmlns="http://www.w3.org/2000/svg">
<path fill-rule="evenodd" clip-rule="evenodd" d="M5.53566 0H29.5041C30.42 0 31.1833 0.152866 32.0994 0.611287C33.1681 1.06988 33.7787 1.83402 34.084 2.44531C34.084 2.44531 34.084 2.59817 34.2367 2.59817C34.6948 3.36232 35 4.27934 35 5.34921C35 6.26622 34.8473 7.18323 34.2367 8.10024L19.1229 34.083C18.8175 34.6943 18.207 35 17.4437 35C16.8331 35 16.2223 34.6943 15.7645 34.083L0.955686 8.10042C0.650308 7.48913 0.0397196 6.72481 0.0397196 5.50208C-0.112969 4.4322 0.192411 3.51518 0.650307 2.59817C1.10837 1.68116 1.87165 0.917014 2.9403 0.611287C3.85643 2.44875e-06 4.92508 0 5.53566 0ZM15.6116 3.66805H5.53566C4.92508 3.66805 4.6197 3.66805 4.46701 3.82091C4.16164 3.97378 4.00895 4.12664 3.85643 4.4322C3.70374 4.58506 3.70374 4.89079 3.70374 5.19635C3.70374 5.34921 3.85643 5.50207 4.16181 6.11336L15.6116 25.9824V3.66805ZM19.2754 3.66805V26.1354L30.8779 6.11353C31.0306 5.8078 31.0306 5.50225 31.0306 5.19652C31.0306 4.89079 31.0306 4.58523 30.8779 4.43237C30.7252 4.2795 30.7252 4.12664 30.5725 4.12664L30.4199 3.97378C30.1145 3.82091 29.8093 3.82091 29.3512 3.82091H19.2753L19.2754 3.66805Z" fill="#F9C5F2"/>
</svg>
