<svg width="73" height="85" viewBox="0 0 73 85" fill="none" xmlns="http://www.w3.org/2000/svg">
<path d="M33.6644 79.9929C34.5638 80.5199 35.0135 80.7836 35.6481 80.9204C36.1409 81.0265 36.8591 81.0265 37.3519 80.9204C37.9865 80.7836 38.4362 80.5199 39.3356 79.9929C47.2494 75.3533 69 60.7792 69 40.7413V18.6965C69 16.4188 69 15.28 68.5637 14.412C68.1769 13.6425 67.5728 13.0282 66.8115 12.6305C65.9531 12.1818 64.8006 12.1682 62.4951 12.1408C50.423 11.9973 43.4615 10.9956 36.5 4C29.5385 10.9956 22.577 11.9973 10.5049 12.1408C8.19953 12.1682 7.04683 12.1818 6.18827 12.6305C5.42712 13.0282 4.82302 13.6425 4.43627 14.412C4 15.28 4 16.4188 4 18.6965V40.7413C4 60.7792 25.7505 75.3533 33.6644 79.9929Z" stroke="url(#paint0_linear_149_84)" stroke-width="7" stroke-linecap="round" stroke-linejoin="round"/>
<defs>
<linearGradient id="paint0_linear_149_84" x1="36.5" y1="4" x2="36.5" y2="81" gradientUnits="userSpaceOnUse">
<stop stop-color="#F2C1F2"/>
<stop offset="1" stop-color="#183FFD"/>
</linearGradient>
</defs>
</svg>
