<svg width="125" height="174" viewBox="0 0 125 174" fill="none" xmlns="http://www.w3.org/2000/svg">
<path d="M124.821 142.991C124.691 138.305 124.567 133.607 124.746 128.922C124.926 123.981 124.976 119.041 124.833 114.101C124.703 109.042 124.567 103.984 124.337 98.9314C124.12 94.1713 124.182 89.4174 124.108 84.6572C124.071 82.3393 123.866 80.0276 123.841 77.7159C123.804 75.4663 123.767 73.2229 123.55 70.9734C123.128 66.4121 123.345 61.77 123.345 57.1963C123.358 51.9079 123.649 46.6134 123.717 41.325C123.723 40.9894 123.587 40.6911 123.525 40.3742C124.052 38.5907 123.73 36.6146 122.31 35.1915C121.33 34.2096 119.867 33.6504 118.423 33.6504C117.09 33.6504 115.776 34.1289 114.895 35.1915C113.612 36.714 112.236 38.1681 110.934 39.6844C109.365 41.5239 107.902 43.4503 106.383 45.327C105.261 46.719 104.139 48.0861 102.942 49.4098C102.372 50.0436 101.795 50.6961 101.206 51.33C100.754 50.6961 100.332 50.0436 99.9789 49.3476C99.6069 48.3409 99.2722 47.3342 98.8754 46.3337C98.2616 44.7739 97.6169 43.4689 96.6435 42.1329C95.788 40.9708 95.1308 39.5664 93.9963 38.6466C93.2833 38.0687 92.5952 37.6772 91.8574 37.3851C91.8326 36.6767 91.8264 35.9621 91.8078 35.2474C91.7272 33.0289 91.4731 30.8664 91.1693 28.6789C90.9523 26.9824 90.7415 25.2921 90.4749 23.6143C90.2083 22.0172 90.0285 20.3704 89.4706 18.8417C88.1873 15.3058 86.3522 11.832 83.8661 9.0045C82.3534 7.28314 80.4625 5.85386 78.5531 4.64207C77.214 3.79693 75.9058 2.92072 74.4799 2.2185C70.7478 0.366644 66.5134 0 62.3845 0C62.1737 0 61.9629 0 61.7459 0C57.989 0.0248571 54.3436 0.397715 50.6548 1.2615C46.6933 2.19364 43.2897 4.45564 40.5061 7.38879C39.1297 8.85536 37.7782 10.3903 36.7739 12.1614C35.6146 14.2183 34.542 16.269 33.6679 18.4813C32.8371 20.5879 32.2792 22.7754 31.9258 25.0187C31.529 27.5604 31.1384 30.102 30.9339 32.6561C30.7417 35.0796 30.6859 37.4846 30.6363 39.9019C29.2538 41.3623 27.9828 42.9656 26.7553 44.5005C25.5154 46.0479 24.1949 47.5455 22.8186 48.9748C22.8 48.9375 22.769 48.9064 22.738 48.8691C21.6654 47.6946 20.4937 46.6569 19.3096 45.6004C16.2284 42.8537 13.3208 39.9268 10.3945 37.0185C8.42307 35.061 5.16207 35.0486 3.1968 37.0185C2.23586 37.9817 1.74609 39.2743 1.72749 40.5793C1.45471 41.1945 1.29972 41.8656 1.29972 42.5803C1.31212 45.3394 1.37411 48.0986 1.38651 50.8639C1.38651 53.2999 1.27492 55.7173 1.21912 58.1409C1.09513 62.9259 0.890542 67.6922 0.834746 72.4772C0.723153 81.6806 1.23152 90.8653 1.23152 100.069C1.23152 104.885 1.29352 109.719 1.26872 114.548C1.24392 119.19 1.31212 123.838 1.18193 128.474C1.05173 133.16 0.853346 137.833 0.809949 142.518C0.760352 147.229 0.723153 151.939 0.580562 156.644C0.487568 159.713 0.431772 162.765 0.369776 165.828C0.065995 166.692 -0.0207996 167.643 0.00399881 168.581C0.0845938 171.539 2.39085 174 5.38526 174C6.52599 174 7.52412 173.559 8.39207 172.944C10.9463 173.105 13.5067 173.254 16.0672 173.248C18.6648 173.236 21.2501 173.08 23.8477 172.968C28.8384 172.776 33.8105 172.881 38.8012 172.931C48.9375 173.018 59.0677 172.819 69.2164 172.801C77.2945 172.776 85.3664 172.788 93.4445 172.62C97.1147 172.546 100.791 172.378 104.474 172.353C108.46 172.341 112.434 172.453 116.408 172.521C117.251 172.533 118.02 172.285 118.733 171.924C120.803 172.241 123.11 171.34 124.108 169.445C125.205 167.363 124.821 164.772 124.821 162.497C124.833 160.658 124.895 158.831 124.945 156.985C125.075 152.325 124.951 147.651 124.821 142.991ZM41.2438 31.0963C41.715 27.6598 42.2233 24.2481 43.4695 20.9981C44.17 19.4694 44.9574 17.9593 45.9245 16.5797C47.0776 15.1753 48.3424 13.9014 49.7373 12.7331C49.9915 12.5653 50.2518 12.4161 50.5246 12.2856C52.1613 11.6766 53.829 11.2976 55.5463 11.0241C57.4806 10.8191 59.4397 10.8066 61.3739 10.8439C63.2524 10.875 65.1123 10.9247 66.966 11.1111C67.6604 11.2416 68.3237 11.4032 68.9871 11.6331C69.855 12.0557 70.692 12.5342 71.5103 13.0562C72.4898 13.6901 73.5004 14.268 74.4551 14.9329C75.2673 15.6289 76.0174 16.3933 76.718 17.2074C77.7471 18.6864 78.6399 20.3207 79.3838 21.9737C80.0224 23.7386 80.3014 25.6401 80.6671 27.4734C80.9895 29.1823 81.2747 30.9223 81.5227 32.6436C81.8761 35.7384 81.8389 38.8704 82.0125 41.9775C80.3324 43.8294 78.7266 45.7558 77.1209 47.6636C76.6312 48.2477 76.1414 48.8443 75.664 49.4471C74.7837 48.4839 73.8228 47.5952 72.9982 46.5885C72.4837 45.9236 71.9629 45.2649 71.4359 44.5999C70.7726 43.6678 70.1712 42.6921 69.5636 41.7227C69.2598 41.238 69.0181 40.716 68.7329 40.2313C68.2369 39.3737 67.6108 38.6094 66.9908 37.845C65.8439 36.4157 63.8724 35.5084 62.0497 35.6079C60.1154 35.7073 58.4477 36.5027 57.1582 37.9444C56.3089 38.889 55.5897 39.9516 54.8396 40.977C53.7732 42.2882 52.6325 43.5497 51.5042 44.8112C50.5742 45.849 49.6815 46.9365 48.7515 47.9929C48.6337 47.85 48.5222 47.7009 48.4044 47.5517C46.7119 45.3581 44.9884 43.1831 43.1595 41.0951C42.4217 40.2686 41.7956 39.3737 41.0702 38.5534C41.0144 38.4913 40.9462 38.4602 40.8904 38.4043C40.8718 37.6461 40.8284 36.888 40.847 36.1236C40.878 34.4334 41.0392 32.7679 41.2438 31.0963ZM102.13 162.205C97.4557 162.361 92.7812 162.665 88.0943 162.845C83.1656 163.026 78.2493 163.05 73.3206 163.1C68.3919 163.137 63.4756 163.355 58.5469 163.305C50.0287 163.231 41.529 163.268 33.0231 163.137C29.012 163.063 25.0008 163.342 21.0021 163.523C17.4745 163.684 13.9407 163.43 10.4131 163.156C10.3821 159.949 10.3511 156.743 10.4689 153.536C10.6487 148.801 10.5991 144.066 10.6859 139.343C10.7727 134.682 11.0393 130.034 11.0455 125.373C11.0455 120.775 11.0951 116.157 11.1075 111.546C11.1199 106.718 11.0951 101.883 11.1447 97.0547C11.2067 92.4189 11.2315 87.7954 11.0827 83.1534C10.9401 78.5921 11.0207 73.9997 10.9587 69.426C10.8967 64.5851 11.0827 59.7504 11.1633 54.9094C11.1819 53.9649 11.1943 53.0203 11.2129 52.0695C11.6035 52.4859 12.0002 52.8898 12.4032 53.2937C13.5501 54.4309 14.6475 55.593 15.7014 56.8172C16.7615 58.0539 17.8031 59.1289 19.1918 60.0362C19.3716 60.1605 19.5638 60.2537 19.7622 60.3407C20.2085 60.6328 20.6921 60.8254 21.2129 60.9186C22.4218 61.1734 23.0356 61.074 24.2321 60.8938C25.503 60.7011 26.7057 59.6199 27.6171 58.7747C29.0554 57.42 30.3077 55.8043 31.6406 54.3439C33.1657 52.6536 34.4986 50.7521 35.9679 48.9934C36.7119 49.9504 37.4682 50.9074 38.2122 51.8582C39.5699 53.7287 40.8036 55.6924 42.1552 57.5629C42.9797 58.6877 43.9096 59.9119 45.2116 60.4961C46.0919 61.0119 47.0342 61.2729 48.051 61.2729C48.6337 61.3599 49.2103 61.2977 49.7807 61.1051C51.2314 60.7757 52.2543 59.8933 53.3578 58.9736C54.6908 57.8674 55.7695 56.3449 56.811 54.9529C58.3733 53.0203 60.1526 51.2741 61.7025 49.3352C62.1489 50.0064 62.6077 50.6589 63.0912 51.3114C63.054 51.2616 63.0168 51.2119 62.9796 51.1684C63.0788 51.3051 63.178 51.4356 63.2772 51.5661C63.2586 51.5413 63.24 51.5102 63.2152 51.4854C63.4136 51.7464 63.612 52.0074 63.8228 52.2684C63.6368 52.0322 63.457 51.8023 63.2772 51.5661C64.1886 52.8028 65.0131 54.0891 66.0423 55.245C66.842 56.1585 67.6293 57.0782 68.3919 58.0166C68.8135 58.6318 69.1545 59.2843 69.5946 59.8809C70.3448 60.9124 71.1755 62.0745 72.3969 62.5965C73.2772 63.1185 74.2319 63.3733 75.2611 63.3733C75.8314 63.4354 76.3832 63.3733 76.9412 63.1931C77.5921 63.0377 78.2431 62.7581 78.801 62.3852C80.7911 61.0491 81.8947 59.0233 83.2338 57.1279C84.6411 55.3382 86.0794 53.5734 87.5363 51.8209C87.8959 51.3797 88.2679 50.9571 88.646 50.5346C89.2164 52.3491 89.731 54.1699 90.6857 55.8416C91.1569 56.6805 91.7582 57.4386 92.3286 58.2154C93.116 59.2781 93.9095 60.2724 94.8518 61.1796C95.1308 61.4469 95.3974 61.7389 95.695 61.9813C96.6249 62.7084 97.5053 63.4789 98.7018 63.7586C100.016 64.0506 101.25 64.1128 102.558 63.684C104.56 63.0439 106.203 61.6644 107.58 60.1108C109.626 57.8239 111.578 55.4749 113.475 53.0824C113.475 54.5925 113.488 56.1088 113.451 57.6189C113.389 59.9927 113.426 62.379 113.413 64.7466C113.401 67.0086 113.413 69.2644 113.568 71.5264C113.897 76.1436 114.064 80.7795 114.257 85.4029C114.449 90.0761 114.356 94.7492 114.548 99.4224C114.753 104.518 114.895 109.62 114.994 114.716C115.094 119.706 114.97 124.683 114.883 129.667C114.808 134.34 114.753 139.001 114.728 143.662C114.715 148.26 114.802 152.878 114.548 157.476C114.474 158.955 114.405 160.44 114.368 161.926C110.314 161.982 106.216 162.062 102.13 162.205ZM108.466 81.8421C108.2 85.4402 107.945 89.0321 107.852 92.655C107.735 97.0485 107.536 101.448 107.499 105.842C107.462 110.335 107.437 114.828 107.425 119.314C107.412 123.758 107.387 128.188 107.387 132.632C107.387 134.918 107.363 137.205 107.338 139.492C107.338 141.139 107.313 142.811 107.425 144.445C108.082 146.949 106.414 149.615 103.971 150.292C102.701 150.641 101.324 150.46 100.202 149.808C99.0056 149.106 98.46 148.111 97.9578 146.875C97.6045 146.017 97.6293 144.905 97.6293 143.96C97.6293 143.245 97.6541 142.531 97.6665 141.816C97.6913 140.269 97.6541 138.715 97.6541 137.168C97.6665 128.232 97.6045 119.289 97.5425 110.353C97.4805 100.852 97.3875 91.3314 97.9516 81.8421C98.119 78.9711 100.208 76.5724 103.203 76.5724C105.918 76.5724 108.671 78.9711 108.466 81.8421Z" fill="url(#paint0_linear_149_91)"/>
<defs>
<linearGradient id="paint0_linear_149_91" x1="0" y1="87" x2="125" y2="87" gradientUnits="userSpaceOnUse">
<stop stop-color="#F9C5F2"/>
<stop offset="1" stop-color="#0E39FE"/>
</linearGradient>
</defs>
</svg>
