<svg width="125" height="113" viewBox="0 0 125 113" fill="none" xmlns="http://www.w3.org/2000/svg">
<path fill-rule="evenodd" clip-rule="evenodd" d="M93.75 0C103.736 0 111.898 7.84047 112.468 17.7267L112.5 18.8333V46.1423L116.212 44.4856C120.048 42.7732 124.477 45.4304 124.957 49.4916L125 50.2222V100.444C125 107.064 119.901 112.486 113.433 112.966L112.5 113H12.5C5.91024 113 0.511468 107.878 0.0342861 101.382L0 100.444V50.2222C0 46.0061 4.21648 43.0196 8.10626 44.2282L8.78838 44.4856L12.5 46.1423V18.8333C12.5 8.80347 20.3058 0.604797 30.1483 0.0319703L31.25 0H93.75ZM112.5 59.8825L67.5769 79.9368C64.3444 81.3795 60.6556 81.3795 57.4231 79.9368L12.5 59.8825V100.444H112.5V59.8825ZM93.75 12.5556H31.25C27.7983 12.5556 25 15.3662 25 18.8333V51.7226L62.5 68.4636L100 51.7226V18.8333C100 15.3662 97.2019 12.5556 93.75 12.5556ZM62.5 31.3889C65.9519 31.3889 68.75 34.1996 68.75 37.6667C68.75 40.8861 66.3373 43.5396 63.2289 43.9022L62.5 43.9444H50C46.5482 43.9444 43.75 41.1338 43.75 37.6667C43.75 34.4472 46.1628 31.7938 49.2711 31.4311L50 31.3889H62.5Z" fill="url(#paint0_linear_149_88)"/>
<defs>
<linearGradient id="paint0_linear_149_88" x1="0" y1="56.5" x2="125" y2="56.5" gradientUnits="userSpaceOnUse">
<stop stop-color="#F9C5F2"/>
<stop offset="1" stop-color="#0E39FE"/>
</linearGradient>
</defs>
</svg>
