<svg width="79" height="75" viewBox="0 0 79 75" fill="none" xmlns="http://www.w3.org/2000/svg">
<path d="M39.3963 0.0165587C39.5334 0.0111634 39.6704 0.00558129 39.8117 0C40.5397 0.141021 41.1926 0.514038 41.6257 1.12649C41.7775 1.42584 41.9053 1.72648 42.0275 2.03903C42.0752 2.15215 42.1227 2.26526 42.172 2.38172C42.271 2.61781 42.3685 2.85446 42.4645 3.09167C42.5992 3.42357 42.7384 3.75305 42.8797 4.08216C43.1574 4.7294 43.4296 5.37906 43.7011 6.02891C43.8022 6.26965 43.903 6.51039 44.0041 6.75094C44.2129 7.24861 44.4218 7.74646 44.6303 8.24413C45.1249 9.42438 45.6208 10.6041 46.1171 11.7834C46.1891 11.9546 46.1891 11.9546 46.2625 12.1293C47.0683 14.0446 47.8828 15.9562 48.7034 17.8653C49.1243 18.846 49.5409 19.8277 49.9427 20.8162C49.9784 20.9038 50.0141 20.9914 50.051 21.0817C50.2157 21.4854 50.3791 21.8893 50.54 22.2945C51.075 23.6308 51.0751 23.6308 52.2056 24.4611C52.5905 24.5326 52.9686 24.5901 53.3567 24.6384C53.4841 24.6544 53.6118 24.6706 53.7429 24.6874C55.5214 24.9011 57.3076 25.0382 59.0922 25.1882C60.9213 25.342 62.7492 25.5082 64.577 25.678C67.0951 25.9117 69.6137 26.1398 72.1328 26.363C72.288 26.3768 72.4431 26.3906 72.6031 26.4049C73.0451 26.444 73.4874 26.4832 73.9294 26.5223C74.0581 26.5336 74.1867 26.545 74.3192 26.5567C74.4422 26.5677 74.5651 26.5785 74.6918 26.5896C74.8114 26.6004 74.9308 26.611 75.0539 26.6222C75.3152 26.644 75.5766 26.6633 75.8382 26.6806C75.9747 26.6901 76.1113 26.6996 76.2518 26.7093C76.3746 26.7169 76.4974 26.7247 76.624 26.7325C77.3545 26.8341 77.984 27.1301 78.5024 27.6536C78.9079 28.2116 78.9989 28.7223 79 29.4015C78.7928 30.3788 78.2715 30.9803 77.5077 31.5936C77.4216 31.6653 77.3357 31.7367 77.247 31.8106C77.0708 31.957 76.8939 32.1027 76.7165 32.2478C76.4135 32.4958 76.1143 32.7479 75.8152 33.0005C75.6099 33.1741 75.4039 33.3467 75.1977 33.5194C74.7465 33.8982 74.299 34.2814 73.8515 34.6643C73.2095 35.2131 72.5591 35.7498 71.9017 36.2803C71.3917 36.6981 70.8919 37.1273 70.3913 37.5563C69.9236 37.9565 69.4507 38.3485 68.9711 38.7343C68.5128 39.1038 68.0694 39.4837 67.6334 39.8789C67.2275 40.2461 66.8161 40.5972 66.3848 40.9347C65.8187 41.378 65.2737 41.8418 64.731 42.3129C64.1729 42.7972 63.6126 43.276 63.0366 43.7393C62.3663 44.279 61.7148 44.8386 61.0651 45.4023C60.987 45.4699 60.9092 45.5376 60.8289 45.6072C60.7535 45.6726 60.6779 45.7381 60.6002 45.8057C60.3848 45.9898 60.1657 46.1684 59.9452 46.3467C59.4906 46.7329 59.2582 47.0748 59.1736 47.6719C59.145 48.3358 59.2827 48.9077 59.4719 49.5401C59.639 50.1354 59.7723 50.7364 59.9072 51.3395C60.1136 52.2563 60.33 53.1694 60.5639 54.0797C60.8077 55.0323 61.0269 55.9884 61.2369 56.9489C61.6518 58.8423 62.1196 60.7224 62.588 62.6033C62.8833 63.7914 63.1699 64.9802 63.433 66.1757C63.6605 67.2062 63.9113 68.2309 64.1634 69.2556C64.21 69.4458 64.2566 69.6359 64.303 69.8259C64.5148 70.6964 64.5148 70.6964 64.7342 71.5648C64.9273 72.3642 64.9004 73.1302 64.4716 73.8416C64.0363 74.4081 63.5451 74.7331 62.842 74.8812C61.9742 74.9765 61.4115 74.8278 60.6775 74.3735C60.5884 74.321 60.4993 74.2686 60.4076 74.2146C60.1361 74.0531 59.8672 73.8877 59.5992 73.7207C59.5206 73.6717 59.4422 73.623 59.3611 73.5726C58.9854 73.3371 58.612 73.0976 58.2402 72.8558C57.7729 72.5521 57.3005 72.2571 56.8265 71.9637C56.7417 71.911 56.6567 71.8586 56.5694 71.8044C56.3845 71.6898 56.1997 71.5754 56.0149 71.461C55.6771 71.2515 55.3396 71.0415 55.0024 70.8314C53.4856 69.8867 51.9642 68.9496 50.4388 68.0186C49.4965 67.443 48.5595 66.8594 47.6258 66.2702C46.8623 65.7893 46.0928 65.3186 45.3204 64.8516C44.6677 64.4569 44.0174 64.058 43.3684 63.6567C43.0199 63.4416 42.6705 63.2277 42.3209 63.0141C41.9536 62.7893 41.5898 62.5613 41.2304 62.3241C41.1015 62.2418 40.9724 62.1594 40.8393 62.0748C40.736 62.0061 40.6327 61.9374 40.5262 61.8666C39.8344 61.6171 39.1026 61.5832 38.4072 61.8433C38.1005 62.008 37.8132 62.1882 37.5235 62.381C37.4139 62.45 37.3042 62.5192 37.1914 62.5903C36.9556 62.7391 36.7205 62.8892 36.4864 63.0405C35.9905 63.3596 35.4884 63.6684 34.9865 63.978C34.458 64.3043 33.9312 64.6334 33.4042 64.9623C31.3868 66.2218 29.3636 67.4715 27.3338 68.7113C26.2638 69.365 25.1959 70.0225 24.1283 70.6804C23.7922 70.8874 23.4559 71.0945 23.1198 71.3014C23.0069 71.3708 22.8941 71.4402 22.7779 71.5118C22.5514 71.6509 22.3252 71.7901 22.0987 71.9293C21.5124 72.2896 20.927 72.6515 20.3432 73.0154C20.2224 73.0904 20.1019 73.1651 19.9777 73.2424C19.7495 73.3841 19.5218 73.5263 19.2942 73.669C16.9521 75.1214 16.9521 75.1214 15.8856 74.8812C15.3032 74.6241 14.7733 74.2872 14.4589 73.7207C14.4589 73.6355 14.4589 73.5504 14.4589 73.4628C14.3731 73.4628 14.2876 73.4628 14.1995 73.4628C14.1343 72.3142 14.2375 71.3486 14.5434 70.242C14.7603 69.4571 14.9428 68.6638 15.1279 67.8711C15.1872 67.6173 15.2469 67.3636 15.3068 67.1098C15.4926 66.318 15.6728 65.5275 15.819 64.7275C15.8856 64.4362 15.8856 64.4362 16.0099 64.0684C16.1519 63.642 16.2539 63.2191 16.3509 62.7804C16.3694 62.6974 16.3879 62.6143 16.407 62.5287C16.4854 62.178 16.5629 61.8271 16.6404 61.4762C16.8515 60.5217 17.0695 59.5695 17.3161 58.6233C17.3552 58.4726 17.3944 58.3219 17.4346 58.1667C18.1311 55.9552 19.7864 54.3994 21.7471 53.2656C21.9795 53.1292 22.212 52.9927 22.4444 52.8561C22.6209 52.7531 22.6209 52.7531 22.8011 52.6478C23.3382 52.3332 23.8721 52.0135 24.4062 51.6941C24.6216 51.5656 24.837 51.4372 25.0522 51.3088C25.219 51.2093 25.219 51.2093 25.3889 51.1079C32.227 47.0291 32.227 47.0291 32.5527 46.835C32.7688 46.7059 32.9852 46.5768 33.2015 46.4479C33.7479 46.1217 34.2948 45.796 34.8422 45.4712C35.3824 45.1502 35.922 44.8282 36.4608 44.5048C36.6657 44.3819 36.871 44.2593 37.0765 44.137C37.3641 43.9653 37.6506 43.7921 37.9369 43.6185C38.0217 43.5683 38.1063 43.5183 38.1935 43.4665C38.6868 43.1644 39.0587 42.8785 39.3639 42.3853C39.4891 41.6967 39.4831 41.0497 39.1369 40.435C38.0835 39.5622 36.3992 39.9157 35.1148 40.0286C34.8424 40.0538 34.5699 40.0796 34.2974 40.1055C34.0988 40.1237 33.9003 40.1419 33.7017 40.16C33.2807 40.1985 32.8598 40.2374 32.4387 40.277C31.7747 40.3392 31.1106 40.4 30.4464 40.4606C28.3931 40.6487 26.3405 40.8417 24.2883 41.0422C23.7297 41.0967 23.1709 41.1505 22.6123 41.2043C22.0149 41.2619 21.4181 41.3218 20.8211 41.3823C19.3096 41.5311 17.8102 41.6407 16.2906 41.6444C16.1575 41.6448 16.0243 41.6452 15.8873 41.6456C14.9413 41.637 14.1418 41.5315 13.2915 41.0958C13.1461 41.0251 13.0008 40.9546 12.8511 40.8818C11.8688 40.3788 11.0813 39.7565 10.2893 38.9963C9.9448 38.6703 9.59185 38.3701 9.22168 38.0735C8.67298 37.6339 8.13439 37.1846 7.60029 36.7275C7.44571 36.5954 7.29113 36.4633 7.13655 36.3312C7.02183 36.233 7.02183 36.233 6.90487 36.1331C6.04233 35.3971 5.17549 34.6669 4.29255 33.9551C3.45827 33.2798 2.64814 32.5778 1.83875 31.8736C1.64318 31.7049 1.44537 31.5388 1.24738 31.373C0.589387 30.8171 0.133322 30.4082 0.0120545 29.5213C-0.0380996 28.694 0.0528493 28.1673 0.580028 27.5197C1.31344 26.8918 1.95459 26.7002 2.8961 26.6326C3.00633 26.6229 3.11636 26.6133 3.22996 26.6032C3.58946 26.5722 3.94896 26.5442 4.30883 26.5162C4.56054 26.4949 4.81224 26.4736 5.06395 26.452C5.69836 26.398 6.33296 26.3463 6.96775 26.2953C7.49736 26.2523 8.02697 26.2071 8.5564 26.1616C8.74691 26.1452 8.93742 26.1288 9.12774 26.1124C9.26585 26.1007 9.26585 26.1007 9.40677 26.0886C9.68467 26.0648 9.96277 26.0414 10.241 26.0179C11.4773 25.9141 12.7128 25.8025 13.9481 25.686C15.2473 25.5636 16.5466 25.4442 17.8467 25.3309C18.1149 25.3073 18.3828 25.2834 18.651 25.2596C19.6223 25.1737 20.5936 25.092 21.5658 25.0163C22.0978 24.9746 22.6297 24.9311 23.1613 24.8875C23.4216 24.8667 23.6818 24.8466 23.9421 24.8273C24.3081 24.7999 24.6738 24.77 25.0397 24.7396C25.148 24.7322 25.2562 24.7247 25.3679 24.7171C26.2872 24.6362 26.9519 24.3571 27.667 23.7769C27.9894 23.3797 28.1539 22.991 28.3119 22.5131C28.3775 22.3276 28.444 22.1421 28.5108 21.9568C28.563 21.8115 28.563 21.8115 28.6163 21.6634C28.8044 21.16 29.0177 20.6677 29.232 20.1749C29.2768 20.0716 29.3217 19.9684 29.3677 19.862C29.4617 19.6456 29.556 19.4296 29.6501 19.2134C29.9095 18.6192 30.1668 18.0242 30.4243 17.4291C30.5038 17.2451 30.5038 17.2451 30.5851 17.0574C31.139 15.7757 31.6812 14.4892 32.2214 13.202C32.4147 12.7419 32.6079 12.2818 32.8012 11.8217C32.8736 11.6493 32.8736 11.6493 32.9474 11.4735C33.6269 9.85712 34.3124 8.24357 34.9997 6.63039C35.1008 6.39337 35.2017 6.15635 35.3027 5.91915C35.3512 5.80529 35.3999 5.69124 35.4498 5.57385C35.7405 4.89051 36.0273 4.20569 36.311 3.51938C36.3762 3.36292 36.4413 3.20645 36.5085 3.04515C36.6232 2.76869 36.7372 2.49168 36.8496 2.21429C37.3542 1.00482 37.9553 0.0426047 39.3963 0.0165587Z" fill="url(#paint0_linear_149_45)"/>
<defs>
<linearGradient id="paint0_linear_149_45" x1="0" y1="37.5" x2="79" y2="37.5" gradientUnits="userSpaceOnUse">
<stop stop-color="#F9C5F2"/>
<stop offset="1" stop-color="#0E39FE"/>
</linearGradient>
</defs>
</svg>
