<svg width="28" height="28" viewBox="0 0 28 28" fill="none" xmlns="http://www.w3.org/2000/svg">
<path d="M13.5397 0.505961C13.5866 0.504019 13.6334 0.502009 13.6817 0.5C13.9305 0.550767 14.1537 0.685054 14.3017 0.905537C14.3536 1.0133 14.3973 1.12153 14.439 1.23405C14.4553 1.27477 14.4716 1.31549 14.4884 1.35742C14.5222 1.44241 14.5556 1.52761 14.5884 1.613C14.6344 1.73248 14.682 1.8511 14.7303 1.96958C14.8252 2.20258 14.9182 2.43646 15.011 2.67041C15.0456 2.75707 15.08 2.84374 15.1146 2.93034C15.1859 3.1095 15.2573 3.28873 15.3286 3.46789C15.4976 3.89278 15.6671 4.31747 15.8367 4.74203C15.8614 4.80364 15.8614 4.80364 15.8864 4.86653C16.1618 5.55605 16.4402 6.24422 16.7207 6.93152C16.8645 7.28455 17.0069 7.63798 17.1442 7.99382C17.1564 8.02537 17.1686 8.05691 17.1812 8.08939C17.2375 8.23473 17.2934 8.38014 17.3484 8.52601C17.5312 9.00709 17.5312 9.00709 17.9176 9.306C18.0492 9.33172 18.1784 9.35242 18.311 9.36983C18.3546 9.37559 18.3982 9.38142 18.443 9.38745C19.0508 9.4644 19.6613 9.51376 20.2713 9.56774C20.8964 9.62313 21.5211 9.68294 22.1458 9.74409C23.0064 9.82821 23.8672 9.91032 24.7282 9.99069C24.7812 9.99565 24.8342 10.0006 24.8889 10.0058C25.04 10.0198 25.1911 10.034 25.3422 10.048C25.3862 10.0521 25.4301 10.0562 25.4754 10.0604C25.5175 10.0644 25.5595 10.0683 25.6028 10.0723C25.6436 10.0762 25.6845 10.08 25.7265 10.084C25.8158 10.0918 25.9052 10.0988 25.9946 10.105C26.0412 10.1084 26.0879 10.1119 26.1359 10.1153C26.1779 10.1181 26.2199 10.1209 26.2632 10.1237C26.5128 10.1603 26.728 10.2668 26.9051 10.4553C27.0437 10.6562 27.0748 10.84 27.0752 11.0845C27.0044 11.4364 26.8262 11.6529 26.5652 11.8737C26.5358 11.8995 26.5064 11.9252 26.4761 11.9518C26.4158 12.0045 26.3554 12.057 26.2948 12.1092C26.1912 12.1985 26.0889 12.2892 25.9867 12.3802C25.9166 12.4427 25.8461 12.5048 25.7757 12.567C25.6215 12.7033 25.4685 12.8413 25.3156 12.9791C25.0961 13.1767 24.8739 13.3699 24.6492 13.5609C24.4749 13.7113 24.3041 13.8658 24.133 14.0203C23.9731 14.1643 23.8115 14.3055 23.6476 14.4444C23.4909 14.5774 23.3394 14.7141 23.1904 14.8564C23.0517 14.9886 22.9111 15.115 22.7637 15.2365C22.5702 15.3961 22.3839 15.5631 22.1984 15.7326C22.0077 15.907 21.8162 16.0794 21.6194 16.2461C21.3902 16.4404 21.1676 16.6419 20.9455 16.8448C20.9189 16.8691 20.8923 16.8935 20.8648 16.9186C20.839 16.9421 20.8132 16.9657 20.7867 16.99C20.713 17.0563 20.6381 17.1206 20.5628 17.1848C20.4074 17.3238 20.328 17.4469 20.2991 17.6619C20.2893 17.9009 20.3364 18.1068 20.401 18.3344C20.4582 18.5488 20.5037 18.7651 20.5498 18.9822C20.6204 19.3123 20.6943 19.641 20.7742 19.9687C20.8576 20.3116 20.9325 20.6558 21.0042 21.0016C21.146 21.6832 21.3059 22.3601 21.466 23.0372C21.567 23.4649 21.6649 23.8929 21.7548 24.3233C21.8326 24.6942 21.9183 25.0631 22.0045 25.432C22.0204 25.5005 22.0363 25.5689 22.0522 25.6373C22.1246 25.9507 22.1246 25.9507 22.1995 26.2633C22.2655 26.5511 22.2563 26.8269 22.1098 27.083C21.961 27.2869 21.7931 27.4039 21.5528 27.4572C21.2563 27.4915 21.0639 27.438 20.8131 27.2745C20.7826 27.2556 20.7522 27.2367 20.7208 27.2173C20.628 27.1591 20.5361 27.0996 20.4445 27.0394C20.4177 27.0218 20.3909 27.0043 20.3632 26.9861C20.2347 26.9013 20.1071 26.8151 19.9801 26.7281C19.8203 26.6188 19.6589 26.5125 19.4969 26.4069C19.4679 26.388 19.4389 26.3691 19.409 26.3496C19.3458 26.3083 19.2827 26.2671 19.2195 26.226C19.1041 26.1505 18.9887 26.0749 18.8735 25.9993C18.3551 25.6592 17.8351 25.3219 17.3138 24.9867C16.9917 24.7795 16.6715 24.5694 16.3524 24.3573C16.0914 24.1841 15.8284 24.0147 15.5645 23.8466C15.3414 23.7045 15.1191 23.5609 14.8973 23.4164C14.7782 23.339 14.6588 23.262 14.5393 23.1851C14.4138 23.1042 14.2894 23.0221 14.1666 22.9367C14.1225 22.9071 14.0784 22.8774 14.0329 22.8469C13.9976 22.8222 13.9623 22.7975 13.9259 22.772C13.6895 22.6821 13.4394 22.67 13.2017 22.7636C13.0969 22.8229 12.9987 22.8878 12.8997 22.9572C12.8622 22.982 12.8247 23.0069 12.7862 23.0325C12.7056 23.0861 12.6252 23.1401 12.5452 23.1946C12.3757 23.3094 12.2041 23.4206 12.0326 23.5321C11.852 23.6495 11.6719 23.768 11.4918 23.8864C10.8023 24.3399 10.1109 24.7897 9.41714 25.2361C9.05142 25.4714 8.68646 25.7081 8.32157 25.9449C8.2067 26.0195 8.09176 26.094 7.97689 26.1685C7.93832 26.1935 7.89976 26.2185 7.86004 26.2442C7.78265 26.2943 7.70532 26.3444 7.62793 26.3945C7.42754 26.5243 7.22747 26.6545 7.02792 26.7855C6.98666 26.8125 6.94547 26.8395 6.90301 26.8672C6.82504 26.9183 6.7472 26.9695 6.66943 27.0208C5.86897 27.5437 5.86897 27.5437 5.50446 27.4572C5.30542 27.3647 5.12428 27.2434 5.01683 27.0394C5.01683 27.0088 5.01683 26.9782 5.01683 26.9466C4.98753 26.9466 4.9583 26.9466 4.92818 26.9466C4.90592 26.5331 4.94116 26.1855 5.04574 25.7871C5.11987 25.5046 5.18223 25.219 5.24549 24.9336C5.26576 24.8422 5.28616 24.7509 5.30663 24.6595C5.37014 24.3745 5.43174 24.0899 5.48169 23.8019C5.50446 23.697 5.50446 23.697 5.54693 23.5646C5.59547 23.4111 5.63033 23.2589 5.66346 23.1009C5.6698 23.0711 5.67613 23.0411 5.68265 23.0103C5.70945 22.8841 5.73593 22.7578 5.76241 22.6314C5.83456 22.2878 5.90907 21.945 5.99337 21.6044C6.00674 21.5501 6.0201 21.4959 6.03385 21.44C6.27191 20.6439 6.83764 20.0838 7.50775 19.6756C7.58719 19.6265 7.66662 19.5774 7.74606 19.5282C7.80638 19.4911 7.80638 19.4911 7.86797 19.4532C8.05153 19.3399 8.23401 19.2249 8.41655 19.1099C8.49017 19.0636 8.56379 19.0174 8.63734 18.9712C8.69433 18.9353 8.69433 18.9353 8.75241 18.8988C11.0895 17.4305 11.0895 17.4305 11.2008 17.3606C11.2747 17.3141 11.3486 17.2676 11.4225 17.2212C11.6093 17.1038 11.7962 16.9866 11.9833 16.8696C12.1679 16.7541 12.3523 16.6381 12.5365 16.5217C12.6065 16.4775 12.6767 16.4333 12.7469 16.3893C12.8452 16.3275 12.9431 16.2652 13.041 16.2027C13.07 16.1846 13.0989 16.1666 13.1287 16.148C13.2973 16.0392 13.4244 15.9362 13.5287 15.7587C13.5715 15.5108 13.5694 15.2779 13.4511 15.0566C13.0911 14.7424 12.5154 14.8697 12.0765 14.9103C11.9833 14.9194 11.8902 14.9287 11.7971 14.938C11.7292 14.9445 11.6614 14.9511 11.5935 14.9576C11.4496 14.9715 11.3058 14.9855 11.1618 14.9997C10.9349 15.0221 10.7079 15.044 10.4809 15.0658C9.77915 15.1335 9.07764 15.203 8.37626 15.2752C8.18534 15.2948 7.99435 15.3142 7.80343 15.3335C7.59927 15.3543 7.39531 15.3759 7.19127 15.3976C6.67467 15.4512 6.16222 15.4907 5.64287 15.492C5.59739 15.4921 5.55185 15.4923 5.50503 15.4924C5.18172 15.4893 4.90848 15.4513 4.61785 15.2945C4.56815 15.269 4.51852 15.2436 4.46735 15.2175C4.13162 15.0364 3.86248 14.8123 3.5918 14.5387C3.47405 14.4213 3.35342 14.3132 3.22691 14.2065C3.03938 14.0482 2.8553 13.8865 2.67276 13.7219C2.61993 13.6743 2.5671 13.6268 2.51427 13.5792C2.47506 13.5439 2.47506 13.5439 2.43509 13.5079C2.1403 13.243 1.84403 12.9801 1.54227 12.7238C1.25714 12.4807 0.980255 12.228 0.703628 11.9745C0.63679 11.9138 0.569184 11.854 0.501514 11.7943C0.276631 11.5942 0.120761 11.4469 0.0793152 11.1277C0.0621739 10.8298 0.0932577 10.6402 0.273433 10.4071C0.524092 10.181 0.743219 10.1121 1.065 10.0877C1.10267 10.0843 1.14028 10.0808 1.17911 10.0772C1.30197 10.066 1.42484 10.0559 1.54783 10.0458C1.63386 10.0382 1.71989 10.0305 1.80591 10.0227C2.02274 10.0033 2.23963 9.98467 2.45658 9.96632C2.63758 9.95084 2.81859 9.93457 2.99953 9.91816C3.06464 9.91227 3.12975 9.90637 3.1948 9.90048C3.242 9.89626 3.242 9.89626 3.29017 9.89191C3.38515 9.88333 3.48019 9.8749 3.5753 9.86646C3.99782 9.82908 4.42008 9.7889 4.84228 9.74697C5.28629 9.7029 5.73036 9.6599 6.17469 9.61912C6.26635 9.61061 6.35794 9.60204 6.44959 9.59346C6.78155 9.56252 7.1135 9.53312 7.44577 9.50586C7.62761 9.49086 7.80938 9.47518 7.99109 9.45951C8.08006 9.45201 8.16897 9.44478 8.25793 9.43781C8.38304 9.42797 8.50802 9.41718 8.63306 9.40627C8.67009 9.40359 8.70706 9.40091 8.74524 9.39816C9.05941 9.36903 9.2866 9.26856 9.53099 9.05967C9.64119 8.91668 9.69742 8.77676 9.7514 8.6047C9.77385 8.53793 9.79655 8.47116 9.81939 8.40445C9.83723 8.35214 9.83723 8.35214 9.85546 8.29883C9.91974 8.11759 9.99265 7.94037 10.0659 7.76296C10.0812 7.72578 10.0965 7.68861 10.1123 7.6503C10.1444 7.57241 10.1766 7.49465 10.2088 7.41683C10.2974 7.20291 10.3854 6.98872 10.4734 6.77446C10.5006 6.70823 10.5006 6.70823 10.5283 6.64065C10.7176 6.17925 10.9029 5.71612 11.0876 5.25272C11.1537 5.08708 11.2197 4.92145 11.2857 4.75582C11.3105 4.69374 11.3105 4.69374 11.3357 4.63045C11.5679 4.04856 11.8022 3.46768 12.0371 2.88694C12.0717 2.80161 12.1061 2.71629 12.1407 2.63089C12.1572 2.5899 12.1739 2.54885 12.191 2.50659C12.2903 2.26059 12.3883 2.01405 12.4853 1.76698C12.5076 1.71065 12.5298 1.65432 12.5528 1.59626C12.592 1.49673 12.6309 1.397 12.6694 1.29714C12.8418 0.861735 13.0472 0.515338 13.5397 0.505961Z" fill="white"/>
</svg>
