<svg width="39" height="37" viewBox="0 0 39 37" fill="none" xmlns="http://www.w3.org/2000/svg">
<path d="M19.4488 0.00816894C19.5165 0.00550729 19.5841 0.00275344 19.6539 0C20.0133 0.0695702 20.3356 0.253592 20.5494 0.555736C20.6243 0.703412 20.6874 0.85173 20.7477 1.00592C20.7713 1.06173 20.7948 1.11753 20.8191 1.17498C20.8679 1.29145 20.9161 1.4082 20.9635 1.52522C21.03 1.68896 21.0987 1.8515 21.1685 2.01386C21.3056 2.33317 21.4399 2.65367 21.574 2.97426C21.6238 3.09303 21.6736 3.21179 21.7235 3.33047C21.8266 3.57598 21.9297 3.82159 22.0327 4.0671C22.2768 4.64936 22.5217 5.23135 22.7667 5.81315C22.8022 5.89759 22.8022 5.89759 22.8385 5.98377C23.2363 6.92866 23.6383 7.87171 24.0435 8.81357C24.2512 9.29735 24.4569 9.78168 24.6552 10.2693C24.6729 10.3125 24.6905 10.3558 24.7087 10.4003C24.79 10.5994 24.8707 10.7987 24.9501 10.9986C25.2143 11.6579 25.2143 11.6579 25.7724 12.0675C25.9624 12.1027 26.149 12.1311 26.3406 12.155C26.4036 12.1628 26.4666 12.1708 26.5313 12.1791C27.4093 12.2846 28.2911 12.3522 29.1721 12.4262C30.0751 12.5021 30.9774 12.584 31.8798 12.6678C33.1229 12.7831 34.3663 12.8956 35.6099 13.0058C35.6865 13.0126 35.7631 13.0194 35.842 13.0264C36.0603 13.0457 36.2786 13.0651 36.4968 13.0843C36.5604 13.0899 36.6238 13.0955 36.6892 13.1013C36.7499 13.1067 36.8106 13.1121 36.8732 13.1176C36.9322 13.1229 36.9911 13.1281 37.0519 13.1336C37.1809 13.1444 37.31 13.1539 37.4391 13.1624C37.5065 13.1671 37.5739 13.1718 37.6433 13.1766C37.7039 13.1803 37.7645 13.1842 37.8271 13.188C38.1876 13.2382 38.4984 13.3842 38.7543 13.6425C38.9545 13.9177 38.9994 14.1696 39 14.5047C38.8977 14.9869 38.6403 15.2836 38.2633 15.5862C38.2208 15.6215 38.1784 15.6568 38.1346 15.6932C38.0476 15.7654 37.9603 15.8373 37.8727 15.9089C37.7231 16.0312 37.5754 16.1556 37.4278 16.2802C37.3264 16.3659 37.2247 16.4511 37.1229 16.5362C36.9001 16.7231 36.6793 16.9122 36.4584 17.101C36.1414 17.3718 35.8203 17.6366 35.4958 17.8983C35.244 18.1044 34.9973 18.3161 34.7501 18.5278C34.5193 18.7252 34.2858 18.9186 34.049 19.1089C33.8228 19.2912 33.6039 19.4786 33.3886 19.6736C33.1882 19.8548 32.9852 20.0279 32.7722 20.1944C32.4928 20.4132 32.2237 20.642 31.9558 20.8744C31.6803 21.1133 31.4037 21.3495 31.1193 21.578C30.7884 21.8443 30.4668 22.1204 30.146 22.3985C30.1075 22.4318 30.0691 22.4652 30.0295 22.4995C29.9922 22.5318 29.9549 22.5641 29.9166 22.5975C29.8102 22.6883 29.702 22.7764 29.5932 22.8644C29.3688 23.0549 29.2541 23.2236 29.2123 23.5181C29.1982 23.8457 29.2662 24.1278 29.3596 24.4398C29.4421 24.7335 29.5078 25.0299 29.5744 25.3275C29.6764 25.7798 29.7832 26.2303 29.8986 26.6793C30.019 27.1493 30.1272 27.6209 30.2309 28.0948C30.4357 29.0288 30.6666 29.9564 30.8979 30.8843C31.0437 31.4704 31.1851 32.0569 31.315 32.6467C31.4274 33.1551 31.5512 33.6606 31.6756 34.1661C31.6986 34.2599 31.7216 34.3537 31.7445 34.4474C31.8491 34.8769 31.8491 34.8769 31.9574 35.3053C32.0527 35.6997 32.0394 36.0775 31.8278 36.4285C31.6129 36.708 31.3704 36.8683 31.0233 36.9414C30.5949 36.9884 30.3171 36.9151 29.9547 36.6909C29.9107 36.665 29.8668 36.6392 29.8215 36.6125C29.6874 36.5329 29.5547 36.4513 29.4224 36.3689C29.3836 36.3447 29.3449 36.3207 29.3049 36.2958C29.1194 36.1796 28.935 36.0615 28.7515 35.9422C28.5208 35.7924 28.2876 35.6468 28.0536 35.5021C28.0117 35.4761 27.9698 35.4502 27.9266 35.4235C27.8354 35.367 27.7442 35.3105 27.6529 35.2541C27.4861 35.1507 27.3196 35.0471 27.1531 34.9435C26.4043 34.4774 25.6532 34.0151 24.9002 33.5559C24.435 33.2719 23.9724 32.984 23.5115 32.6933C23.1346 32.4561 22.7547 32.2238 22.3734 31.9935C22.0511 31.7987 21.7301 31.6019 21.4097 31.404C21.2377 31.2979 21.0652 31.1923 20.8926 31.0869C20.7113 30.9761 20.5317 30.8636 20.3543 30.7465C20.2906 30.706 20.2269 30.6653 20.1612 30.6235C20.1102 30.5897 20.0592 30.5558 20.0066 30.5208C19.6651 30.3978 19.3038 30.3811 18.9605 30.5094C18.8091 30.5906 18.6673 30.6795 18.5243 30.7746C18.4701 30.8087 18.416 30.8428 18.3603 30.8779C18.2439 30.9513 18.1278 31.0254 18.0123 31.1C17.7674 31.2574 17.5196 31.4097 17.2718 31.5625C17.0109 31.7234 16.7508 31.8858 16.4907 32.0481C15.4947 32.6694 14.4959 33.2859 13.4939 33.8976C12.9657 34.2201 12.4385 34.5444 11.9114 34.869C11.7455 34.9711 11.5795 35.0733 11.4136 35.1753C11.3579 35.2096 11.3021 35.2438 11.2448 35.2791C11.133 35.3478 11.0213 35.4165 10.9095 35.4851C10.6201 35.6629 10.3311 35.8414 10.0428 36.0209C9.98323 36.0579 9.92374 36.0948 9.86239 36.1329C9.74977 36.2028 9.63734 36.273 9.525 36.3433C8.36878 37.0599 8.36878 37.0599 7.84227 36.9414C7.55476 36.8146 7.29312 36.6483 7.13791 36.3689C7.13791 36.3268 7.13791 36.2849 7.13791 36.2417C7.0956 36.2417 7.05338 36.2417 7.00987 36.2417C6.97772 35.675 7.02862 35.1987 7.17967 34.6527C7.28675 34.2655 7.37683 33.8742 7.4682 33.4831C7.49748 33.3579 7.52695 33.2327 7.55652 33.1075C7.64826 32.7169 7.73723 32.3269 7.80938 31.9322C7.84227 31.7885 7.84227 31.7885 7.90361 31.6071C7.97374 31.3967 8.02409 31.1881 8.07194 30.9717C8.08109 30.9307 8.09023 30.8897 8.09966 30.8475C8.13837 30.6745 8.17662 30.5014 8.21487 30.3283C8.31908 29.8573 8.42671 29.3876 8.54847 28.9208C8.56778 28.8465 8.58709 28.7721 8.60695 28.6956C8.95082 27.6046 9.76797 26.837 10.7359 26.2777C10.8507 26.2104 10.9654 26.1431 11.0801 26.0757C11.1673 26.0248 11.1673 26.0248 11.2562 25.9729C11.5214 25.8177 11.785 25.66 12.0486 25.5024C12.155 25.439 12.2613 25.3757 12.3675 25.3123C12.4499 25.2632 12.4499 25.2632 12.5337 25.2132C15.9096 23.201 15.9096 23.201 16.0703 23.1053C16.177 23.0416 16.2838 22.9779 16.3906 22.9143C16.6604 22.7534 16.9303 22.5927 17.2006 22.4324C17.4673 22.2741 17.7336 22.1152 17.9996 21.9557C18.1008 21.8951 18.2021 21.8346 18.3036 21.7743C18.4456 21.6896 18.587 21.6041 18.7284 21.5185C18.7702 21.4937 18.812 21.469 18.855 21.4435C19.0986 21.2944 19.2821 21.1534 19.4328 20.9101C19.4946 20.5704 19.4917 20.2512 19.3207 19.9479C18.8007 19.5174 17.9692 19.6918 17.3352 19.7475C17.2007 19.7599 17.0661 19.7726 16.9316 19.7854C16.8336 19.7944 16.7356 19.8034 16.6376 19.8123C16.4297 19.8313 16.2219 19.8504 16.014 19.87C15.6863 19.9006 15.3584 19.9307 15.0305 19.9606C14.0168 20.0534 13.0035 20.1486 11.9904 20.2475C11.7147 20.2744 11.4388 20.3009 11.163 20.3274C10.8681 20.3559 10.5735 20.3854 10.2788 20.4153C9.53257 20.4887 8.79237 20.5427 8.04219 20.5446C7.97651 20.5448 7.91073 20.545 7.8431 20.5451C7.37609 20.5409 6.98141 20.4889 6.56161 20.2739C6.48982 20.239 6.41813 20.2043 6.34422 20.1684C5.85929 19.9202 5.47052 19.6132 5.07954 19.2382C4.90946 19.0774 4.73522 18.9292 4.55248 18.7829C4.2816 18.5661 4.01571 18.3444 3.75204 18.1189C3.67573 18.0537 3.59942 17.9886 3.52311 17.9234C3.46647 17.8749 3.46647 17.8749 3.40873 17.8257C2.98292 17.4626 2.55499 17.1023 2.11911 16.7512C1.70725 16.418 1.30731 16.0717 0.907736 15.7243C0.811192 15.6411 0.713539 15.5591 0.615794 15.4773C0.290963 15.2031 0.0658174 15.0014 0.00595094 14.5638C-0.0188087 14.1557 0.0260901 13.8959 0.286343 13.5764C0.648406 13.2666 0.964923 13.1721 1.42972 13.1388C1.48414 13.134 1.53846 13.1292 1.59454 13.1243C1.77201 13.1089 1.94949 13.0952 2.12715 13.0813C2.25141 13.0708 2.37567 13.0603 2.49993 13.0496C2.81312 13.023 3.1264 12.9975 3.43977 12.9724C3.70123 12.9512 3.96268 12.9289 4.22404 12.9064C4.31809 12.8983 4.41214 12.8902 4.5061 12.8821C4.57428 12.8764 4.57428 12.8764 4.64385 12.8704C4.78104 12.8586 4.91833 12.8471 5.05571 12.8355C5.66601 12.7843 6.27595 12.7292 6.88579 12.6718C7.52714 12.6114 8.16858 12.5525 8.81039 12.4966C8.94278 12.4849 9.07508 12.4732 9.20747 12.4614C9.68695 12.419 10.1664 12.3787 10.6464 12.3414C10.909 12.3208 11.1716 12.2993 11.4341 12.2779C11.5626 12.2676 11.691 12.2577 11.8195 12.2481C12.0002 12.2346 12.1807 12.2198 12.3614 12.2049C12.4148 12.2012 12.4682 12.1975 12.5234 12.1938C12.9772 12.1539 13.3054 12.0162 13.6584 11.7299C13.8176 11.534 13.8988 11.3422 13.9767 11.1064C14.0092 11.0149 14.042 10.9234 14.0749 10.832C14.1007 10.7603 14.1007 10.7603 14.127 10.6873C14.2199 10.4389 14.3252 10.1961 14.431 9.95294C14.4531 9.902 14.4753 9.85106 14.498 9.79856C14.5444 9.69182 14.5909 9.58526 14.6374 9.47861C14.7654 9.18547 14.8925 8.89195 15.0196 8.59834C15.0589 8.50757 15.0589 8.50757 15.099 8.41496C15.3724 7.78268 15.6401 7.14801 15.9068 6.51298C16.0022 6.28601 16.0976 6.05903 16.193 5.83205C16.2288 5.74697 16.2288 5.74697 16.2652 5.66024C16.6006 4.86285 16.939 4.06683 17.2784 3.27099C17.3282 3.15406 17.378 3.03713 17.4279 2.92011C17.4519 2.86394 17.4759 2.80768 17.5005 2.74977C17.644 2.41265 17.7856 2.07481 17.9257 1.73623C17.9579 1.65904 17.99 1.58185 18.0232 1.50228C18.0798 1.36589 18.1361 1.22923 18.1916 1.09238C18.4407 0.495711 18.7374 0.0210183 19.4488 0.00816894Z" fill="#F2C1F2"/>
</svg>
