<svg width="96" height="95" viewBox="0 0 96 95" fill="none" xmlns="http://www.w3.org/2000/svg">
<path d="M30.8911 18.9055H22.3366C29.4653 12.7612 38.0198 9.45274 47.5248 9.45274C48.9505 9.45274 50.3762 9.45274 51.802 9.92537C54.1782 10.398 56.5545 8.50746 57.0297 5.67164C57.505 3.30846 55.604 0.945273 52.7525 0.472636C50.8515 -4.57784e-07 49.4257 0 47.5248 0C36.1188 0 25.1881 4.25373 16.6337 11.3433V4.72637C16.6337 1.89055 14.7327 0 11.8812 0C9.0297 0 7.12871 1.89055 7.12871 4.72637V23.6318C7.12871 26.4677 9.0297 28.3582 11.8812 28.3582H30.8911C33.7426 28.3582 35.6436 26.4677 35.6436 23.6318C35.6436 20.796 33.7426 18.9055 30.8911 18.9055ZM23.7624 59.0796C20.9109 59.0796 19.0099 60.9701 19.0099 63.806V72.3134C12.8317 65.2239 9.50495 56.7164 9.50495 47.2637C9.50495 45.8458 9.50495 44.4279 9.9802 43.0099C10.4554 40.6468 8.55446 38.2836 5.70297 37.8109C3.32673 37.3383 0.950495 39.2289 0.475247 42.0647C-4.60313e-07 43.9552 0 45.3731 0 47.2637C0 58.607 4.27723 69.4776 11.4059 77.9851H4.75248C1.90099 77.9851 0 79.8756 0 82.7114C0 85.5473 1.90099 87.4378 4.75248 87.4378H23.7624C25.1881 87.4378 26.6139 86.4925 27.5644 85.5473C27.5644 85.0746 28.0396 84.602 28.0396 84.1293C28.0396 83.6567 28.0396 83.6567 28.0396 83.1841V82.7114V63.806C28.5149 60.9701 26.6139 59.0796 23.7624 59.0796ZM90.297 16.5423C93.1485 16.5423 95.0495 14.6517 95.0495 11.8159C95.0495 8.9801 93.1485 7.08955 90.297 7.08955H71.2871C70.8119 7.08955 70.8119 7.08955 70.3366 7.08955C69.8614 7.08955 69.3861 7.56219 68.9109 7.56219C68.4356 8.03483 67.9604 8.03483 67.9604 8.50746C67.9604 8.9801 67.4852 9.45274 67.4852 9.45274C67.4852 9.92537 67.4852 9.92537 67.4852 10.398V10.8706V29.7761C67.4852 32.6119 69.3861 34.5025 72.2376 34.5025C75.0891 34.5025 76.9901 32.6119 76.9901 29.7761V22.2139C83.1683 28.8308 86.4951 37.8109 86.4951 47.2637C86.4951 48.6816 86.495 50.0995 86.0198 51.5174C85.5446 53.8806 87.4455 56.2438 90.297 56.7164H90.7723C93.1485 56.7164 95.0495 54.8259 95.5248 52.4627C95.5248 50.5721 96 49.1542 96 47.2637C96 35.9204 91.7228 25.0497 84.5941 16.5423H90.297ZM86.9703 68.5323C86.495 68.0597 86.0198 67.5871 85.5446 67.1144C85.0693 66.6418 84.5941 66.6418 84.1188 66.6418H83.6436H83.1683H64.1584C61.3069 66.6418 59.4059 68.5323 59.4059 71.3682C59.4059 74.204 61.3069 76.0945 64.1584 76.0945H72.7129C66.0594 82.2388 57.0297 85.5473 47.5248 85.5473C46.099 85.5473 44.6733 85.5473 43.2475 85.0746C40.8713 84.602 38.495 86.4925 38.0198 89.3284C37.5446 92.1642 39.4455 94.0547 42.297 94.5274C44.198 94.5274 45.6238 95 47.5248 95C58.9307 95 69.8614 90.7463 78.4158 83.6567V89.801C78.4158 92.6368 80.3168 94.5274 83.1683 94.5274C86.0198 94.5274 87.9208 92.6368 87.9208 89.801V70.8955C87.9208 69.9502 87.4455 69.005 86.9703 68.5323Z" fill="url(#paint0_linear_149_85)"/>
<defs>
<linearGradient id="paint0_linear_149_85" x1="0" y1="47.5" x2="96" y2="47.5" gradientUnits="userSpaceOnUse">
<stop stop-color="#F9C5F2"/>
<stop offset="1" stop-color="#0E39FE"/>
</linearGradient>
</defs>
</svg>
