<svg width="117" height="111" viewBox="0 0 117 111" fill="none" xmlns="http://www.w3.org/2000/svg">
<path d="M58.3464 0.0245068C58.5495 0.0165219 58.7524 0.00826031 58.9617 0C60.0398 0.208711 61.0068 0.760777 61.6482 1.66721C61.8729 2.11024 62.0622 2.55519 62.2432 3.01777C62.3139 3.18518 62.3843 3.35259 62.4572 3.52495C62.6038 3.87436 62.7482 4.2246 62.8904 4.57566C63.09 5.06688 63.2962 5.55451 63.5054 6.04159C63.9167 6.99951 64.3197 7.96101 64.7219 8.92279C64.8715 9.27908 65.0209 9.63538 65.1706 9.9914C65.4799 10.7279 65.7892 11.4648 66.098 12.2013C66.8305 13.9481 67.565 15.694 68.3 17.4394C68.4067 17.6928 68.4067 17.6928 68.5154 17.9513C69.7088 20.786 70.915 23.6151 72.1304 26.4407C72.7537 27.892 73.3706 29.345 73.9657 30.8079C74.0186 30.9376 74.0716 31.0673 74.1262 31.2008C74.3701 31.7983 74.612 32.3961 74.8504 32.9958C75.6428 34.9736 75.6428 34.9736 77.3171 36.2025C77.8872 36.3082 78.4471 36.3933 79.0219 36.4649C79.2107 36.4885 79.3997 36.5125 79.594 36.5373C82.2278 36.8537 84.8733 37.0566 87.5163 37.2785C90.2253 37.5062 92.9323 37.7521 95.6393 38.0035C99.3688 38.3493 103.099 38.6869 106.83 39.0173C107.059 39.0377 107.289 39.0581 107.526 39.0793C108.181 39.1371 108.836 39.1952 109.49 39.253C109.681 39.2698 109.871 39.2866 110.068 39.3039C110.25 39.3202 110.432 39.3362 110.62 39.3527C110.797 39.3686 110.973 39.3843 111.156 39.4009C111.543 39.4331 111.93 39.4617 112.317 39.4873C112.519 39.5014 112.722 39.5154 112.93 39.5297C113.112 39.541 113.294 39.5526 113.481 39.5641C114.563 39.7145 115.495 40.1525 116.263 40.9274C116.864 41.7531 116.998 42.5089 117 43.5142C116.693 44.9606 115.921 45.8508 114.79 46.7586C114.662 46.8646 114.535 46.9703 114.404 47.0796C114.143 47.2963 113.881 47.5119 113.618 47.7267C113.169 48.0937 112.726 48.4668 112.283 48.8407C111.979 49.0976 111.674 49.3532 111.369 49.6087C110.7 50.1693 110.038 50.7365 109.375 51.3031C108.424 52.1154 107.461 52.9098 106.487 53.6948C105.732 54.3132 104.992 54.9484 104.25 55.5834C103.558 56.1756 102.857 56.7558 102.147 57.3268C101.468 57.8737 100.812 58.4359 100.166 59.0207C99.5647 59.5643 98.9555 60.0838 98.3167 60.5833C97.4783 61.2395 96.6712 61.9259 95.8674 62.6231C95.0409 63.3398 94.2111 64.0485 93.358 64.7341C92.3652 65.5329 91.4004 66.3611 90.4381 67.1954C90.3226 67.2954 90.2073 67.3956 90.0884 67.4986C89.9767 67.5955 89.8647 67.6924 89.7497 67.7924C89.4307 68.065 89.1061 68.3293 88.7796 68.5931C88.1064 69.1647 87.7622 69.6708 87.6369 70.5544C87.5945 71.537 87.7985 72.3835 88.0787 73.3194C88.3262 74.2004 88.5235 75.0898 88.7234 75.9825C89.0291 77.3394 89.3495 78.6908 89.6959 80.038C90.057 81.4478 90.3816 82.8628 90.6926 84.2844C91.307 87.0865 91.9999 89.8692 92.6937 92.6529C93.131 94.4112 93.5554 96.1707 93.945 97.94C94.2821 99.4652 94.6535 100.982 95.0268 102.498C95.0958 102.78 95.1648 103.061 95.2336 103.342C95.5473 104.631 95.5473 104.631 95.8721 105.916C96.1582 107.099 96.1182 108.233 95.4833 109.286C94.8386 110.124 94.1111 110.605 93.0698 110.824C91.7846 110.965 90.9512 110.745 89.8641 110.073C89.7322 109.995 89.6003 109.917 89.4645 109.838C89.0623 109.599 88.664 109.354 88.2671 109.107C88.1507 109.034 88.0346 108.962 87.9146 108.887C87.3581 108.539 86.8051 108.184 86.2544 107.827C85.5623 107.377 84.8628 106.94 84.1607 106.506C84.0352 106.428 83.9094 106.351 83.7799 106.271C83.5061 106.101 83.2325 105.932 82.9587 105.762C82.4584 105.452 81.9587 105.141 81.4593 104.831C79.2129 103.432 76.9596 102.045 74.7005 100.668C73.305 99.8157 71.9172 98.9519 70.5345 98.0799C69.4037 97.3681 68.264 96.6715 67.1201 95.9804C66.1534 95.3961 65.1903 94.8058 64.2291 94.2119C63.713 93.8936 63.1956 93.5769 62.6778 93.2608C62.1338 92.9282 61.595 92.5907 61.0628 92.2396C60.8718 92.1179 60.6806 91.9959 60.4835 91.8706C60.3306 91.769 60.1776 91.6674 60.0199 91.5625C58.9952 91.1933 57.9115 91.1432 56.8816 91.5281C56.4273 91.7718 56.0019 92.0386 55.5728 92.3238C55.4104 92.426 55.248 92.5284 55.0809 92.6336C54.7317 92.8539 54.3835 93.0761 54.0368 93.2999C53.3023 93.7721 52.5587 94.2292 51.8154 94.6874C51.0327 95.1703 50.2525 95.6574 49.472 96.1442C46.4842 98.0083 43.4878 99.8578 40.4818 101.693C38.897 102.66 37.3155 103.633 35.7343 104.607C35.2365 104.913 34.7385 105.22 34.2407 105.526C34.0736 105.629 33.9064 105.731 33.7343 105.837C33.399 106.043 33.0639 106.249 32.7285 106.455C31.8602 106.989 30.9932 107.524 30.1285 108.063C29.9497 108.174 29.7712 108.284 29.5872 108.399C29.2493 108.608 28.912 108.819 28.575 109.03C25.1063 111.18 25.1063 111.18 23.5268 110.824C22.6643 110.444 21.8794 109.945 21.4137 109.107C21.4137 108.98 21.4137 108.855 21.4137 108.725C21.2868 108.725 21.1601 108.725 21.0296 108.725C20.9331 107.025 21.0859 105.596 21.539 103.958C21.8603 102.797 22.1305 101.622 22.4046 100.449C22.4925 100.074 22.5809 99.6981 22.6696 99.3225C22.9448 98.1507 23.2117 96.9807 23.4281 95.7967C23.5268 95.3656 23.5268 95.3656 23.7108 94.8212C23.9212 94.1901 24.0723 93.5643 24.2158 92.915C24.2433 92.7922 24.2707 92.6691 24.299 92.5425C24.4151 92.0234 24.5299 91.5041 24.6446 90.9848C24.9572 89.5721 25.2801 88.1628 25.6454 86.7625C25.7033 86.5394 25.7613 86.3164 25.8209 86.0867C26.8524 82.8137 29.3039 80.511 32.2077 78.8331C32.552 78.6313 32.8962 78.4292 33.2404 78.2271C33.5018 78.0745 33.5018 78.0745 33.7687 77.9187C34.5641 77.4531 35.3549 76.98 36.1459 76.5073C36.4649 76.317 36.7839 76.127 37.1026 75.937C37.3496 75.7897 37.3496 75.7897 37.6012 75.6397C47.7287 69.603 47.7287 69.603 48.2109 69.3158C48.531 69.1248 48.8514 68.9337 49.1718 68.7429C49.9811 68.2602 50.791 67.7781 51.6017 67.2973C52.4019 66.8223 53.2009 66.3457 53.9988 65.8672C54.3023 65.6852 54.6064 65.5037 54.9107 65.3228C55.3367 65.0687 55.761 64.8123 56.1851 64.5554C56.3106 64.4811 56.4359 64.407 56.5651 64.3305C57.2957 63.8833 57.8464 63.4601 58.2984 62.7302C58.4838 61.7111 58.475 60.7535 57.9622 59.8437C56.4021 58.5521 53.9077 59.0753 52.0055 59.2424C51.602 59.2796 51.1984 59.3178 50.7949 59.3561C50.5008 59.3831 50.2067 59.4101 49.9127 59.4368C49.2891 59.4938 48.6657 59.5513 48.0421 59.61C47.0588 59.7019 46.0751 59.792 45.0915 59.8817C42.0505 60.1601 39.0106 60.4456 35.9713 60.7425C35.144 60.8231 34.3164 60.9027 33.489 60.9823C32.6043 61.0676 31.7205 61.1563 30.8363 61.2458C28.5977 61.4661 26.3771 61.6283 24.1266 61.6338C23.9295 61.6343 23.7322 61.6349 23.5293 61.6354C22.1283 61.6227 20.9442 61.4666 19.6848 60.8218C19.4695 60.7171 19.2544 60.6128 19.0327 60.5051C17.5779 59.7606 16.4116 58.8396 15.2386 57.7145C14.7284 57.2321 14.2057 56.7877 13.6574 56.3488C12.8448 55.6982 12.0471 55.0332 11.2561 54.3567C11.0272 54.1612 10.7983 53.9657 10.5693 53.7702C10.3994 53.6248 10.3994 53.6248 10.2262 53.477C8.94877 52.3877 7.66496 51.307 6.35733 50.2535C5.12175 49.254 3.92192 48.2152 2.72321 47.173C2.43358 46.9233 2.14062 46.6774 1.84738 46.432C0.87289 45.6093 0.197452 45.0041 0.0178528 43.6915C-0.056426 42.4671 0.0782704 41.6876 0.859029 40.7291C1.94522 39.7998 2.89477 39.5162 4.28916 39.4163C4.45241 39.402 4.61537 39.3876 4.78361 39.3728C5.31603 39.3268 5.84846 39.2855 6.38144 39.2439C6.75422 39.2125 7.127 39.1809 7.49978 39.1489C8.43935 39.0691 9.3792 38.9925 10.3193 38.9171C11.1037 38.8535 11.888 38.7866 12.6721 38.7191C12.9543 38.6949 13.2364 38.6706 13.5183 38.6464C13.7228 38.6291 13.7228 38.6291 13.9315 38.6112C14.3431 38.5759 14.755 38.5412 15.1671 38.5065C16.998 38.3529 18.8278 38.1877 20.6574 38.0153C22.5814 37.8342 24.5057 37.6574 26.4312 37.4897C26.8283 37.4547 27.2252 37.4195 27.6224 37.3842C29.0609 37.257 30.4993 37.1362 31.9392 37.0241C32.7271 36.9624 33.5148 36.898 34.3022 36.8335C34.6878 36.8027 35.073 36.773 35.4585 36.7443C36.0007 36.7039 36.5422 36.6595 37.0841 36.6147C37.2445 36.6036 37.4047 36.5926 37.5702 36.5813C38.9316 36.4616 39.9161 36.0485 40.9751 35.1897C41.4527 34.6019 41.6963 34.0267 41.9302 33.3193C42.0275 33.0448 42.1259 32.7703 42.2248 32.4961C42.3022 32.281 42.3022 32.281 42.3811 32.0618C42.6597 31.3168 42.9757 30.5882 43.293 29.8588C43.3592 29.706 43.4258 29.5532 43.4939 29.3957C43.6331 29.0755 43.7728 28.7558 43.9122 28.4358C44.2963 27.5564 44.6774 26.6758 45.0588 25.795C45.1766 25.5227 45.1766 25.5227 45.2969 25.2449C46.1173 23.348 46.9202 21.444 47.7203 19.5389C48.0067 18.858 48.2927 18.1771 48.579 17.4962C48.6862 17.2409 48.6862 17.2409 48.7955 16.9807C49.8018 14.5885 50.8171 12.2005 51.8351 9.81298C51.9847 9.46219 52.1341 9.1114 52.2838 8.76034C52.3556 8.59183 52.4276 8.42304 52.5016 8.2493C52.9321 7.23796 53.3569 6.22442 53.7771 5.20868C53.8736 4.97711 53.97 4.74555 54.0695 4.50683C54.2394 4.09767 54.4082 3.68768 54.5748 3.27714C55.322 1.48713 56.2122 0.0630549 58.3464 0.0245068Z" fill="url(#paint0_linear_149_89)"/>
<defs>
<linearGradient id="paint0_linear_149_89" x1="0" y1="55.5" x2="117" y2="55.5" gradientUnits="userSpaceOnUse">
<stop stop-color="#F9C5F2"/>
<stop offset="1" stop-color="#0E39FE"/>
</linearGradient>
</defs>
</svg>
