<svg width="582" height="581" viewBox="0 0 582 581" fill="none" xmlns="http://www.w3.org/2000/svg">
<path d="M321.028 580.926H321.034C321.034 580.953 321.035 580.981 321.035 581.008H431.496C431.497 580.845 431.503 580.681 431.503 580.519C431.503 550.012 406.772 525.281 376.265 525.281C371.165 525.281 366.225 525.976 361.536 527.27V332.36H321.028V580.926Z" fill="white"/>
<mask id="mask0_42_32" style="mask-type:luminance" maskUnits="userSpaceOnUse" x="321" y="332" width="111" height="250">
<path d="M321.028 580.926H321.034C321.034 580.953 321.035 580.981 321.035 581.008H431.496C431.497 580.845 431.503 580.681 431.503 580.519C431.503 550.012 406.772 525.281 376.265 525.281C371.165 525.281 366.225 525.976 361.536 527.27V332.36H321.028V580.926Z" fill="white"/>
</mask>
<g mask="url(#mask0_42_32)">
<path d="M321.028 580.926V584.89H317.064V580.926H321.028ZM321.034 580.926V576.962H324.939L324.998 580.866L321.034 580.926ZM321.035 581.008V584.972H317.105L317.071 581.042L321.035 581.008ZM431.496 581.008L435.46 581.042L435.426 584.972H431.496V581.008ZM361.535 527.27L362.59 531.092L357.57 532.477V527.27H361.535ZM361.535 332.36V328.396H365.499V332.36H361.535ZM321.028 332.36H317.064V328.396H321.028V332.36ZM321.028 580.926V576.962H321.034V580.926V584.89H321.028V580.926ZM321.034 580.926L324.998 580.866C324.998 580.866 324.998 580.867 324.998 580.869C324.998 580.869 324.998 580.87 324.998 580.873C324.998 580.876 324.998 580.878 324.998 580.881C324.998 580.884 324.998 580.888 324.998 580.893C324.998 580.908 324.999 580.938 324.999 580.973L321.035 581.008L317.071 581.042C317.071 581.049 317.071 581.052 317.071 581.041C317.071 581.038 317.071 581.035 317.071 581.033C317.071 581.029 317.071 581.025 317.071 581.02C317.07 581.011 317.07 580.999 317.07 580.986L321.034 580.926ZM321.035 581.008V577.043H431.496V581.008V584.972H321.035V581.008ZM431.496 581.008L427.532 580.973C427.535 580.628 427.539 580.716 427.539 580.519H431.503H435.467C435.467 580.639 435.464 580.753 435.463 580.836C435.461 580.93 435.46 580.985 435.46 581.042L431.496 581.008ZM431.503 580.519H427.539C427.539 552.203 404.582 529.247 376.265 529.246V525.282V521.318C408.961 521.318 435.467 547.823 435.467 580.519H431.503ZM376.265 525.282V529.246C371.525 529.246 366.94 529.891 362.59 531.092L361.535 527.27L360.481 523.449C365.509 522.061 370.802 521.318 376.265 521.318V525.282ZM361.535 527.27H357.57V332.36H361.535H365.499V527.27H361.535ZM361.535 332.36V336.324H321.028V332.36V328.396H361.535V332.36ZM321.028 332.36H324.992V580.926H321.028H317.064V332.36H321.028Z" fill="black"/>
</g>
<path d="M234.493 580.926H234.499C234.5 580.953 234.5 580.981 234.5 581.008H344.961C344.963 580.845 344.968 580.681 344.968 580.519C344.968 550.012 320.237 525.281 289.731 525.281C284.63 525.281 279.689 525.977 274.999 527.271V332.36H234.493V580.926Z" fill="white"/>
<mask id="mask1_42_32" style="mask-type:luminance" maskUnits="userSpaceOnUse" x="234" y="332" width="111" height="250">
<path d="M234.493 580.926H234.499C234.5 580.953 234.5 580.981 234.5 581.008H344.961C344.962 580.845 344.968 580.681 344.968 580.519C344.968 550.012 320.237 525.281 289.731 525.281C284.63 525.281 279.689 525.977 274.999 527.271V332.36H234.493V580.926Z" fill="white"/>
</mask>
<g mask="url(#mask1_42_32)">
<path d="M234.493 580.926V584.89H230.528V580.926H234.493ZM234.499 580.926V576.962H238.404L238.463 580.866L234.499 580.926ZM234.5 581.008V584.972H230.57L230.536 581.042L234.5 581.008ZM344.961 581.008L348.925 581.042L348.891 584.972H344.961V581.008ZM274.999 527.271L276.054 531.093L271.035 532.479V527.271H274.999ZM274.999 332.36V328.396H278.963V332.36H274.999ZM234.493 332.36H230.528V328.396H234.493V332.36ZM234.493 580.926V576.962H234.499V580.926V584.89H234.493V580.926ZM234.499 580.926L238.463 580.866C238.463 580.866 238.463 580.867 238.463 580.869C238.463 580.869 238.463 580.87 238.463 580.873C238.463 580.876 238.463 580.878 238.463 580.881C238.463 580.884 238.464 580.888 238.464 580.893C238.464 580.908 238.464 580.938 238.464 580.973L234.5 581.008L230.536 581.042C230.536 581.049 230.536 581.052 230.536 581.041C230.536 581.038 230.536 581.035 230.536 581.033C230.536 581.029 230.536 581.025 230.536 581.02C230.536 581.011 230.536 580.999 230.536 580.986L234.499 580.926ZM234.5 581.008V577.043H344.961V581.008V584.972H234.5V581.008ZM344.961 581.008L340.997 580.973C341 580.628 341.004 580.716 341.004 580.519H344.968H348.932C348.932 580.639 348.931 580.753 348.929 580.836C348.926 580.93 348.926 580.985 348.925 581.042L344.961 581.008ZM344.968 580.519H341.004C341.004 552.203 318.048 529.247 289.731 529.246V525.282V521.318C322.426 521.318 348.932 547.823 348.932 580.519H344.968ZM289.731 525.282V529.246C284.991 529.246 280.406 529.892 276.054 531.093L274.999 527.271L273.944 523.451C278.973 522.062 284.268 521.318 289.731 521.318V525.282ZM274.999 527.271H271.035V332.36H274.999H278.963V527.271H274.999ZM274.999 332.36V336.324H234.493V332.36V328.396H274.999V332.36ZM234.493 332.36H238.457V580.926H234.493H230.528V332.36H234.493Z" fill="black"/>
</g>
<path d="M100.349 323.081C107.484 330.216 119.053 330.216 126.189 323.081C133.324 315.946 133.324 304.377 126.189 297.241L41.5625 212.615C34.4271 205.48 22.8583 205.48 15.7229 212.615C8.5875 219.751 8.58751 231.319 15.7229 238.455L100.349 323.081Z" fill="white"/>
<path d="M101.75 321.679C108.112 328.04 118.426 328.041 124.787 321.68C131.149 315.319 131.149 305.004 124.787 298.642L40.1615 214.017C33.8001 207.655 23.485 207.655 17.1237 214.017C10.7626 220.378 10.7633 230.692 17.1246 237.053L101.75 321.679ZM14.3213 239.857C6.41191 231.947 6.41215 219.124 14.3213 211.214C22.2308 203.305 35.0544 203.305 42.9639 211.214L127.59 295.84C135.499 303.749 135.499 316.573 127.59 324.482C119.68 332.392 106.856 332.392 98.9469 324.482L14.3213 239.857Z" fill="black"/>
<path d="M449.831 288.709C441.912 294.964 440.565 306.454 446.82 314.372C453.076 322.291 464.566 323.638 472.484 317.383L566.393 243.193C574.311 236.937 575.659 225.447 569.404 217.529C563.148 209.611 551.658 208.263 543.74 214.518L449.831 288.709Z" fill="white"/>
<path d="M449.546 291.404C442.487 296.981 441.285 307.225 446.861 314.284C452.438 321.343 462.683 322.545 469.742 316.968L563.651 242.778C570.71 237.201 571.912 226.956 566.335 219.897C560.758 212.838 550.514 211.637 543.455 217.214L449.546 291.404ZM540.997 214.103C549.774 207.169 562.511 208.663 569.445 217.44C576.379 226.217 574.885 238.954 566.108 245.888L472.199 320.078C463.422 327.012 450.686 325.518 443.751 316.741C436.818 307.963 438.311 295.227 447.088 288.293L540.997 214.103Z" fill="black"/>
<mask id="mask2_42_32" style="mask-type:luminance" maskUnits="userSpaceOnUse" x="57" y="0" width="490" height="467">
<path d="M301.045 0.103853C301.892 0.0696927 302.741 0.0355268 303.614 0C308.118 0.877239 312.155 3.19878 314.834 7.00834C315.772 8.87213 316.563 10.7428 317.32 12.6872C317.614 13.3909 317.909 14.0946 318.213 14.8201C318.825 16.2877 319.429 17.7607 320.023 19.2364C320.857 21.3011 321.716 23.352 322.591 25.3989C324.31 29.4271 325.992 33.469 327.672 37.5122C328.297 39.0098 328.921 40.5074 329.546 42.005C330.838 45.1013 332.13 48.1976 333.419 51.2952C336.477 58.6383 339.545 65.9774 342.615 73.3164C343.061 74.3808 343.061 74.3808 343.515 75.4685C348.499 87.385 353.537 99.2796 358.613 111.158C361.216 117.259 363.792 123.367 366.278 129.517C366.499 130.062 366.72 130.609 366.949 131.17C367.968 133.682 368.978 136.195 369.972 138.716C373.283 147.03 373.283 147.03 380.275 152.195C382.657 152.641 384.995 152.999 387.396 153.3C388.184 153.399 388.972 153.5 389.785 153.604C400.784 154.934 411.834 155.788 422.872 156.721C434.186 157.678 445.493 158.71 456.797 159.768C472.373 161.222 487.951 162.64 503.534 164.03C504.493 164.116 505.454 164.202 506.443 164.29C509.177 164.534 511.912 164.777 514.647 165.021C515.442 165.092 516.238 165.163 517.057 165.235C517.818 165.303 518.578 165.37 519.363 165.44C520.102 165.507 520.841 165.574 521.602 165.642C523.219 165.779 524.835 165.898 526.453 166.006C527.297 166.065 528.142 166.123 529.012 166.185C529.772 166.233 530.53 166.28 531.313 166.33C535.832 166.961 539.726 168.803 542.932 172.06C545.441 175.531 546.004 178.709 546.01 182.936C544.729 189.016 541.504 192.757 536.78 196.575C536.247 197.021 535.716 197.465 535.168 197.924C534.078 198.835 532.983 199.743 531.886 200.644C530.011 202.187 528.161 203.756 526.312 205.328C525.041 206.408 523.767 207.482 522.492 208.557C519.7 210.913 516.933 213.297 514.165 215.68C510.194 219.095 506.17 222.435 502.105 225.735C498.95 228.335 495.858 231.005 492.763 233.675C489.869 236.164 486.943 238.603 483.977 241.004C481.143 243.304 478.4 245.666 475.703 248.125C473.193 250.411 470.647 252.594 467.98 254.694C464.478 257.453 461.108 260.339 457.75 263.269C454.298 266.282 450.833 269.262 447.269 272.145C443.123 275.502 439.094 278.985 435.075 282.493C434.593 282.912 434.111 283.333 433.615 283.766C433.147 284.173 432.68 284.582 432.199 285.001C430.867 286.146 429.511 287.259 428.149 288.367C425.337 290.772 423.899 292.898 423.375 296.613C423.198 300.744 424.051 304.302 425.221 308.237C426.254 311.94 427.079 315.68 427.914 319.432C429.19 325.137 430.528 330.819 431.975 336.483C433.483 342.409 434.839 348.358 436.137 354.333C438.704 366.115 441.599 377.812 444.495 389.516C446.321 396.908 448.094 404.305 449.722 411.743C451.129 418.154 452.68 424.53 454.241 430.907C454.528 432.089 454.816 433.273 455.103 434.454C456.413 439.87 456.413 439.87 457.77 445.274C458.964 450.247 458.799 455.014 456.145 459.439C453.454 462.965 450.415 464.987 446.067 465.908C440.698 466.501 437.218 465.577 432.677 462.749C432.127 462.424 431.576 462.097 431.009 461.761C429.328 460.755 427.667 459.728 426.008 458.688C425.523 458.383 425.036 458.08 424.536 457.767C422.21 456.301 419.903 454.811 417.602 453.307C414.712 451.417 411.789 449.582 408.858 447.757C408.333 447.429 407.808 447.102 407.267 446.764C406.124 446.053 404.98 445.341 403.838 444.627C401.748 443.325 399.662 442.018 397.575 440.71C388.192 434.833 378.783 429.002 369.347 423.21C363.519 419.627 357.723 415.997 351.947 412.332C347.224 409.338 342.465 406.41 337.688 403.505C333.649 401.048 329.628 398.567 325.613 396.07C323.457 394.731 321.297 393.401 319.135 392.072C316.863 390.673 314.612 389.253 312.39 387.778C311.591 387.267 310.793 386.754 309.97 386.227C309.331 385.799 308.691 385.373 308.033 384.933C303.755 383.381 299.228 383.169 294.926 384.788C293.03 385.811 291.252 386.933 289.461 388.133C288.783 388.562 288.104 388.992 287.405 389.435C285.947 390.362 284.494 391.295 283.045 392.236C279.978 394.222 276.872 396.143 273.767 398.068C270.499 400.1 267.24 402.147 263.981 404.194C251.503 412.03 238.988 419.805 226.433 427.519C219.814 431.586 213.209 435.679 206.605 439.771C204.526 441.06 202.447 442.347 200.368 443.634C199.669 444.067 198.971 444.499 198.252 444.944C196.852 445.811 195.451 446.676 194.052 447.542C190.426 449.784 186.805 452.035 183.192 454.3C182.447 454.766 181.701 455.232 180.933 455.712C179.521 456.593 178.111 457.479 176.704 458.367C162.217 467.403 162.217 467.403 155.622 465.908C152.018 464.309 148.74 462.212 146.796 458.688C146.796 458.158 146.796 457.629 146.796 457.082C146.266 457.082 145.737 457.082 145.19 457.082C144.789 449.936 145.425 443.928 147.319 437.044C148.661 432.16 149.788 427.225 150.933 422.292C151.301 420.712 151.67 419.134 152.04 417.556C153.191 412.629 154.304 407.71 155.209 402.732C155.622 400.92 155.622 400.92 156.389 398.631C157.268 395.979 157.899 393.347 158.498 390.617C158.613 390.101 158.727 389.584 158.846 389.053C159.331 386.87 159.81 384.687 160.289 382.503C161.596 376.564 162.944 370.639 164.469 364.752C164.711 363.815 164.953 362.878 165.201 361.911C169.51 348.152 179.748 338.471 191.877 331.417C193.314 330.569 194.752 329.719 196.189 328.869C197.281 328.228 197.281 328.228 198.396 327.573C201.718 325.615 205.02 323.627 208.324 321.639C209.656 320.84 210.989 320.04 212.321 319.241C213.351 318.623 213.351 318.623 214.403 317.992C256.699 292.614 256.699 292.614 258.713 291.406C260.051 290.602 261.389 289.8 262.727 288.997C266.107 286.968 269.489 284.941 272.875 282.92C276.217 280.924 279.554 278.92 282.887 276.908C284.155 276.143 285.424 275.379 286.695 274.619C288.474 273.551 290.246 272.474 292.018 271.393C292.542 271.08 293.065 270.769 293.605 270.448C296.656 268.568 298.956 266.789 300.844 263.721C301.619 259.436 301.582 255.41 299.439 251.586C292.924 246.156 282.505 248.354 274.561 249.058C272.876 249.214 271.192 249.375 269.505 249.535C268.278 249.648 267.05 249.762 265.822 249.874C263.217 250.114 260.613 250.356 258.008 250.602C253.902 250.99 249.793 251.367 245.686 251.746C232.985 252.915 220.288 254.116 207.596 255.364C204.14 255.703 200.683 256.038 197.228 256.372C193.534 256.73 189.842 257.103 186.15 257.479C176.8 258.406 167.526 259.087 158.125 259.111C157.302 259.112 156.48 259.115 155.631 259.117C149.78 259.064 144.835 258.408 139.574 255.697C138.675 255.257 137.778 254.817 136.851 254.365C130.775 251.235 125.905 247.364 121.005 242.634C118.875 240.605 116.691 238.737 114.401 236.893C111.007 234.157 107.675 231.361 104.373 228.518C103.416 227.695 102.46 226.874 101.505 226.052C100.796 225.441 100.796 225.441 100.071 224.819C94.7355 220.24 89.3737 215.697 83.9121 211.268C78.7525 207.067 73.7419 202.698 68.7353 198.317C67.526 197.267 66.3017 196.234 65.0761 195.202C61.0069 191.742 58.1852 189.199 57.4351 183.682C57.1263 178.533 57.6878 175.256 60.9495 171.227C65.486 167.32 69.4513 166.127 75.275 165.707C75.9568 165.646 76.6373 165.586 77.3396 165.525C79.5628 165.332 81.7873 165.157 84.0132 164.984C85.5695 164.851 87.1273 164.719 88.6836 164.583C92.6079 164.247 96.5337 163.926 100.459 163.609C103.736 163.341 107.011 163.06 110.287 162.777C111.464 162.674 112.642 162.573 113.822 162.471C114.674 162.397 114.674 162.397 115.546 162.322C117.266 162.174 118.987 162.028 120.706 161.883C128.353 161.237 135.996 160.543 143.637 159.819C151.673 159.056 159.71 158.314 167.751 157.608C169.409 157.462 171.068 157.314 172.725 157.165C178.733 156.629 184.743 156.121 190.755 155.651C194.045 155.391 197.335 155.121 200.624 154.85C202.234 154.719 203.844 154.595 205.453 154.475C207.717 154.305 209.98 154.118 212.242 153.929C212.913 153.883 213.582 153.836 214.272 153.79C219.959 153.286 224.071 151.549 228.494 147.939C230.487 145.469 231.505 143.05 232.482 140.077C232.89 138.922 233.299 137.767 233.712 136.616C234.036 135.711 234.036 135.711 234.365 134.789C235.529 131.657 236.848 128.595 238.174 125.527C238.451 124.885 238.728 124.243 239.014 123.58C239.595 122.235 240.177 120.889 240.76 119.546C242.364 115.849 243.956 112.146 245.548 108.444C246.041 107.299 246.041 107.299 246.544 106.131C249.97 98.1564 253.323 90.152 256.665 82.1421C257.861 79.2794 259.055 76.4168 260.251 73.5541C260.699 72.4815 260.699 72.4815 261.155 71.3884C265.357 61.3315 269.598 51.2911 273.849 41.2548C274.475 39.7791 275.1 38.3047 275.724 36.829C276.025 36.1198 276.324 35.4106 276.634 34.681C278.431 30.4287 280.206 26.1682 281.96 21.8982C282.363 20.9239 282.766 19.951 283.182 18.9481C283.892 17.2264 284.596 15.5033 285.292 13.7776C288.413 6.25134 292.131 0.26509 301.045 0.103853Z" fill="white"/>
</mask>
<g mask="url(#mask2_42_32)">
<path d="M301.045 0.103853C301.892 0.0696927 302.741 0.0355268 303.614 0C308.118 0.877239 312.155 3.19878 314.834 7.00834C315.772 8.87213 316.563 10.7428 317.32 12.6872C317.614 13.3909 317.909 14.0946 318.213 14.8201C318.825 16.2877 319.429 17.7607 320.023 19.2364C320.857 21.3011 321.716 23.352 322.591 25.3989C324.31 29.4271 325.992 33.469 327.672 37.5122C328.297 39.0098 328.921 40.5074 329.546 42.005C330.838 45.1013 332.13 48.1976 333.419 51.2952C336.477 58.6383 339.545 65.9774 342.615 73.3164C343.061 74.3808 343.061 74.3808 343.515 75.4685C348.499 87.385 353.537 99.2796 358.613 111.158C361.216 117.259 363.792 123.367 366.278 129.517C366.499 130.062 366.72 130.609 366.949 131.17C367.968 133.682 368.978 136.195 369.972 138.716C373.283 147.03 373.283 147.03 380.275 152.195C382.657 152.641 384.995 152.999 387.396 153.3C388.184 153.399 388.972 153.5 389.785 153.604C400.784 154.934 411.834 155.788 422.872 156.721C434.186 157.678 445.493 158.71 456.797 159.768C472.373 161.222 487.951 162.64 503.534 164.03C504.493 164.116 505.454 164.202 506.443 164.29C509.177 164.534 511.912 164.777 514.647 165.021C515.442 165.092 516.238 165.163 517.057 165.235C517.818 165.303 518.578 165.37 519.363 165.44C520.102 165.507 520.841 165.574 521.602 165.642C523.219 165.779 524.835 165.898 526.453 166.006C527.297 166.065 528.142 166.123 529.012 166.185C529.772 166.233 530.53 166.28 531.313 166.33C535.832 166.961 539.726 168.803 542.932 172.06C545.441 175.531 546.004 178.709 546.01 182.936C544.729 189.016 541.504 192.757 536.78 196.575C536.247 197.021 535.716 197.465 535.168 197.924C534.078 198.835 532.983 199.743 531.886 200.644C530.011 202.187 528.161 203.756 526.312 205.328C525.041 206.408 523.767 207.482 522.492 208.557C519.7 210.913 516.933 213.297 514.165 215.68C510.194 219.095 506.17 222.435 502.105 225.735C498.95 228.335 495.858 231.005 492.763 233.675C489.869 236.164 486.943 238.603 483.977 241.004C481.143 243.304 478.4 245.666 475.703 248.125C473.193 250.411 470.647 252.594 467.98 254.694C464.478 257.453 461.108 260.339 457.75 263.269C454.298 266.282 450.833 269.262 447.269 272.145C443.123 275.502 439.094 278.985 435.075 282.493C434.593 282.912 434.111 283.333 433.615 283.766C433.147 284.173 432.68 284.582 432.199 285.001C430.867 286.146 429.511 287.259 428.149 288.367C425.337 290.772 423.899 292.898 423.375 296.613C423.198 300.744 424.051 304.302 425.221 308.237C426.254 311.94 427.079 315.68 427.914 319.432C429.19 325.137 430.528 330.819 431.975 336.483C433.483 342.409 434.839 348.358 436.137 354.333C438.704 366.115 441.599 377.812 444.495 389.516C446.321 396.908 448.094 404.305 449.722 411.743C451.129 418.154 452.68 424.53 454.241 430.907C454.528 432.089 454.816 433.273 455.103 434.454C456.413 439.87 456.413 439.87 457.77 445.274C458.964 450.247 458.799 455.014 456.145 459.439C453.454 462.965 450.415 464.987 446.067 465.908C440.698 466.501 437.218 465.577 432.677 462.749C432.127 462.424 431.576 462.097 431.009 461.761C429.328 460.755 427.667 459.728 426.008 458.688C425.523 458.383 425.036 458.08 424.536 457.767C422.21 456.301 419.903 454.811 417.602 453.307C414.712 451.417 411.789 449.582 408.858 447.757C408.333 447.429 407.808 447.102 407.267 446.764C406.124 446.053 404.98 445.341 403.838 444.627C401.748 443.325 399.662 442.018 397.575 440.71C388.192 434.833 378.783 429.002 369.347 423.21C363.519 419.627 357.723 415.997 351.947 412.332C347.224 409.338 342.465 406.41 337.688 403.505C333.649 401.048 329.628 398.567 325.613 396.07C323.457 394.731 321.297 393.401 319.135 392.072C316.863 390.673 314.612 389.253 312.39 387.778C311.591 387.267 310.793 386.754 309.97 386.227C309.331 385.799 308.691 385.373 308.033 384.933C303.755 383.381 299.228 383.169 294.926 384.788C293.03 385.811 291.252 386.933 289.461 388.133C288.783 388.562 288.104 388.992 287.405 389.435C285.947 390.362 284.494 391.295 283.045 392.236C279.978 394.222 276.872 396.143 273.767 398.068C270.499 400.1 267.24 402.147 263.981 404.194C251.503 412.03 238.988 419.805 226.433 427.519C219.814 431.586 213.209 435.679 206.605 439.771C204.526 441.06 202.447 442.347 200.368 443.634C199.669 444.067 198.971 444.499 198.252 444.944C196.852 445.811 195.451 446.676 194.052 447.542C190.426 449.784 186.805 452.035 183.192 454.3C182.447 454.766 181.701 455.232 180.933 455.712C179.521 456.593 178.111 457.479 176.704 458.367C162.217 467.403 162.217 467.403 155.622 465.908C152.018 464.309 148.74 462.212 146.796 458.688C146.796 458.158 146.796 457.629 146.796 457.082C146.266 457.082 145.737 457.082 145.19 457.082C144.789 449.936 145.425 443.928 147.319 437.044C148.661 432.16 149.788 427.225 150.933 422.292C151.301 420.712 151.67 419.134 152.04 417.556C153.191 412.629 154.304 407.71 155.209 402.732C155.622 400.92 155.622 400.92 156.389 398.631C157.268 395.979 157.899 393.347 158.498 390.617C158.613 390.101 158.727 389.584 158.846 389.053C159.331 386.87 159.81 384.687 160.289 382.503C161.596 376.564 162.944 370.639 164.469 364.752C164.711 363.815 164.953 362.878 165.201 361.911C169.51 348.152 179.748 338.471 191.877 331.417C193.314 330.569 194.752 329.719 196.189 328.869C197.281 328.228 197.281 328.228 198.396 327.573C201.718 325.615 205.02 323.627 208.324 321.639C209.656 320.84 210.989 320.04 212.321 319.241C213.351 318.623 213.351 318.623 214.403 317.992C256.699 292.614 256.699 292.614 258.713 291.406C260.051 290.602 261.389 289.8 262.727 288.997C266.107 286.968 269.489 284.941 272.875 282.92C276.217 280.924 279.554 278.92 282.887 276.908C284.155 276.143 285.424 275.379 286.695 274.619C288.474 273.551 290.246 272.474 292.018 271.393C292.542 271.08 293.065 270.769 293.605 270.448C296.656 268.568 298.956 266.789 300.844 263.721C301.619 259.436 301.582 255.41 299.439 251.586C292.924 246.156 282.505 248.354 274.561 249.058C272.876 249.214 271.192 249.375 269.505 249.535C268.278 249.648 267.05 249.762 265.822 249.874C263.217 250.114 260.613 250.356 258.008 250.602C253.902 250.99 249.793 251.367 245.686 251.746C232.985 252.915 220.288 254.116 207.596 255.364C204.14 255.703 200.683 256.038 197.228 256.372C193.534 256.73 189.842 257.103 186.15 257.479C176.8 258.406 167.526 259.087 158.125 259.111C157.302 259.112 156.48 259.115 155.631 259.117C149.78 259.064 144.835 258.408 139.574 255.697C138.675 255.257 137.778 254.817 136.851 254.365C130.775 251.235 125.905 247.364 121.005 242.634C118.875 240.605 116.691 238.737 114.401 236.893C111.007 234.157 107.675 231.361 104.373 228.518C103.416 227.695 102.46 226.874 101.505 226.052C100.796 225.441 100.796 225.441 100.071 224.819C94.7355 220.24 89.3737 215.697 83.9121 211.268C78.7525 207.067 73.7419 202.698 68.7353 198.317C67.526 197.267 66.3017 196.234 65.0761 195.202C61.0069 191.742 58.1852 189.199 57.4351 183.682C57.1263 178.533 57.6878 175.256 60.9495 171.227C65.486 167.32 69.4513 166.127 75.275 165.707C75.9568 165.646 76.6373 165.586 77.3396 165.525C79.5628 165.332 81.7873 165.157 84.0132 164.984C85.5695 164.851 87.1273 164.719 88.6836 164.583C92.6079 164.247 96.5337 163.926 100.459 163.609C103.736 163.341 107.011 163.06 110.287 162.777C111.464 162.674 112.642 162.573 113.822 162.471C114.674 162.397 114.674 162.397 115.546 162.322C117.266 162.174 118.987 162.028 120.706 161.883C128.353 161.237 135.996 160.543 143.637 159.819C151.673 159.056 159.71 158.314 167.751 157.608C169.409 157.462 171.068 157.314 172.725 157.165C178.733 156.629 184.743 156.121 190.755 155.651C194.045 155.391 197.335 155.121 200.624 154.85C202.234 154.719 203.844 154.595 205.453 154.475C207.717 154.305 209.98 154.118 212.242 153.929C212.913 153.883 213.582 153.836 214.272 153.79C219.959 153.286 224.071 151.549 228.494 147.939C230.487 145.469 231.505 143.05 232.482 140.077C232.89 138.922 233.299 137.767 233.712 136.616C234.036 135.711 234.036 135.711 234.365 134.789C235.529 131.657 236.848 128.595 238.174 125.527C238.451 124.885 238.728 124.243 239.014 123.58C239.595 122.235 240.177 120.889 240.76 119.546C242.364 115.849 243.956 112.146 245.548 108.444C246.041 107.299 246.041 107.299 246.544 106.131C249.97 98.1564 253.323 90.152 256.665 82.1421C257.861 79.2794 259.055 76.4168 260.251 73.5541C260.699 72.4815 260.699 72.4815 261.155 71.3884C265.357 61.3315 269.598 51.2911 273.849 41.2548C274.475 39.7791 275.1 38.3047 275.724 36.829C276.025 36.1198 276.324 35.4106 276.634 34.681C278.431 30.4287 280.206 26.1682 281.96 21.8982C282.363 20.9239 282.766 19.951 283.182 18.9481C283.892 17.2264 284.596 15.5033 285.292 13.7776C288.413 6.25134 292.131 0.26509 301.045 0.103853Z" fill="white"/>
<path d="M304.475 -4.42215C309.778 -3.38936 314.756 -0.657496 318.192 3.96449L318.52 4.41685L318.709 4.68773L318.858 4.9813C319.866 6.98374 320.703 8.96471 321.478 10.9514L322.37 13.0824L322.371 13.0864C322.99 14.5694 323.6 16.0582 324.2 17.5499L325.449 20.5897L326.734 23.6294C328.463 27.6797 330.153 31.7414 331.833 35.783C332.145 36.5303 332.456 37.2775 332.767 38.0248C333.079 38.773 333.392 39.521 333.704 40.2692L347.671 73.7304L351.415 82.6548C353.918 88.6018 356.434 94.5439 358.96 100.482L362.756 109.388L362.758 109.389C365.364 115.498 367.951 121.635 370.452 127.823L371.123 129.475C372.144 131.991 373.159 134.515 374.159 137.049L375.276 139.824C376.219 142.117 376.706 143.094 377.322 143.901C378.067 144.875 379.076 145.693 382.113 147.946C384.053 148.29 385.978 148.582 387.955 148.83H387.962C388.743 148.929 389.526 149.029 390.325 149.131C401.221 150.449 412.166 151.294 423.252 152.231C434.585 153.189 445.907 154.225 457.216 155.283L468.894 156.365C480.572 157.442 492.252 158.5 503.935 159.542H503.937C504.896 159.628 505.854 159.714 506.84 159.801L506.845 159.803C509.578 160.047 512.311 160.289 515.046 160.532L515.049 160.534C515.844 160.605 516.637 160.675 517.453 160.747H517.46C518.219 160.815 518.973 160.883 519.762 160.953H519.769C520.5 161.019 521.23 161.086 521.981 161.153C522.773 161.22 523.568 161.283 524.363 161.342L526.753 161.511L526.766 161.512C527.598 161.57 528.433 161.627 529.293 161.688L531.767 161.844L531.937 161.868C537.192 162.602 541.887 164.743 545.77 168.529L546.143 168.9L546.383 169.145L546.583 169.421C549.847 173.937 550.508 178.173 550.516 182.929L550.517 183.401L550.419 183.864C548.839 191.364 544.747 195.93 539.612 200.08C539.098 200.51 538.587 200.936 538.062 201.377L538.058 201.381C536.958 202.3 535.854 203.215 534.747 204.124C532.904 205.641 531.079 207.188 529.232 208.76L529.229 208.763C527.951 209.848 526.669 210.929 525.397 212.001L525.396 212C522.625 214.338 519.876 216.708 517.104 219.095L517.102 219.096C513.092 222.545 509.035 225.912 504.945 229.232C501.845 231.788 498.8 234.417 495.705 237.086L495.7 237.09C492.773 239.609 489.813 242.075 486.814 244.502C484.049 246.746 481.373 249.053 478.737 251.455C476.162 253.801 473.532 256.055 470.767 258.232C467.356 260.92 464.055 263.745 460.711 266.662C457.247 269.686 453.732 272.711 450.103 275.648C446.027 278.948 442.051 282.384 438.039 285.886L438.032 285.892C437.553 286.308 437.074 286.727 436.579 287.159L436.575 287.163C436.106 287.572 435.649 287.97 435.16 288.396L435.136 288.418C433.78 289.584 432.408 290.707 431.062 291.802C429.864 292.828 429.2 293.595 428.77 294.313C428.381 294.962 428.067 295.771 427.869 297.03C427.778 299.882 428.273 302.472 429.137 305.561L429.54 306.954L429.55 306.99L429.56 307.027C430.63 310.865 431.482 314.725 432.31 318.448C433.579 324.121 434.907 329.757 436.34 335.367L436.341 335.371C437.868 341.367 439.235 347.373 440.539 353.374L441.511 357.762C443.811 367.994 446.332 378.184 448.868 388.433L448.87 388.436C450.7 395.845 452.484 403.285 454.123 410.78C455.169 415.543 456.296 420.292 457.453 425.061L458.617 429.836L458.619 429.844L459.05 431.616C459.194 432.207 459.337 432.799 459.481 433.391L459.482 433.395C460.136 436.096 460.462 437.444 460.794 438.79L462.14 444.177L462.151 444.222C463.527 449.952 463.449 456.019 460.009 461.756L459.88 461.972L459.726 462.174C456.423 466.5 452.469 469.157 447 470.315L446.783 470.362L446.561 470.386C443.503 470.724 440.745 470.654 438.002 469.991C435.307 469.338 432.875 468.171 430.386 466.628L428.711 465.637L428.695 465.627C426.978 464.6 425.288 463.554 423.615 462.505L423.611 462.502C423.131 462.2 422.655 461.903 422.147 461.585L422.134 461.577C419.782 460.095 417.452 458.592 415.136 457.078C412.29 455.216 409.401 453.402 406.476 451.58L406.471 451.578C405.948 451.251 405.429 450.928 404.883 450.587C403.742 449.877 402.598 449.163 401.455 448.45C399.36 447.144 397.269 445.835 395.183 444.528C385.813 438.659 376.415 432.835 366.99 427.05L366.988 427.049C361.139 423.453 355.325 419.81 349.535 416.136C344.846 413.163 340.113 410.252 335.348 407.354C331.293 404.888 327.257 402.398 323.234 399.897C321.088 398.564 318.935 397.237 316.777 395.911L316.773 395.908C314.496 394.506 312.222 393.071 309.964 391.573C309.161 391.06 308.358 390.545 307.539 390.019L307.502 389.995L307.466 389.971C306.985 389.65 306.508 389.331 306.018 389.004C302.843 387.95 299.701 387.882 296.776 388.912C295.158 389.801 293.599 390.785 291.968 391.877L291.919 391.909L291.871 391.94C291.194 392.368 290.516 392.798 289.819 393.241L289.817 393.239C288.372 394.158 286.933 395.082 285.5 396.014L285.494 396.019C282.382 398.033 279.236 399.978 276.142 401.897C272.886 403.921 269.636 405.961 266.377 408.008C253.887 415.852 241.359 423.636 228.792 431.357L228.79 431.356C225.485 433.387 222.185 435.426 218.884 437.468L208.978 443.601C206.898 444.889 204.819 446.177 202.739 447.465C202.043 447.897 201.335 448.334 200.625 448.774L200.623 448.775C199.218 449.644 197.822 450.506 196.423 451.372L196.422 451.373C192.801 453.612 189.188 455.858 185.585 458.117L185.581 458.12L183.32 459.533C181.914 460.41 180.51 461.292 179.108 462.177L179.099 462.183L179.088 462.19C172.108 466.544 167.94 469.177 164.721 470.328C160.72 471.76 157.877 471.038 154.626 470.302L154.196 470.204L153.795 470.025C150.057 468.367 145.949 465.931 143.276 461.588H140.931L140.692 457.335C140.263 449.704 140.952 443.206 142.976 435.849C144.288 431.072 145.393 426.236 146.545 421.273V421.271C146.913 419.688 147.283 418.108 147.654 416.527C148.802 411.612 149.893 406.786 150.776 401.926L150.794 401.829L150.816 401.731C151.015 400.86 151.147 400.273 151.337 399.614C151.518 398.984 151.749 398.3 152.119 397.198C152.92 394.777 153.51 392.332 154.098 389.652L154.1 389.639C154.215 389.123 154.33 388.604 154.45 388.07C154.933 385.897 155.408 383.722 155.888 381.537L155.89 381.535C157.2 375.579 158.562 369.59 160.108 363.623C160.349 362.686 160.591 361.752 160.839 360.788L160.867 360.676L160.902 360.565C165.668 345.344 176.932 334.898 189.612 327.523C191.04 326.681 192.467 325.836 193.896 324.991L193.908 324.984C195 324.343 195 324.343 196.115 323.688C199.414 321.744 202.696 319.767 206.001 317.778L206.007 317.776C206.673 317.376 207.339 316.977 208.004 316.577C208.671 316.178 209.337 315.777 210.003 315.378L210.005 315.376C211.034 314.759 211.034 314.759 212.085 314.129C254.378 288.752 254.382 288.75 256.396 287.542L260.407 285.135L260.409 285.134C263.791 283.104 267.176 281.075 270.566 279.052C273.901 277.059 277.232 275.059 280.559 273.051L284.376 270.757L287.023 269.158C287.906 268.623 288.789 268.086 289.673 267.546L289.689 267.537L289.706 267.526C290.216 267.221 290.725 266.917 291.246 266.607C293.73 265.076 295.285 263.853 296.553 262.046C297.005 259.051 296.857 256.683 295.891 254.551C293.855 253.169 291.086 252.56 287.494 252.527C283.367 252.488 279.37 253.155 274.959 253.546L274.957 253.545C273.286 253.699 271.616 253.86 269.931 254.02L269.92 254.021C268.694 254.134 267.465 254.246 266.235 254.359L266.236 254.36L258.432 255.087C254.32 255.476 250.205 255.854 246.1 256.232C233.406 257.401 220.718 258.601 208.036 259.847C204.578 260.186 201.117 260.521 197.663 260.856C193.981 261.213 190.297 261.585 186.606 261.961L186.594 261.962C177.176 262.895 167.741 263.592 158.136 263.615H158.133C157.315 263.617 156.495 263.619 155.646 263.622H155.59C149.409 263.566 143.698 262.868 137.594 259.743C136.692 259.302 135.798 258.865 134.874 258.414L134.83 258.393L134.788 258.37C128.203 254.977 122.979 250.802 117.876 245.876C115.867 243.964 113.789 242.185 111.575 240.401C108.135 237.629 104.765 234.8 101.435 231.933C100.482 231.114 99.5206 230.289 98.5644 229.466C97.8573 228.857 97.8589 228.858 97.1366 228.238C91.813 223.67 86.4878 219.157 81.0746 214.767L81.0679 214.762C75.8421 210.506 70.7789 206.091 65.7798 201.717C64.6007 200.693 63.4012 199.681 62.1756 198.649L62.1663 198.641L62.1583 198.635C58.0456 195.138 53.9689 191.629 52.971 184.289L52.9483 184.12L52.9376 183.951C52.7723 181.194 52.8096 178.541 53.4927 175.905C54.1944 173.197 55.4971 170.802 57.4479 168.392L57.7027 168.077L58.0096 167.813C63.4386 163.138 68.3914 161.695 74.879 161.218C75.5598 161.158 76.2432 161.098 76.9473 161.037H76.9513C79.1919 160.843 81.4298 160.666 83.6513 160.492C85.2018 160.36 86.7487 160.229 88.2936 160.095H88.299C92.234 159.758 96.1682 159.435 100.096 159.118C103.36 158.851 106.625 158.571 109.899 158.288C111.061 158.187 112.275 158.083 113.432 157.982C114.285 157.909 114.287 157.908 115.159 157.833H115.162C116.883 157.685 118.605 157.539 120.326 157.394C127.955 156.749 135.582 156.057 143.212 155.334C151.254 154.571 159.301 153.827 167.355 153.12C169.01 152.974 170.667 152.827 172.321 152.678H172.325C178.346 152.141 184.371 151.631 190.401 151.16L200.256 150.36H200.258C201.88 150.228 203.5 150.102 205.117 149.981C207.36 149.814 209.606 149.628 211.867 149.44L211.899 149.437L211.93 149.434C212.571 149.39 213.216 149.346 213.88 149.301C218.471 148.893 221.673 147.598 225.271 144.745C226.593 143.007 227.358 141.24 228.203 138.67L228.218 138.624L228.234 138.578C228.643 137.417 229.055 136.256 229.471 135.096C229.794 134.194 229.793 134.194 230.122 133.274L230.133 133.247L230.142 133.219C231.353 129.961 232.718 126.795 234.038 123.741L234.876 121.796L234.878 121.794C235.459 120.449 236.042 119.1 236.627 117.753L241.41 106.664L241.411 106.662C241.904 105.517 241.904 105.517 242.406 104.349C245.821 96.3991 249.167 88.4144 252.508 80.4077C253.105 78.9769 253.704 77.5437 254.301 76.1123C254.898 74.6812 255.497 73.2485 256.094 71.8169C256.542 70.7451 256.542 70.745 256.998 69.6525C261.204 59.5855 265.45 49.5362 269.701 39.498V39.4953C270.326 38.0209 270.951 36.5478 271.575 35.0731L271.576 35.0704C271.872 34.3717 272.177 33.6489 272.487 32.9181C274.277 28.6828 276.045 24.4388 277.793 20.1853L277.797 20.176L279.019 17.2243C279.725 15.5145 280.423 13.8048 281.113 12.0936L281.121 12.0722L281.13 12.0522C282.728 8.19921 284.708 4.12467 287.794 1.00882C291.046 -2.27406 295.297 -4.27325 300.863 -4.39679C301.711 -4.43097 302.559 -4.46539 303.431 -4.50087L303.958 -4.52356L304.475 -4.42215ZM301.226 4.605L301.177 4.60767L301.126 4.609C297.828 4.66876 295.793 5.73633 294.197 7.34851C292.415 9.14757 290.976 11.83 289.453 15.503C288.758 17.2277 288.055 18.949 287.346 20.667L287.345 20.6724C286.93 21.6724 286.527 22.6397 286.126 23.6094L286.128 23.6107C284.368 27.8941 282.587 32.1682 280.785 36.4342L280.781 36.4435C280.471 37.171 280.177 37.8654 279.872 38.5839C279.248 40.0595 278.623 41.5342 277.997 43.0101L277.998 43.0114C274.811 50.5372 271.63 58.0628 268.468 65.5933L265.312 73.1246C264.856 74.2176 264.856 74.2189 264.408 75.2916C263.81 76.7219 263.213 78.1522 262.616 79.583C262.019 81.0136 261.42 82.4446 260.822 83.8758C257.479 91.8876 254.119 99.912 250.684 107.909L250.682 107.912C250.18 109.08 250.178 109.081 249.685 110.223L249.687 110.225C248.096 113.924 246.501 117.635 244.894 121.34L244.892 121.341C244.311 122.679 243.729 124.02 243.15 125.362L243.151 125.363C242.865 126.028 242.587 126.672 242.31 127.314C240.979 130.394 239.706 133.353 238.589 136.359L237.953 138.135C237.549 139.263 237.147 140.394 236.747 141.527C235.7 144.707 234.475 147.701 231.999 150.769L231.706 151.133L231.343 151.429C226.25 155.586 221.292 157.69 214.67 158.277L214.623 158.281L214.575 158.285C213.89 158.331 213.226 158.378 212.553 158.424L212.552 158.423C211.443 158.515 210.329 158.61 209.212 158.7L205.789 158.967C204.188 159.087 202.589 159.209 200.992 159.339L200.994 159.341C197.706 159.611 194.408 159.883 191.11 160.143H191.106C185.113 160.611 179.121 161.116 173.127 161.651L173.129 161.652C171.469 161.801 169.807 161.949 168.147 162.095L168.146 162.096C160.118 162.802 152.09 163.542 144.062 164.303C136.409 165.029 128.751 165.725 121.085 166.373C119.368 166.518 117.649 166.662 115.931 166.809L115.933 166.811C115.062 166.886 115.062 166.884 114.21 166.958L114.211 166.959C113.011 167.063 111.869 167.162 110.677 167.266H110.674C107.399 167.549 104.114 167.831 100.826 168.1H100.822C96.899 168.417 92.981 168.737 89.0676 169.073L89.0662 169.071C87.5078 169.207 85.9486 169.341 84.3959 169.473L84.3638 169.476C82.1387 169.649 79.9324 169.821 77.7319 170.012C77.0316 170.073 76.3529 170.135 75.6703 170.195L75.6356 170.197L75.5996 170.2C70.6252 170.56 67.6905 171.467 64.2079 174.374C63.0656 175.846 62.5111 177.02 62.2143 178.165C61.8874 179.427 61.7957 180.939 61.9234 183.225C62.4479 186.813 64.0243 188.393 67.9949 191.769C68.602 192.28 69.2138 192.796 69.8283 193.318L71.6898 194.917L71.7018 194.926C76.7099 199.308 81.6627 203.626 86.7497 207.768L88.8114 209.448C93.6087 213.38 98.3261 217.385 103.005 221.401C103.731 222.024 103.734 222.025 104.445 222.638L107.31 225.102L107.313 225.104C110.587 227.922 113.879 230.685 117.227 233.383L118.982 234.821C120.434 236.029 121.86 237.271 123.269 238.58L124.113 239.372L124.123 239.383L124.134 239.392C128.828 243.923 133.343 247.488 138.908 250.356L141.554 251.651L141.597 251.671L141.639 251.693C146.022 253.951 150.174 254.56 155.663 254.611C156.493 254.608 157.304 254.607 158.114 254.606L159.837 254.594C167.301 254.511 174.721 254.02 182.232 253.329L185.705 252.996C189.395 252.621 193.092 252.246 196.793 251.887C200.249 251.553 203.703 251.219 207.156 250.88L216.683 249.953C226.212 249.033 235.742 248.137 245.273 247.26C249.383 246.881 253.485 246.504 257.585 246.116C260.194 245.87 262.802 245.628 265.407 245.388H265.413L269.091 245.049C270.768 244.89 272.458 244.728 274.146 244.572L274.163 244.57C277.696 244.257 282.881 243.473 287.578 243.517C292.253 243.56 297.55 244.378 301.905 247.787L302.324 248.124L302.964 248.658L303.371 249.384C306.238 254.503 306.142 259.743 305.277 264.523L305.127 265.359L304.681 266.083C302.26 270.015 299.281 272.243 295.969 274.284L295.938 274.301L295.909 274.32C295.369 274.641 294.849 274.95 294.33 275.261C292.565 276.337 290.795 277.413 289.015 278.482L289.007 278.486C287.744 279.241 286.48 280.002 285.215 280.765C281.877 282.779 278.534 284.788 275.186 286.788C271.804 288.807 268.424 290.832 265.046 292.86L265.044 292.859C264.375 293.26 263.707 293.664 263.039 294.065C262.37 294.466 261.701 294.867 261.033 295.268L261.03 295.27C259.017 296.477 259.015 296.478 216.722 321.855C215.669 322.486 215.668 322.487 214.638 323.105L214.636 323.104C213.971 323.503 213.306 323.904 212.64 324.303C211.976 324.702 211.311 325.099 210.646 325.498L210.648 325.499C207.347 327.485 204.026 329.484 200.684 331.454L200.677 331.458C199.566 332.111 199.561 332.112 198.481 332.746C197.044 333.596 195.606 334.448 194.167 335.297L194.155 335.304L194.141 335.312C182.593 342.029 173.395 350.918 169.529 363.17C169.292 364.09 169.063 364.984 168.832 365.878L168.831 365.882C167.327 371.687 165.993 377.548 164.69 383.472C164.211 385.651 163.731 387.841 163.245 390.03L163.244 390.035C163.127 390.559 163.012 391.068 162.898 391.581C162.29 394.355 161.62 397.17 160.667 400.047L160.66 400.065C160.262 401.25 160.11 401.711 159.996 402.106C159.894 402.46 159.821 402.77 159.623 403.638C158.701 408.698 157.573 413.676 156.428 418.581L156.426 418.585C156.057 420.16 155.688 421.734 155.321 423.31C154.183 428.212 153.035 433.248 151.664 438.238C150.288 443.238 149.632 447.697 149.586 452.577H151.301V457.389C152.539 459.1 154.44 460.408 157.061 461.612C160.006 462.272 160.476 462.277 161.686 461.844C163.225 461.294 165.339 460.096 169.467 457.557L174.32 454.544C175.727 453.656 177.135 452.771 178.546 451.89C179.315 451.41 180.059 450.945 180.802 450.481C184.423 448.21 188.051 445.955 191.682 443.71C193.08 442.844 194.484 441.977 195.879 441.115C196.605 440.665 197.293 440.239 197.992 439.806L197.996 439.803C200.075 438.516 202.153 437.229 204.232 435.941C210.835 431.849 217.447 427.752 224.074 423.679C236.616 415.974 249.12 408.207 261.585 400.378C264.843 398.332 268.111 396.28 271.389 394.241L271.393 394.239C274.508 392.307 277.574 390.411 280.598 388.454C282.058 387.505 283.522 386.565 284.989 385.633L284.993 385.631C285.672 385.2 286.333 384.781 286.992 384.363C288.834 383.13 290.73 381.932 292.786 380.823L293.054 380.679L293.339 380.572C298.456 378.646 303.739 378.808 308.603 380.368L309.57 380.697L310.083 380.884L310.536 381.187C311.189 381.623 311.836 382.054 312.475 382.481C313.275 382.994 314.045 383.488 314.817 383.981L314.85 384.003L314.884 384.025C317.047 385.462 319.249 386.852 321.493 388.234L327.99 392.244L327.993 392.245C331.998 394.736 336.006 397.21 340.029 399.656C344.818 402.569 349.604 405.513 354.359 408.527C360.119 412.182 365.898 415.802 371.703 419.371L378.784 423.727C383.501 426.637 388.212 429.556 392.916 432.486L399.967 436.891L399.968 436.893L406.221 440.804L406.224 440.806L409.648 442.94L409.652 442.941C410.188 443.276 410.719 443.606 411.245 443.935C414.181 445.764 417.135 447.619 420.067 449.536C422.353 451.031 424.64 452.506 426.939 453.955C427.426 454.26 427.916 454.567 428.4 454.871L430.862 456.4C431.679 456.903 432.496 457.4 433.316 457.891L434.968 458.87L435.015 458.897L435.059 458.925C437.078 460.183 438.632 460.873 440.121 461.233C441.548 461.578 443.153 461.675 445.347 461.451C448.371 460.77 450.416 459.442 452.398 456.916C454.149 453.866 454.378 450.476 453.4 446.371C452.04 440.955 452.037 440.942 450.725 435.517C450.581 434.927 450.437 434.337 450.294 433.746C450.15 433.155 450.006 432.562 449.863 431.97C448.304 425.599 446.741 419.177 445.322 412.709L445.32 412.707C443.705 405.324 441.943 397.971 440.121 390.596C437.227 378.904 434.318 367.145 431.735 355.293V355.289C430.443 349.341 429.099 343.449 427.609 337.594C426.149 331.878 424.801 326.151 423.518 320.416L423.516 320.411C422.675 316.632 421.876 313.014 420.881 309.448C419.685 305.414 418.666 301.291 418.874 296.421L418.883 296.201L418.914 295.984C419.243 293.651 419.896 291.592 421.038 289.684C422.159 287.812 423.616 286.315 425.22 284.943L425.263 284.907L425.306 284.872C426.662 283.769 427.978 282.688 429.262 281.584C429.726 281.18 430.195 280.771 430.651 280.373L432.119 279.093C436.141 275.583 440.222 272.055 444.434 268.643L444.436 268.642C447.933 265.813 451.348 262.877 454.786 259.875L454.788 259.874C458.161 256.931 461.599 253.985 465.192 251.155C467.761 249.132 470.225 247.02 472.67 244.794C475.429 242.28 478.236 239.86 481.138 237.505L481.142 237.503C484.073 235.131 486.962 232.721 489.819 230.264C492.906 227.601 496.038 224.896 499.239 222.257L499.252 222.247L499.266 222.237C503.306 218.958 507.296 215.645 511.227 212.264C513.99 209.885 516.776 207.485 519.587 205.113C520.865 204.035 522.132 202.968 523.395 201.895C525.244 200.322 527.119 198.733 529.024 197.165L529.025 197.164C530.111 196.271 531.195 195.372 532.274 194.47C532.825 194.009 533.359 193.563 533.89 193.118L533.92 193.094L533.949 193.072C538.127 189.695 540.465 186.85 541.5 182.438C541.454 179.188 540.991 177.183 539.479 174.984C537.101 172.665 534.263 171.317 530.829 170.813C530.117 170.768 529.423 170.724 528.729 170.68H528.712L528.694 170.679C527.831 170.618 526.994 170.559 526.154 170.5C524.516 170.391 522.872 170.271 521.223 170.132L521.199 170.129C520.439 170.061 519.7 169.993 518.964 169.927C518.184 169.857 517.419 169.791 516.655 169.722C515.835 169.65 515.04 169.578 514.247 169.508C511.514 169.265 508.78 169.021 506.047 168.776C505.054 168.689 504.091 168.604 503.131 168.517C491.441 167.475 479.753 166.415 468.066 165.338L456.378 164.254C445.08 163.197 433.787 162.165 422.493 161.21C411.503 160.281 400.346 159.419 389.245 158.077L389.229 158.074L389.215 158.073C388.401 157.969 387.619 157.868 386.837 157.769C384.354 157.458 381.925 157.088 379.447 156.624L378.43 156.433L377.599 155.819C374.308 153.389 371.931 151.683 370.165 149.373C368.411 147.079 367.346 144.298 365.787 140.382L365.781 140.37C364.793 137.866 363.789 135.367 362.774 132.865C362.547 132.307 362.322 131.749 362.104 131.212L362.101 131.205C359.632 125.095 357.069 119.017 354.47 112.925C349.39 101.04 344.348 89.1339 339.359 77.2065L339.356 77.2025L338.46 75.0554C335.389 67.7158 332.32 60.3739 329.26 53.0273C327.971 49.9311 326.68 46.8352 325.388 43.74C325.076 42.9914 324.763 42.2415 324.451 41.4929C324.139 40.7441 323.827 39.9946 323.515 39.2458L323.512 39.2418C321.83 35.1969 320.156 31.173 318.446 27.1669C317.565 25.1027 316.693 23.0225 315.846 20.9233L315.844 20.9192C315.258 19.4622 314.661 18.0078 314.056 16.5585L313.164 14.4234L313.142 14.3727L313.122 14.322C312.442 12.5734 311.753 10.9484 310.97 9.36076C309.142 6.89496 306.444 5.2498 303.224 4.5236C302.549 4.55093 301.887 4.57836 301.226 4.605Z" fill="black"/>
</g>
<mask id="mask3_42_32" style="mask-type:luminance" maskUnits="userSpaceOnUse" x="319" y="117" width="124" height="212">
<path d="M442.867 117.247H319.114V328.291H442.867V117.247Z" fill="white"/>
</mask>
<g mask="url(#mask3_42_32)">
<path d="M380.991 119.625C396.886 119.625 411.71 130.628 422.692 149.355C433.64 168.025 440.488 193.976 440.488 222.768C440.488 251.56 433.64 277.508 422.692 296.18C411.71 314.907 396.886 325.91 380.991 325.91C365.095 325.91 350.271 314.907 339.29 296.18C328.341 277.508 321.493 251.56 321.493 222.768C321.493 193.976 328.341 168.025 339.29 149.355C350.271 130.628 365.095 119.625 380.991 119.625Z" fill="white"/>
<path d="M438.109 222.768C438.109 194.769 431.548 169.602 421.138 151.419L420.64 150.558C409.876 132.202 395.696 122.005 380.99 122.005C366.285 122.005 352.106 132.202 341.343 150.558H341.342C330.642 168.804 323.872 194.324 323.872 222.768C323.872 251.212 330.643 276.729 341.343 294.976C352.106 313.333 366.285 323.531 380.99 323.531C395.696 323.531 409.876 313.333 420.64 294.976C431.339 276.729 438.109 251.212 438.109 222.768ZM442.867 222.768C442.867 251.908 435.94 278.287 424.744 297.383C413.545 316.48 398.076 328.289 380.99 328.289C363.905 328.289 348.436 316.48 337.238 297.383C326.04 278.287 319.113 251.908 319.113 222.768C319.113 193.629 326.04 167.246 337.238 148.151C348.436 129.054 363.905 117.246 380.99 117.246C398.075 117.246 413.545 129.054 424.744 148.151C435.941 167.246 442.867 193.629 442.867 222.768Z" fill="black"/>
<path d="M380.992 155.919C401.129 155.919 417.455 185.849 417.455 222.768C417.455 259.687 401.129 289.617 380.992 289.617C360.854 289.617 344.528 259.687 344.528 222.768C344.528 185.849 360.854 155.919 380.992 155.919Z" fill="#000B1F"/>
<path d="M380.99 257.575C401.208 257.575 419.734 264.623 434.118 276.33C423.353 307.428 403.508 328.291 380.799 328.291C358.15 328.289 338.346 307.536 327.564 276.573C341.989 264.72 360.634 257.575 380.99 257.575Z" fill="#F9B2DF"/>
<mask id="mask4_42_32" style="mask-type:luminance" maskUnits="userSpaceOnUse" x="327" y="257" width="108" height="72">
<path d="M380.99 257.575C401.208 257.575 419.734 264.623 434.118 276.33C423.353 307.428 403.508 328.291 380.799 328.291C358.15 328.289 338.346 307.536 327.564 276.573C341.989 264.72 360.634 257.575 380.99 257.575Z" fill="white"/>
</mask>
<g mask="url(#mask4_42_32)">
<path d="M434.118 276.33L438.614 277.887L439.703 274.741L437.122 272.641L434.118 276.33ZM380.799 328.291L380.798 333.049H380.799V328.291ZM327.564 276.573L324.543 272.898L321.978 275.003L323.07 278.138L327.564 276.573ZM380.991 257.575V262.333C400.086 262.333 417.557 268.986 431.115 280.021L434.118 276.33L437.122 272.641C421.911 260.26 402.33 252.817 380.991 252.817V257.575ZM434.118 276.33L429.623 274.774C419.056 305.298 400.353 323.532 380.799 323.532V328.291V333.049C406.661 333.049 427.651 309.559 438.614 277.887L434.118 276.33ZM380.799 328.291V323.532C361.295 323.532 342.639 305.395 332.057 275.009L327.564 276.573L323.07 278.138C334.054 309.678 355.003 333.047 380.798 333.049L380.799 328.291ZM327.564 276.573L330.584 280.249C344.181 269.077 361.762 262.333 380.991 262.333V257.575V252.817C359.504 252.817 339.799 260.361 324.543 272.898L327.564 276.573Z" fill="black"/>
</g>
</g>
<path d="M279.889 75.0526H227.957C221.643 75.0526 216.524 80.1713 216.524 86.4855V86.4855C216.524 92.7997 221.643 97.9183 227.957 97.9183H279.889C286.203 97.9183 291.322 92.7997 291.322 86.4855V86.4855C291.322 80.1713 286.203 75.0526 279.889 75.0526Z" fill="#F9B2DF"/>
<path d="M288.942 86.4857C288.942 81.4854 284.889 77.4319 279.889 77.4319H227.957C222.957 77.4319 218.903 81.4854 218.903 86.4857C218.903 91.486 222.957 95.5396 227.957 95.5396H279.889C284.889 95.5396 288.942 91.486 288.942 86.4857ZM293.701 86.4857C293.701 94.1137 287.517 100.298 279.889 100.298H227.957C220.329 100.298 214.145 94.1137 214.145 86.4857C214.145 78.8577 220.329 72.6735 227.957 72.6735H279.889C287.517 72.6735 293.701 78.8577 293.701 86.4857Z" fill="black"/>
<path d="M365.552 75.0526L417.484 75.0526C423.798 75.0526 428.917 80.1713 428.917 86.4855C428.917 92.7997 423.798 97.9183 417.484 97.9183L365.552 97.9183C359.238 97.9183 354.119 92.7996 354.119 86.4855C354.119 80.1713 359.238 75.0526 365.552 75.0526Z" fill="#F9B2DF"/>
<path d="M356.498 86.4857C356.498 81.4854 360.552 77.4319 365.552 77.4319L417.484 77.4319C422.484 77.4319 426.538 81.4854 426.538 86.4857C426.538 91.486 422.484 95.5396 417.484 95.5396L365.552 95.5396C360.552 95.5396 356.498 91.486 356.498 86.4857ZM351.74 86.4857C351.74 94.1137 357.924 100.298 365.552 100.298L417.484 100.298C425.112 100.298 431.296 94.1137 431.296 86.4857C431.296 78.8577 425.112 72.6735 417.484 72.6735L365.552 72.6735C357.924 72.6735 351.74 78.8577 351.74 86.4857Z" fill="black"/>
<mask id="mask5_42_32" style="mask-type:luminance" maskUnits="userSpaceOnUse" x="214" y="117" width="124" height="212">
<path d="M337.898 117.247H214.145V328.291H337.898V117.247Z" fill="white"/>
</mask>
<g mask="url(#mask5_42_32)">
<path d="M276.021 119.626C291.917 119.626 306.741 130.628 317.723 149.355C328.671 168.025 335.519 193.976 335.519 222.768C335.519 251.56 328.671 277.508 317.723 296.18C306.741 314.907 291.917 325.911 276.021 325.911C260.126 325.911 245.301 314.907 234.321 296.18C223.372 277.508 216.523 251.56 216.523 222.768C216.523 193.976 223.372 168.025 234.321 149.355C245.301 130.628 260.126 119.626 276.021 119.626Z" fill="white"/>
<path d="M333.14 222.768C333.14 194.769 326.579 169.602 316.169 151.419L315.671 150.558C304.906 132.202 290.727 122.005 276.021 122.005C261.315 122.005 247.137 132.202 236.374 150.558H236.372C225.673 168.804 218.903 194.324 218.903 222.768C218.903 251.212 225.673 276.729 236.372 294.976H236.374C247.137 313.333 261.315 323.531 276.021 323.531C290.727 323.531 304.906 313.333 315.671 294.976C326.37 276.729 333.14 251.212 333.14 222.768ZM337.898 222.768C337.898 251.908 330.971 278.287 319.774 297.383C308.575 316.48 293.106 328.289 276.021 328.289C258.936 328.289 243.467 316.48 232.269 297.383C221.071 278.287 214.144 251.908 214.144 222.768C214.144 193.629 221.071 167.246 232.269 148.151C243.467 129.054 258.936 117.246 276.021 117.246C293.106 117.246 308.575 129.054 319.774 148.151C330.971 167.246 337.898 193.629 337.898 222.768Z" fill="black"/>
<path d="M276.02 155.919C296.158 155.919 312.483 185.849 312.483 222.768C312.483 259.687 296.158 289.616 276.02 289.617C255.883 289.617 239.557 259.687 239.557 222.768C239.557 185.849 255.883 155.919 276.02 155.919Z" fill="#000B1F"/>
<path d="M276.017 257.575C296.235 257.575 314.761 264.623 329.145 276.33C318.382 307.428 298.535 328.291 275.826 328.291C253.176 328.289 233.373 307.536 222.591 276.573C237.017 264.72 255.661 257.575 276.017 257.575Z" fill="#F9B2DF"/>
<mask id="mask6_42_32" style="mask-type:luminance" maskUnits="userSpaceOnUse" x="222" y="257" width="108" height="72">
<path d="M276.017 257.575C296.235 257.575 314.761 264.623 329.145 276.33C318.382 307.428 298.535 328.291 275.826 328.291C253.176 328.289 233.373 307.536 222.591 276.573C237.017 264.72 255.661 257.575 276.017 257.575Z" fill="white"/>
</mask>
<g mask="url(#mask6_42_32)">
<path d="M329.145 276.33L333.642 277.887L334.731 274.741L332.148 272.641L329.145 276.33ZM222.59 276.574L219.569 272.898L217.006 275.003L218.096 278.138L222.59 276.574ZM276.017 257.575V262.333C295.114 262.333 312.584 268.986 326.142 280.021L329.145 276.33L332.148 272.641C316.937 260.26 297.357 252.817 276.017 252.817V257.575ZM329.145 276.33L324.649 274.774C314.083 305.298 295.379 323.532 275.826 323.532V328.291V333.049C301.688 333.049 322.679 309.559 333.642 277.887L329.145 276.33ZM275.826 328.291V323.532C256.323 323.532 237.666 305.395 227.083 275.009L222.59 276.574L218.096 278.138C229.081 309.678 250.031 333.047 275.826 333.049V328.291ZM222.59 276.574L225.61 280.249C239.207 269.077 256.789 262.333 276.017 262.333V257.575V252.817C254.532 252.817 234.825 260.361 219.569 272.898L222.59 276.574Z" fill="black"/>
</g>
</g>
</svg>
