<svg width="572" height="70" viewBox="0 0 572 70" fill="none" xmlns="http://www.w3.org/2000/svg">
<path d="M0.672 67.808C1.824 65.632 2.656 62.944 3.168 59.744C3.744 56.48 4.032 52.352 4.032 47.36V21.44C4.032 16.448 3.744 12.352 3.168 9.152C2.656 5.888 1.824 3.168 0.672 0.991999V0.799995H23.328C23.328 3.872 22.816 6.784 21.792 9.536C20.768 12.224 19.648 14.688 18.432 16.928C17.216 19.104 16.096 20.992 15.072 22.592C14.048 24.192 13.536 25.44 13.536 26.336C13.536 27.104 13.76 27.744 14.208 28.256C14.656 28.704 15.392 29.056 16.416 29.312C17.504 29.568 18.912 29.76 20.64 29.888C22.368 29.952 24.48 29.984 26.976 29.984H29.856C32.352 29.984 34.464 29.952 36.192 29.888C37.92 29.76 39.296 29.568 40.32 29.312C41.408 29.056 42.176 28.704 42.624 28.256C43.072 27.744 43.296 27.104 43.296 26.336C43.296 25.44 42.784 24.288 41.76 22.88C40.736 21.472 39.616 19.744 38.4 17.696C37.184 15.648 36.064 13.248 35.04 10.496C34.016 7.68 33.504 4.448 33.504 0.799995H56.16V0.991999C55.008 3.168 54.144 5.888 53.568 9.152C53.056 12.352 52.8 16.448 52.8 21.44V47.36C52.8 52.352 53.056 56.48 53.568 59.744C54.144 62.944 55.008 65.632 56.16 67.808V68H33.504V61.664C33.504 58.08 34.016 55.072 35.04 52.64C36.064 50.208 37.184 48.128 38.4 46.4C39.616 44.672 40.736 43.168 41.76 41.888C42.784 40.544 43.296 39.2 43.296 37.856C43.296 37.088 43.072 36.48 42.624 36.032C42.176 35.52 41.408 35.136 40.32 34.88C39.296 34.624 37.92 34.464 36.192 34.4C34.464 34.272 32.352 34.208 29.856 34.208H26.976C24.48 34.208 22.368 34.272 20.64 34.4C18.912 34.464 17.504 34.624 16.416 34.88C15.392 35.136 14.656 35.52 14.208 36.032C13.76 36.48 13.536 37.088 13.536 37.856C13.536 39.2 14.048 40.544 15.072 41.888C16.096 43.168 17.216 44.672 18.432 46.4C19.648 48.128 20.768 50.208 21.792 52.64C22.816 55.072 23.328 58.08 23.328 61.664V68H0.672V67.808ZM68.214 68.576C61.238 68.576 57.942 67.936 58.326 66.656L62.934 48.512C63.254 47.424 63.894 47.136 64.854 47.648C67.03 48.608 69.206 49.376 71.382 49.952C73.622 50.528 75.734 50.816 77.718 50.816C78.678 50.816 79.382 50.688 79.83 50.432C80.342 50.112 80.598 49.76 80.598 49.376C80.662 48.992 80.47 48.608 80.022 48.224C79.638 47.776 79.03 47.424 78.198 47.168L69.846 44.48C66.198 43.328 64.918 40.64 66.006 36.416L69.942 20.864C71.158 16.064 72.022 12.096 72.534 8.96C73.046 5.824 72.726 3.168 71.574 0.991999V0.799995L102.39 0.895994V1.088C101.238 3.264 100.854 5.952 101.238 9.152C101.686 12.288 102.454 16.256 103.542 21.056L109.686 47.84C110.774 52.64 112.054 56.64 113.526 59.84C115.062 62.976 116.406 65.632 117.558 67.808V68H93.462V67.808C94.614 65.632 94.966 62.976 94.518 59.84C94.07 56.64 93.302 52.64 92.214 47.84L87.126 25.472C86.294 21.76 85.302 19.072 84.15 17.408C82.998 15.68 81.846 14.752 80.694 14.624C79.542 14.496 78.486 15.008 77.526 16.16C76.566 17.312 75.83 18.848 75.318 20.768L71.958 34.016C71.446 35.872 71.414 37.28 71.862 38.24C72.31 39.2 73.302 39.968 74.838 40.544L79.254 42.272C80.918 42.912 82.358 43.584 83.574 44.288C84.854 44.928 85.91 45.696 86.742 46.592C87.638 47.424 88.278 48.416 88.662 49.568C89.11 50.72 89.334 52.064 89.334 53.6C89.334 55.84 88.79 57.888 87.702 59.744C86.614 61.536 85.11 63.104 83.19 64.448C81.27 65.728 79.03 66.752 76.47 67.52C73.91 68.224 71.158 68.576 68.214 68.576ZM118.235 67.808C119.387 65.632 120.219 62.944 120.73 59.744C121.307 56.48 121.595 52.352 121.595 47.36V21.44C121.595 16.448 121.307 12.352 120.73 9.152C120.219 5.888 119.387 3.168 118.235 0.991999V0.799995H147.515C150.779 0.799995 153.755 1.27999 156.443 2.23999C159.195 3.2 161.563 4.544 163.547 6.272C165.595 8 167.163 10.112 168.25 12.608C169.403 15.04 169.979 17.76 169.979 20.768C169.979 24.544 169.339 28.096 168.059 31.424C166.843 34.688 165.147 37.536 162.971 39.968C160.859 42.4 158.331 44.32 155.387 45.728C152.507 47.136 149.403 47.84 146.075 47.84C144.091 47.84 142.107 47.456 140.123 46.688C138.203 45.856 136.475 44.672 134.939 43.136C133.467 41.6 132.315 39.712 131.483 37.472C130.651 35.232 130.363 32.672 130.619 29.792C130.811 27.936 131.451 27.168 132.539 27.488C135.931 28.576 139.515 29.408 143.291 29.984C147.131 30.56 150.651 30.688 153.851 30.368C157.051 30.048 159.675 29.216 161.723 27.872C163.835 26.528 164.891 24.512 164.891 21.824C164.891 19.648 163.835 17.952 161.723 16.736C159.675 15.456 157.019 14.816 153.755 14.816C149.595 14.816 145.819 15.232 142.427 16.064C139.099 16.896 136.219 18.08 133.787 19.616C131.419 21.088 129.563 22.848 128.219 24.896C126.939 26.944 126.299 29.184 126.299 31.616C126.299 37.056 127.643 42.464 130.331 47.84C133.019 53.152 137.147 58.72 142.715 64.544C143.291 65.184 143.579 65.92 143.579 66.752C143.643 67.584 143.131 68 142.043 68H118.235V67.808ZM171.203 67.808C172.355 65.632 173.187 62.944 173.699 59.744C174.275 56.48 174.563 52.352 174.563 47.36V21.44C174.563 16.448 174.275 12.352 173.699 9.152C173.187 5.888 172.355 3.168 171.203 0.991999V0.799995H200.483C203.747 0.799995 206.723 1.27999 209.411 2.23999C212.163 3.2 214.531 4.544 216.515 6.272C218.563 8 220.131 10.112 221.219 12.608C222.371 15.04 222.947 17.76 222.947 20.768C222.947 24.544 222.307 28.096 221.027 31.424C219.811 34.688 218.115 37.536 215.939 39.968C213.827 42.4 211.299 44.32 208.355 45.728C205.475 47.136 202.371 47.84 199.043 47.84C197.059 47.84 195.075 47.456 193.091 46.688C191.171 45.856 189.443 44.672 187.907 43.136C186.435 41.6 185.283 39.712 184.451 37.472C183.619 35.232 183.331 32.672 183.587 29.792C183.779 27.936 184.419 27.168 185.507 27.488C188.899 28.576 192.483 29.408 196.259 29.984C200.099 30.56 203.619 30.688 206.819 30.368C210.019 30.048 212.643 29.216 214.691 27.872C216.803 26.528 217.859 24.512 217.859 21.824C217.859 19.648 216.803 17.952 214.691 16.736C212.643 15.456 209.987 14.816 206.723 14.816C202.563 14.816 198.787 15.232 195.395 16.064C192.067 16.896 189.187 18.08 186.755 19.616C184.387 21.088 182.531 22.848 181.187 24.896C179.907 26.944 179.267 29.184 179.267 31.616C179.267 37.056 180.611 42.464 183.299 47.84C185.987 53.152 190.115 58.72 195.683 64.544C196.259 65.184 196.547 65.92 196.547 66.752C196.611 67.584 196.099 68 195.011 68H171.203V67.808ZM245.513 68C244.425 67.104 243.561 66.048 242.921 64.832C242.281 63.552 241.961 62.208 241.961 60.8C241.961 58.944 242.441 57.44 243.401 56.288C244.361 55.072 245.417 54.08 246.569 53.312C247.721 52.544 248.777 51.936 249.737 51.488C250.697 50.976 251.177 50.464 251.177 49.952C251.177 49.056 250.217 48.704 248.297 48.896C246.441 49.088 244.553 48.96 242.633 48.512C240.777 48.064 239.081 47.36 237.545 46.4C236.009 45.376 234.761 44.16 233.801 42.752C232.841 41.28 232.361 39.616 232.361 37.76C232.361 34.88 233.545 32 235.913 29.12C238.345 26.24 241.673 23.744 245.897 21.632C247.177 20.992 247.625 20.32 247.241 19.616C246.921 18.848 245.961 18.464 244.361 18.464C243.465 18.464 242.377 18.592 241.097 18.848C239.881 19.104 238.601 19.424 237.257 19.808C235.913 20.192 234.537 20.64 233.129 21.152C231.721 21.6 230.377 22.08 229.097 22.592C228.393 22.912 227.817 22.912 227.369 22.592C226.985 22.272 226.793 21.76 226.793 21.056V2.816C226.793 2.368 227.113 1.984 227.753 1.664C228.457 1.28 229.289 0.991997 230.249 0.799995C231.209 0.607998 232.233 0.479998 233.321 0.415995C234.473 0.287996 235.497 0.223997 236.393 0.223997C238.505 0.223997 240.521 0.543997 242.441 1.184C244.425 1.824 246.121 2.752 247.529 3.96799C249.001 5.12 250.153 6.528 250.984 8.192C251.881 9.856 252.329 11.712 252.329 13.76C252.329 16.384 252.073 18.784 251.561 20.96C251.113 23.072 250.601 25.056 250.025 26.912C249.449 28.704 248.905 30.4 248.393 32C247.945 33.6 247.721 35.168 247.721 36.704C247.721 39.2 248.489 41.312 250.025 43.04C251.625 44.768 253.545 45.632 255.785 45.632C257.065 45.632 258.249 45.28 259.337 44.576C260.425 43.808 261.385 42.784 262.217 41.504C263.049 40.224 263.689 38.72 264.137 36.992C264.585 35.2 264.809 33.28 264.809 31.232C264.809 24.64 264.233 18.784 263.081 13.664C261.929 8.48 260.393 4.16 258.473 0.703997L273.641 0.799995C276.393 0.799995 278.441 2.016 279.785 4.44799C281.193 6.816 281.897 10.304 281.897 14.912C281.897 17.92 281.417 20.672 280.457 23.168C279.497 25.6 278.281 27.904 276.809 30.08C275.337 32.256 273.737 34.368 272.009 36.416C270.345 38.464 268.777 40.576 267.305 42.752C265.833 44.928 264.617 47.232 263.657 49.664C262.697 52.032 262.217 54.688 262.217 57.632C262.217 60.064 262.345 62.112 262.601 63.776C262.921 65.44 263.657 66.816 264.809 67.904V68H245.513ZM325.88 69.44C324.216 69.44 322.392 69.28 320.408 68.96C318.424 68.64 316.44 68.192 314.456 67.616C312.472 67.04 310.52 66.368 308.6 65.6C306.744 64.832 305.08 64.032 303.608 63.2V42.272C303.608 40.48 304.376 40.256 305.912 41.6C308.28 43.712 310.904 45.792 313.784 47.84C316.664 49.888 319.64 51.712 322.712 53.312C325.784 54.912 328.824 56.224 331.832 57.248C334.904 58.208 337.752 58.688 340.376 58.688C341.336 58.688 342.136 58.4 342.776 57.824C343.416 57.248 343.736 56.544 343.736 55.712C343.736 53.792 342.04 51.904 338.648 50.048L314.456 36.992C310.808 35.072 308.12 32.736 306.392 29.984C304.664 27.168 303.736 23.648 303.608 19.424C303.48 16.736 303.96 14.24 305.048 11.936C306.2 9.568 307.768 7.52 309.752 5.792C311.8 4.064 314.2 2.72 316.952 1.75999C319.768 0.735996 322.776 0.223997 325.976 0.223997C328.088 0.223997 330.008 0.351997 331.736 0.607998C333.528 0.799995 335.288 0.991995 337.016 1.184C338.744 1.376 340.536 1.44 342.392 1.376C344.248 1.312 346.328 0.991995 348.632 0.415995C349.592 0.223997 350.264 0.575998 350.648 1.472C351.416 3.776 351.768 5.92 351.704 7.904C351.64 9.824 351.224 11.52 350.456 12.992C349.688 14.4 348.568 15.52 347.096 16.352C345.624 17.184 343.832 17.6 341.72 17.6C339.48 17.6 337.304 17.344 335.192 16.832C333.144 16.256 331.16 15.552 329.24 14.72C327.384 13.824 325.56 12.864 323.768 11.84C322.04 10.816 320.376 9.824 318.776 8.86399C318.072 8.416 317.208 8.16 316.184 8.096C315.224 7.968 314.296 8.064 313.4 8.384C312.504 8.64 311.736 9.152 311.096 9.92C310.52 10.624 310.232 11.552 310.232 12.704C310.232 14.88 311.928 16.736 315.32 18.272L341.144 30.176C344.408 31.648 347 33.952 348.92 37.088C350.84 40.16 351.8 43.808 351.8 48.032C351.8 51.04 351.128 53.856 349.784 56.48C348.44 59.04 346.584 61.28 344.216 63.2C341.912 65.12 339.192 66.656 336.056 67.808C332.92 68.896 329.528 69.44 325.88 69.44ZM371.019 67.808C372.171 65.632 373.003 62.944 373.515 59.744C374.091 56.48 374.379 52.352 374.379 47.36V8.672C374.379 7.584 374.187 6.88 373.803 6.56C373.483 6.24 372.875 6.144 371.979 6.272C370.955 6.464 369.771 7.104 368.427 8.192C367.083 9.28 365.707 10.688 364.299 12.416C362.891 14.144 361.483 16.128 360.075 18.368C358.731 20.544 357.483 22.88 356.331 25.376C356.011 26.144 355.499 26.4 354.795 26.144C354.155 25.824 353.835 25.216 353.835 24.32V0.799995H410.571V24.32C410.571 25.216 410.219 25.824 409.515 26.144C408.875 26.4 408.395 26.144 408.075 25.376C406.923 22.88 405.643 20.544 404.235 18.368C402.891 16.128 401.515 14.144 400.107 12.416C398.699 10.688 397.323 9.28 395.979 8.192C394.635 7.104 393.451 6.464 392.427 6.272C391.531 6.144 390.891 6.24 390.507 6.56C390.187 6.88 390.027 7.584 390.027 8.672V47.36C390.027 52.352 390.283 56.48 390.795 59.744C391.371 62.944 392.235 65.632 393.387 67.808V68H371.019V67.808ZM414.714 68.576C407.738 68.576 404.442 67.936 404.826 66.656L409.434 48.512C409.754 47.424 410.394 47.136 411.354 47.648C413.53 48.608 415.706 49.376 417.882 49.952C420.122 50.528 422.234 50.816 424.218 50.816C425.178 50.816 425.882 50.688 426.33 50.432C426.842 50.112 427.098 49.76 427.098 49.376C427.162 48.992 426.97 48.608 426.522 48.224C426.138 47.776 425.53 47.424 424.698 47.168L416.346 44.48C412.698 43.328 411.418 40.64 412.506 36.416L416.442 20.864C417.658 16.064 418.522 12.096 419.034 8.96C419.546 5.824 419.226 3.168 418.074 0.991999V0.799995L448.89 0.895994V1.088C447.738 3.264 447.354 5.952 447.738 9.152C448.186 12.288 448.954 16.256 450.042 21.056L456.186 47.84C457.274 52.64 458.554 56.64 460.026 59.84C461.562 62.976 462.906 65.632 464.058 67.808V68H439.962V67.808C441.114 65.632 441.466 62.976 441.018 59.84C440.57 56.64 439.802 52.64 438.714 47.84L433.626 25.472C432.794 21.76 431.802 19.072 430.65 17.408C429.498 15.68 428.346 14.752 427.194 14.624C426.042 14.496 424.986 15.008 424.026 16.16C423.066 17.312 422.33 18.848 421.818 20.768L418.458 34.016C417.946 35.872 417.914 37.28 418.362 38.24C418.81 39.2 419.802 39.968 421.338 40.544L425.754 42.272C427.418 42.912 428.858 43.584 430.074 44.288C431.354 44.928 432.41 45.696 433.242 46.592C434.138 47.424 434.778 48.416 435.162 49.568C435.61 50.72 435.834 52.064 435.834 53.6C435.834 55.84 435.29 57.888 434.202 59.744C433.114 61.536 431.61 63.104 429.69 64.448C427.77 65.728 425.53 66.752 422.97 67.52C420.41 68.224 417.658 68.576 414.714 68.576ZM506.015 68.576C503.967 68.576 501.823 67.968 499.583 66.752C497.343 65.472 495.135 63.84 492.959 61.856C490.783 59.872 488.735 57.632 486.815 55.136C484.895 52.576 483.199 50.048 481.727 47.552C480.255 45.056 479.071 42.656 478.174 40.352C477.343 38.048 476.927 36.096 476.927 34.496C476.927 33.088 477.183 31.872 477.695 30.848C478.271 29.824 479.167 29.024 480.383 28.448C481.663 27.808 483.327 27.36 485.375 27.104C487.487 26.784 490.047 26.624 493.055 26.624C498.239 26.624 502.335 26.048 505.343 24.896C508.415 23.744 509.951 22.112 509.951 20C509.951 18.528 509.023 17.312 507.167 16.352C505.311 15.328 503.007 14.816 500.255 14.816C496.095 14.816 492.319 15.232 488.927 16.064C485.599 16.896 482.719 18.08 480.287 19.616C477.919 21.088 476.063 22.848 474.719 24.896C473.439 26.944 472.799 29.184 472.799 31.616C472.799 37.056 474.143 42.464 476.831 47.84C479.519 53.152 483.647 58.72 489.215 64.544C489.791 65.184 490.079 65.92 490.079 66.752C490.143 67.584 489.631 68 488.543 68H464.735V67.808C465.887 65.632 466.719 62.944 467.23 59.744C467.807 56.48 468.095 52.352 468.095 47.36V21.44C468.095 16.448 467.807 12.352 467.23 9.152C466.719 5.888 465.887 3.168 464.735 0.991999V0.799995H494.015C497.535 0.799995 500.735 1.184 503.615 1.952C506.495 2.72 508.927 3.80799 510.911 5.216C512.959 6.624 514.527 8.288 515.615 10.208C516.703 12.128 517.247 14.24 517.247 16.544C517.247 18.272 516.991 19.84 516.479 21.248C516.031 22.592 515.231 23.808 514.079 24.896C512.927 25.984 511.423 27.008 509.567 27.968C507.711 28.864 505.407 29.76 502.655 30.656C498.431 32.128 495.231 34.272 493.055 37.088C490.879 39.84 489.791 42.944 489.791 46.4C489.791 49.152 490.527 51.488 491.999 53.408C493.535 55.264 495.391 56.192 497.567 56.192C498.911 56.192 499.967 55.744 500.735 54.848C501.503 53.952 501.887 52.864 501.887 51.584C501.887 50.24 501.471 48.832 500.639 47.36C499.807 45.888 498.431 44.576 496.511 43.424C495.615 42.784 495.583 42.048 496.415 41.216C497.247 40.448 498.239 39.648 499.391 38.816C500.607 37.984 501.855 37.184 503.135 36.416C504.479 35.584 505.791 34.848 507.071 34.208C508.351 33.568 509.535 33.056 510.623 32.672C511.007 32.544 511.359 32.48 511.679 32.48C511.999 32.416 512.319 32.544 512.639 32.864C515.327 35.424 517.343 38.368 518.687 41.696C520.031 44.96 520.703 48.512 520.703 52.352C520.703 54.656 520.319 56.8 519.551 58.784C518.783 60.704 517.727 62.4 516.383 63.872C515.103 65.344 513.567 66.496 511.775 67.328C509.983 68.16 508.063 68.576 506.015 68.576ZM545.348 69.44C543.684 69.44 541.86 69.28 539.876 68.96C537.892 68.64 535.908 68.192 533.924 67.616C531.94 67.04 529.988 66.368 528.068 65.6C526.212 64.832 524.548 64.032 523.076 63.2V42.272C523.076 40.48 523.844 40.256 525.38 41.6C527.748 43.712 530.372 45.792 533.252 47.84C536.132 49.888 539.108 51.712 542.18 53.312C545.252 54.912 548.292 56.224 551.3 57.248C554.372 58.208 557.22 58.688 559.844 58.688C560.804 58.688 561.604 58.4 562.244 57.824C562.884 57.248 563.204 56.544 563.204 55.712C563.204 53.792 561.508 51.904 558.116 50.048L533.924 36.992C530.276 35.072 527.588 32.736 525.86 29.984C524.132 27.168 523.204 23.648 523.076 19.424C522.948 16.736 523.428 14.24 524.516 11.936C525.668 9.568 527.236 7.52 529.22 5.792C531.268 4.064 533.668 2.72 536.42 1.75999C539.236 0.735996 542.244 0.223997 545.444 0.223997C547.556 0.223997 549.476 0.351997 551.204 0.607998C552.996 0.799995 554.756 0.991995 556.484 1.184C558.212 1.376 560.004 1.44 561.86 1.376C563.716 1.312 565.796 0.991995 568.1 0.415995C569.06 0.223997 569.732 0.575998 570.116 1.472C570.884 3.776 571.236 5.92 571.172 7.904C571.108 9.824 570.692 11.52 569.924 12.992C569.156 14.4 568.036 15.52 566.564 16.352C565.092 17.184 563.3 17.6 561.188 17.6C558.948 17.6 556.772 17.344 554.66 16.832C552.612 16.256 550.628 15.552 548.708 14.72C546.852 13.824 545.028 12.864 543.236 11.84C541.508 10.816 539.844 9.824 538.244 8.86399C537.54 8.416 536.676 8.16 535.652 8.096C534.692 7.968 533.764 8.064 532.868 8.384C531.972 8.64 531.204 9.152 530.564 9.92C529.988 10.624 529.7 11.552 529.7 12.704C529.7 14.88 531.396 16.736 534.788 18.272L560.612 30.176C563.876 31.648 566.468 33.952 568.388 37.088C570.308 40.16 571.268 43.808 571.268 48.032C571.268 51.04 570.596 53.856 569.252 56.48C567.908 59.04 566.052 61.28 563.684 63.2C561.38 65.12 558.66 66.656 555.524 67.808C552.388 68.896 548.996 69.44 545.348 69.44Z" fill="#271877"/>
</svg>
